<?xml version="1.0" encoding="UTF-8" standalone="no"?>
<svg
   width="512"
   zoomAndPan="magnify"
   viewBox="0 0 384 384"
   height="512"
   preserveAspectRatio="xMidYMid meet"
   version="1.0"
   id="svg1203"
   sodipodi:docname="63.svg"
   inkscape:version="1.1 (c68e22c387, 2021-05-23)"
   xmlns:inkscape="http://www.inkscape.org/namespaces/inkscape"
   xmlns:sodipodi="http://sodipodi.sourceforge.net/DTD/sodipodi-0.dtd"
   xmlns="http://www.w3.org/2000/svg"
   xmlns:svg="http://www.w3.org/2000/svg">
  <sodipodi:namedview
     id="namedview1205"
     pagecolor="#ffffff"
     bordercolor="#666666"
     borderopacity="1.0"
     inkscape:pageshadow="2"
     inkscape:pageopacity="0.0"
     inkscape:pagecheckerboard="0"
     showgrid="false"
     inkscape:zoom="0.73518519"
     inkscape:cx="245.51637"
     inkscape:cy="255.71788"
     inkscape:window-width="1920"
     inkscape:window-height="1002"
     inkscape:window-x="-8"
     inkscape:window-y="-8"
     inkscape:window-maximized="1"
     inkscape:current-layer="svg1203" />
  <defs
     id="defs1181">
    <clipPath
       id="id1">
      <path
         d="m 220.58594,212.89062 h 384 v 384 h -384 z m 0,0"
         clip-rule="nonzero"
         id="path1172" />
    </clipPath>
    <clipPath
       id="id2">
      <path
         d="M 273.10937,349 H 450 V 513 H 273.10937 Z m 0,0"
         clip-rule="nonzero"
         id="path1175" />
    </clipPath>
    <clipPath
       id="id3">
      <path
         d="m 504,465 h 48.10937 v 48 H 504 Z m 0,0"
         clip-rule="nonzero"
         id="path1178" />
    </clipPath>
  </defs>
  <g
     clip-path="url(#id1)"
     id="g1185"
     transform="translate(-220.58594,-212.89063)">
    <path
       fill="#ad98d4"
       d="m 412.58594,212.89062 c -106.03907,0 -192,85.96094 -192,192 0,106.03907 85.96093,192 192,192 106.03906,0 192,-85.96093 192,-192 0,-106.03906 -85.96094,-192 -192,-192"
       fill-opacity="1"
       fill-rule="nonzero"
       id="path1183" />
  </g>
  <path
     fill="#ffffff"
     d="m 229.16015,157.79687 c 4.61328,2.92187 8.11719,7.60937 9.39844,13.36719 1.82031,8.13281 -1.26562,16.21875 -7.29297,21.16406 l 0.0234,0.40234 c 0.0898,1.44141 0.98828,2.70703 2.32422,3.25782 1.33203,0.55468 2.86328,0.29687 3.94531,-0.65625 l 36.26172,-32.1211 c 1.08203,-0.96094 1.52344,-2.45312 1.13672,-3.84375 -0.38281,-1.39062 -1.53125,-2.4414 -2.94922,-2.70312 l -38.66016,-7.17188 c -1.14062,-0.21484 -2.3164,0.11328 -3.1875,0.88281 -0.86718,0.77344 -1.33593,1.90235 -1.26562,3.0625 z m 0,0"
     fill-opacity="1"
     fill-rule="nonzero"
     id="path1187" />
  <path
     fill="#ffffff"
     d="m 202.07812,109.08203 c 0,14.34375 -11.61328,25.97265 -25.9375,25.97265 -14.32422,0 -25.9375,-11.6289 -25.9375,-25.97265 0,-14.343745 11.61328,-25.968745 25.9375,-25.968745 14.32422,0 25.9375,11.625 25.9375,25.968745 z m 0,0"
     fill-opacity="1"
     fill-rule="nonzero"
     id="path1189" />
  <g
     clip-path="url(#id2)"
     id="g1193"
     transform="translate(-220.58594,-212.89063)">
    <path
       fill="#ffffff"
       d="m 396.83984,408.6875 c 0.77344,0 1.55469,-0.0859 2.32813,-0.25781 l 41.52344,-9.3086 c 5.73828,-1.28906 9.35156,-6.98828 8.0664,-12.73828 -1.28906,-5.74609 -6.98047,-9.36328 -12.72265,-8.07422 l -35.94922,8.0625 -24.9375,-23.92187 23.88281,13.22656 3.37891,-0.75391 c -0.28907,-6.12109 -4.11719,-11.78515 -10.19922,-14.11328 l -26.45313,-10.11328 c -8.19531,-3.1289 -17.37109,0.98047 -20.5,9.1836 l -27.27344,71.52343 c -0.65234,1.29688 -1.35546,6.71485 -1.21093,7.66016 l 7.40625,48.30469 h -38.28907 c -7.05859,0 -12.78125,5.73047 -12.78125,12.79687 0,7.06641 5.72266,12.79297 12.78125,12.79297 h 53.1836 c 3.72656,0 7.26953,-1.62891 9.69531,-4.46094 2.42969,-2.83203 3.5,-6.58593 2.9375,-10.27343 l -7.3125,-47.67188 32.76563,8.26172 -9.07813,38.39844 c -1.62891,6.8789 2.62109,13.77343 9.48828,15.39843 6.86719,1.62891 13.75391,-2.62109 15.38281,-9.5039 l 11.98047,-50.67188 c 1.61328,-6.80859 -2.53515,-13.64843 -9.3125,-15.35547 l -14.13672,-3.5664 5.77735,-15.14844 c -2.08594,-1.16797 -3.88281,-2.85547 -5.15235,-4.9375 l -21.69531,-35.57812 29.0625,27.8789 c 2,1.91797 4.64844,2.96094 7.36328,2.96094 z m 0,0"
       fill-opacity="1"
       fill-rule="nonzero"
       id="path1191" />
  </g>
  <path
     fill="#ffffff"
     d="m 266.11718,252.66796 h -40.9414 c -1.76563,0 -3.19922,1.4336 -3.19922,3.20703 v 40.99219 c 0,1.76953 1.43359,3.19922 3.19922,3.19922 h 40.9414 c 1.76563,0 3.19922,-1.42969 3.19922,-3.19922 v -40.99219 c 0,-1.77343 -1.43359,-3.20703 -3.19922,-3.20703 z m 0,0"
     fill-opacity="1"
     fill-rule="nonzero"
     id="path1195" />
  <g
     clip-path="url(#id3)"
     id="g1199"
     transform="translate(-220.58594,-212.89063)">
    <path
       fill="#ffffff"
       d="M 548.87891,465.55859 H 507.9375 c -1.76953,0 -3.20313,1.4336 -3.20313,3.20703 v 40.99219 c 0,1.76953 1.4336,3.19922 3.20313,3.19922 h 40.94141 c 1.76562,0 3.19921,-1.42969 3.19921,-3.19922 v -40.99219 c 0,-1.77343 -1.43359,-3.20703 -3.19921,-3.20703 z m 0,0"
       fill-opacity="1"
       fill-rule="nonzero"
       id="path1197" />
  </g>
  <path
     fill="#ffffff"
     d="m 254.73437,197.65234 v 40.99219 c 0,1.76953 1.4336,3.20312 3.19922,3.20312 H 298.875 c 1.76562,0 3.19922,-1.43358 3.19922,-3.20312 v -40.99219 c 0,-1.76952 -1.4336,-3.20313 -3.19922,-3.20313 h -40.94141 c -1.76562,0 -3.19922,1.43361 -3.19922,3.20313 z m 0,0"
     fill-opacity="1"
     fill-rule="nonzero"
     id="path1201" />
</svg>
