<svg xmlns="http://www.w3.org/2000/svg" xmlns:xlink="http://www.w3.org/1999/xlink" width="1080" zoomAndPan="magnify" viewBox="0 0 810 809.999993" height="1080" preserveAspectRatio="xMidYMid meet" version="1.0"><defs><clipPath id="id1"><path d="M 220.585938 212.890625 L 604.585938 212.890625 L 604.585938 596.890625 L 220.585938 596.890625 Z M 220.585938 212.890625 " clip-rule="nonzero"/></clipPath><clipPath id="id2"><path d="M 273.109375 349 L 450 349 L 450 513 L 273.109375 513 Z M 273.109375 349 " clip-rule="nonzero"/></clipPath><clipPath id="id3"><path d="M 504 465 L 552.109375 465 L 552.109375 513 L 504 513 Z M 504 465 " clip-rule="nonzero"/></clipPath></defs><g clip-path="url(#id1)"><path fill="#ad98d4" d="M 412.585938 212.890625 C 306.546875 212.890625 220.585938 298.851562 220.585938 404.890625 C 220.585938 510.929688 306.546875 596.890625 412.585938 596.890625 C 518.625 596.890625 604.585938 510.929688 604.585938 404.890625 C 604.585938 298.851562 518.625 212.890625 412.585938 212.890625 " fill-opacity="1" fill-rule="nonzero"/></g><path fill="#ffffff" d="M 449.746094 370.6875 C 454.359375 373.609375 457.863281 378.296875 459.144531 384.054688 C 460.964844 392.1875 457.878906 400.273438 451.851562 405.21875 L 451.875 405.621094 C 451.964844 407.0625 452.863281 408.328125 454.199219 408.878906 C 455.53125 409.433594 457.0625 409.175781 458.144531 408.222656 L 494.40625 376.101562 C 495.488281 375.140625 495.929688 373.648438 495.542969 372.257812 C 495.160156 370.867188 494.011719 369.816406 492.59375 369.554688 L 453.933594 362.382812 C 452.792969 362.167969 451.617188 362.496094 450.746094 363.265625 C 449.878906 364.039062 449.410156 365.167969 449.480469 366.328125 Z M 449.746094 370.6875 " fill-opacity="1" fill-rule="nonzero"/><path fill="#ffffff" d="M 422.664062 321.972656 C 422.664062 336.316406 411.050781 347.945312 396.726562 347.945312 C 382.402344 347.945312 370.789062 336.316406 370.789062 321.972656 C 370.789062 307.628906 382.402344 296.003906 396.726562 296.003906 C 411.050781 296.003906 422.664062 307.628906 422.664062 321.972656 Z M 422.664062 321.972656 " fill-opacity="1" fill-rule="nonzero"/><g clip-path="url(#id2)"><path fill="#ffffff" d="M 396.839844 408.6875 C 397.613281 408.6875 398.394531 408.601562 399.167969 408.429688 L 440.691406 399.121094 C 446.429688 397.832031 450.042969 392.132812 448.757812 386.382812 C 447.46875 380.636719 441.777344 377.019531 436.035156 378.308594 L 400.085938 386.371094 L 375.148438 362.449219 L 399.03125 375.675781 L 402.410156 374.921875 C 402.121094 368.800781 398.292969 363.136719 392.210938 360.808594 L 365.757812 350.695312 C 357.5625 347.566406 348.386719 351.675781 345.257812 359.878906 L 317.984375 431.402344 C 317.332031 432.699219 316.628906 438.117188 316.773438 439.0625 L 324.179688 487.367188 L 285.890625 487.367188 C 278.832031 487.367188 273.109375 493.097656 273.109375 500.164062 C 273.109375 507.230469 278.832031 512.957031 285.890625 512.957031 L 339.074219 512.957031 C 342.800781 512.957031 346.34375 511.328125 348.769531 508.496094 C 351.199219 505.664062 352.269531 501.910156 351.707031 498.222656 L 344.394531 450.550781 L 377.160156 458.8125 L 368.082031 497.210938 C 366.453125 504.089844 370.703125 510.984375 377.570312 512.609375 C 384.4375 514.238281 391.324219 509.988281 392.953125 503.105469 L 404.933594 452.433594 C 406.546875 445.625 402.398438 438.785156 395.621094 437.078125 L 381.484375 433.511719 L 387.261719 418.363281 C 385.175781 417.195312 383.378906 415.507812 382.109375 413.425781 L 360.414062 377.847656 L 389.476562 405.726562 C 391.476562 407.644531 394.125 408.6875 396.839844 408.6875 Z M 396.839844 408.6875 " fill-opacity="1" fill-rule="nonzero"/></g><path fill="#ffffff" d="M 486.703125 465.558594 L 445.761719 465.558594 C 443.996094 465.558594 442.5625 466.992188 442.5625 468.765625 L 442.5625 509.757812 C 442.5625 511.527344 443.996094 512.957031 445.761719 512.957031 L 486.703125 512.957031 C 488.46875 512.957031 489.902344 511.527344 489.902344 509.757812 L 489.902344 468.765625 C 489.902344 466.992188 488.46875 465.558594 486.703125 465.558594 Z M 486.703125 465.558594 " fill-opacity="1" fill-rule="nonzero"/><g clip-path="url(#id3)"><path fill="#ffffff" d="M 548.878906 465.558594 L 507.9375 465.558594 C 506.167969 465.558594 504.734375 466.992188 504.734375 468.765625 L 504.734375 509.757812 C 504.734375 511.527344 506.167969 512.957031 507.9375 512.957031 L 548.878906 512.957031 C 550.644531 512.957031 552.078125 511.527344 552.078125 509.757812 L 552.078125 468.765625 C 552.078125 466.992188 550.644531 465.558594 548.878906 465.558594 Z M 548.878906 465.558594 " fill-opacity="1" fill-rule="nonzero"/></g><path fill="#ffffff" d="M 475.320312 410.542969 L 475.320312 451.535156 C 475.320312 453.304688 476.753906 454.738281 478.519531 454.738281 L 519.460938 454.738281 C 521.226562 454.738281 522.660156 453.304688 522.660156 451.535156 L 522.660156 410.542969 C 522.660156 408.773438 521.226562 407.339844 519.460938 407.339844 L 478.519531 407.339844 C 476.753906 407.339844 475.320312 408.773438 475.320312 410.542969 Z M 475.320312 410.542969 " fill-opacity="1" fill-rule="nonzero"/></svg>