<svg xmlns="http://www.w3.org/2000/svg" xmlns:xlink="http://www.w3.org/1999/xlink" width="1080" zoomAndPan="magnify" viewBox="0 0 810 809.999993" height="1080" preserveAspectRatio="xMidYMid meet" version="1.0"><defs><clipPath id="id1"><path d="M 195.472656 228.613281 L 579.472656 228.613281 L 579.472656 612.613281 L 195.472656 612.613281 Z M 195.472656 228.613281 " clip-rule="nonzero"/></clipPath><clipPath id="id2"><path d="M 278.539062 412 L 347 412 L 347 456 L 278.539062 456 Z M 278.539062 412 " clip-rule="nonzero"/></clipPath><clipPath id="id3"><path d="M 428 412 L 496.789062 412 L 496.789062 456 L 428 456 Z M 428 412 " clip-rule="nonzero"/></clipPath><clipPath id="id4"><path d="M 383 298.027344 L 392 298.027344 L 392 320 L 383 320 Z M 383 298.027344 " clip-rule="nonzero"/></clipPath><clipPath id="id5"><path d="M 383 298.027344 L 393 298.027344 L 393 320 L 383 320 Z M 383 298.027344 " clip-rule="nonzero"/></clipPath></defs><g clip-path="url(#id1)"><path fill="#ad98d4" d="M 387.472656 228.613281 C 281.433594 228.613281 195.472656 314.574219 195.472656 420.613281 C 195.472656 526.652344 281.433594 612.613281 387.472656 612.613281 C 493.511719 612.613281 579.472656 526.652344 579.472656 420.613281 C 579.472656 314.574219 493.511719 228.613281 387.472656 228.613281 " fill-opacity="1" fill-rule="nonzero"/></g><path fill="#ffffff" d="M 365.332031 400.226562 L 365.332031 393.898438 C 365.308594 392.378906 365 390.917969 364.40625 389.519531 C 363.8125 388.117188 362.976562 386.878906 361.902344 385.800781 C 360.675781 384.527344 359.546875 383.167969 358.523438 381.726562 C 357.5 380.285156 356.585938 378.773438 355.785156 377.195312 C 354.984375 375.617188 354.308594 373.988281 353.75 372.308594 C 353.195312 370.628906 352.765625 368.917969 352.464844 367.175781 C 352.160156 365.429688 351.992188 363.675781 351.953125 361.90625 C 351.910156 360.136719 352.003906 358.375 352.226562 356.621094 C 352.449219 354.867188 352.800781 353.136719 353.285156 351.4375 C 353.765625 349.734375 354.371094 348.074219 355.097656 346.464844 C 355.828125 344.851562 356.671875 343.300781 357.628906 341.8125 C 358.589844 340.328125 359.652344 338.917969 360.824219 337.589844 C 361.992188 336.261719 363.253906 335.027344 364.609375 333.886719 C 365.960938 332.746094 367.394531 331.710938 368.902344 330.785156 C 370.410156 329.855469 371.980469 329.046875 373.609375 328.351562 C 375.238281 327.65625 376.910156 327.085938 378.621094 326.640625 C 380.335938 326.195312 382.074219 325.878906 383.835938 325.691406 C 385.597656 325.503906 387.363281 325.449219 389.132812 325.523438 C 390.226562 325.578125 391.316406 325.675781 392.398438 325.828125 C 393.484375 325.980469 394.558594 326.179688 395.625 326.429688 C 396.691406 326.675781 397.742188 326.972656 398.78125 327.320312 C 399.820312 327.664062 400.839844 328.054688 401.84375 328.492188 C 402.847656 328.929688 403.828125 329.414062 404.789062 329.941406 C 405.746094 330.46875 406.679688 331.035156 407.585938 331.648438 C 408.492188 332.261719 409.371094 332.914062 410.21875 333.605469 C 411.066406 334.296875 411.878906 335.027344 412.660156 335.792969 C 413.441406 336.558594 414.1875 337.359375 414.894531 338.191406 C 415.601562 339.027344 416.269531 339.890625 416.898438 340.785156 C 417.527344 341.679688 418.113281 342.601562 418.660156 343.550781 C 419.203125 344.496094 419.707031 345.46875 420.160156 346.460938 C 420.617188 347.457031 421.027344 348.46875 421.390625 349.5 C 421.753906 350.53125 422.070312 351.578125 422.339844 352.636719 C 422.605469 353.695312 422.824219 354.765625 422.996094 355.847656 C 423.167969 356.925781 423.289062 358.011719 423.359375 359.101562 C 423.507812 361.550781 423.40625 363.984375 423.046875 366.410156 C 422.691406 368.835938 422.089844 371.199219 421.238281 373.5 C 420.390625 375.800781 419.3125 377.988281 418.007812 380.066406 C 416.703125 382.144531 415.199219 384.066406 413.496094 385.828125 C 412.414062 386.90625 411.574219 388.148438 410.976562 389.554688 C 410.375 390.960938 410.066406 392.425781 410.039062 393.953125 L 410.039062 400.28125 C 410.039062 400.5625 410.011719 400.835938 409.957031 401.109375 C 409.902344 401.382812 409.820312 401.648438 409.714844 401.90625 C 409.609375 402.164062 409.476562 402.40625 409.320312 402.640625 C 409.167969 402.871094 408.988281 403.085938 408.792969 403.28125 C 408.59375 403.476562 408.378906 403.652344 408.148438 403.808594 C 407.914062 403.960938 407.671875 404.089844 407.414062 404.199219 C 407.15625 404.304688 406.890625 404.382812 406.617188 404.4375 C 406.339844 404.492188 406.066406 404.515625 405.785156 404.515625 L 369.570312 404.515625 C 369.289062 404.515625 369.011719 404.488281 368.738281 404.433594 C 368.460938 404.378906 368.195312 404.296875 367.9375 404.1875 C 367.675781 404.082031 367.433594 403.949219 367.199219 403.792969 C 366.964844 403.632812 366.75 403.457031 366.554688 403.257812 C 366.359375 403.058594 366.183594 402.839844 366.027344 402.605469 C 365.875 402.371094 365.746094 402.125 365.640625 401.863281 C 365.535156 401.605469 365.457031 401.335938 365.40625 401.0625 C 365.351562 400.785156 365.328125 400.507812 365.332031 400.226562 Z M 401.546875 393.898438 C 401.574219 391.28125 402.089844 388.761719 403.097656 386.339844 C 404.101562 383.921875 405.523438 381.78125 407.363281 379.910156 C 408.664062 378.566406 409.8125 377.101562 410.808594 375.515625 C 411.800781 373.933594 412.625 372.265625 413.269531 370.507812 C 413.917969 368.753906 414.378906 366.953125 414.648438 365.101562 C 414.917969 363.25 414.996094 361.394531 414.882812 359.527344 C 414.824219 358.695312 414.730469 357.871094 414.601562 357.050781 C 414.46875 356.226562 414.300781 355.414062 414.09375 354.605469 C 413.886719 353.800781 413.644531 353.007812 413.367188 352.222656 C 413.089844 351.4375 412.777344 350.667969 412.429688 349.910156 C 412.078125 349.15625 411.695312 348.417969 411.28125 347.695312 C 410.867188 346.976562 410.417969 346.273438 409.9375 345.59375 C 409.457031 344.914062 408.949219 344.257812 408.410156 343.625 C 407.867188 342.988281 407.300781 342.382812 406.707031 341.800781 C 406.109375 341.21875 405.492188 340.664062 404.84375 340.136719 C 404.199219 339.613281 403.53125 339.117188 402.839844 338.652344 C 402.148438 338.1875 401.4375 337.753906 400.707031 337.355469 C 399.976562 336.953125 399.230469 336.585938 398.464844 336.253906 C 397.703125 335.921875 396.925781 335.625 396.132812 335.363281 C 395.34375 335.101562 394.542969 334.878906 393.730469 334.6875 C 392.917969 334.5 392.101562 334.347656 391.277344 334.234375 C 390.449219 334.121094 389.621094 334.042969 388.789062 334.003906 C 387.445312 333.953125 386.101562 333.996094 384.761719 334.144531 C 383.421875 334.289062 382.101562 334.535156 380.796875 334.875 C 379.492188 335.21875 378.222656 335.652344 376.984375 336.183594 C 375.746094 336.714844 374.554688 337.332031 373.40625 338.042969 C 372.261719 338.75 371.171875 339.535156 370.144531 340.40625 C 369.113281 341.273438 368.15625 342.214844 367.265625 343.226562 C 366.375 344.234375 365.566406 345.308594 364.835938 346.4375 C 364.105469 347.570312 363.464844 348.75 362.910156 349.976562 C 362.355469 351.203125 361.894531 352.460938 361.527344 353.757812 C 361.160156 355.050781 360.890625 356.367188 360.71875 357.703125 C 360.546875 359.035156 360.476562 360.375 360.503906 361.722656 C 360.53125 363.066406 360.65625 364.402344 360.882812 365.730469 C 361.109375 367.058594 361.433594 368.359375 361.855469 369.636719 C 362.273438 370.917969 362.785156 372.15625 363.390625 373.359375 C 363.996094 374.5625 364.6875 375.714844 365.460938 376.8125 C 366.238281 377.914062 367.089844 378.953125 368.019531 379.925781 C 369.855469 381.792969 371.273438 383.933594 372.273438 386.351562 C 373.273438 388.769531 373.789062 391.285156 373.808594 393.898438 L 373.808594 395.996094 L 401.546875 395.996094 Z M 401.546875 393.898438 " fill-opacity="1" fill-rule="nonzero"/><path fill="#ffffff" d="M 359.816406 421.679688 C 359.816406 420.375 360.035156 419.109375 360.476562 417.878906 C 360.914062 416.648438 361.542969 415.527344 362.371094 414.515625 C 361.691406 413.679688 361.140625 412.765625 360.722656 411.773438 C 360.300781 410.78125 360.027344 409.75 359.902344 408.679688 C 359.773438 407.609375 359.796875 406.542969 359.972656 405.480469 C 360.148438 404.417969 360.46875 403.402344 360.933594 402.429688 C 361.398438 401.457031 361.988281 400.570312 362.707031 399.765625 C 363.421875 398.960938 364.238281 398.269531 365.148438 397.695312 C 366.0625 397.121094 367.035156 396.683594 368.074219 396.386719 C 369.109375 396.089844 370.167969 395.9375 371.246094 395.941406 L 404.167969 395.941406 C 404.917969 395.941406 405.660156 396.015625 406.394531 396.160156 C 407.128906 396.308594 407.84375 396.527344 408.535156 396.8125 C 409.230469 397.101562 409.886719 397.453125 410.507812 397.867188 C 411.132812 398.285156 411.710938 398.757812 412.238281 399.289062 C 412.769531 399.816406 413.242188 400.394531 413.65625 401.015625 C 414.074219 401.640625 414.425781 402.296875 414.710938 402.988281 C 415 403.679688 415.214844 404.394531 415.363281 405.128906 C 415.507812 405.863281 415.582031 406.601562 415.582031 407.351562 C 415.582031 408.671875 415.359375 409.949219 414.914062 411.191406 C 414.464844 412.429688 413.820312 413.558594 412.972656 414.570312 C 413.800781 415.574219 414.433594 416.683594 414.871094 417.90625 C 415.3125 419.125 415.535156 420.382812 415.539062 421.679688 C 415.539062 422.429688 415.464844 423.171875 415.320312 423.90625 C 415.175781 424.640625 414.957031 425.355469 414.671875 426.046875 C 414.382812 426.738281 414.03125 427.394531 413.617188 428.015625 C 413.199219 428.640625 412.726562 429.214844 412.199219 429.746094 C 411.667969 430.277344 411.089844 430.75 410.46875 431.164062 C 409.84375 431.582031 409.1875 431.933594 408.496094 432.21875 C 407.804688 432.507812 407.089844 432.726562 406.355469 432.871094 C 405.617188 433.019531 404.875 433.09375 404.125 433.09375 L 371.203125 433.09375 C 370.457031 433.089844 369.714844 433.011719 368.980469 432.863281 C 368.25 432.714844 367.535156 432.496094 366.847656 432.210938 C 366.15625 431.921875 365.5 431.570312 364.878906 431.152344 C 364.257812 430.734375 363.683594 430.261719 363.15625 429.730469 C 362.625 429.203125 362.15625 428.628906 361.738281 428.003906 C 361.324219 427.382812 360.972656 426.726562 360.6875 426.035156 C 360.402344 425.347656 360.183594 424.636719 360.039062 423.902344 C 359.894531 423.167969 359.820312 422.429688 359.816406 421.679688 Z M 399.886719 414.515625 C 399.886719 414.238281 399.914062 413.964844 399.96875 413.691406 C 400.023438 413.417969 400.105469 413.152344 400.210938 412.898438 C 400.316406 412.640625 400.449219 412.394531 400.601562 412.164062 C 400.757812 411.933594 400.933594 411.71875 401.128906 411.523438 C 401.324219 411.328125 401.539062 411.152344 401.773438 410.996094 C 402.003906 410.84375 402.246094 410.710938 402.503906 410.605469 C 402.761719 410.5 403.027344 410.417969 403.300781 410.363281 C 403.574219 410.3125 403.847656 410.285156 404.125 410.285156 C 404.5 410.257812 404.855469 410.164062 405.191406 410.003906 C 405.53125 409.84375 405.824219 409.628906 406.082031 409.355469 C 406.335938 409.082031 406.53125 408.773438 406.667969 408.425781 C 406.804688 408.078125 406.875 407.71875 406.875 407.34375 C 406.875 406.972656 406.804688 406.613281 406.667969 406.265625 C 406.53125 405.917969 406.335938 405.605469 406.082031 405.335938 C 405.824219 405.0625 405.53125 404.84375 405.191406 404.683594 C 404.855469 404.523438 404.5 404.433594 404.125 404.40625 L 371.203125 404.40625 C 370.832031 404.433594 370.476562 404.523438 370.136719 404.683594 C 369.800781 404.84375 369.503906 405.0625 369.25 405.335938 C 368.996094 405.605469 368.796875 405.917969 368.660156 406.265625 C 368.523438 406.613281 368.457031 406.972656 368.457031 407.34375 C 368.457031 407.71875 368.523438 408.078125 368.660156 408.425781 C 368.796875 408.773438 368.996094 409.082031 369.25 409.355469 C 369.503906 409.628906 369.800781 409.84375 370.136719 410.003906 C 370.476562 410.164062 370.832031 410.257812 371.203125 410.285156 C 371.480469 410.285156 371.757812 410.3125 372.03125 410.363281 C 372.304688 410.417969 372.570312 410.5 372.824219 410.605469 C 373.082031 410.710938 373.328125 410.84375 373.558594 410.996094 C 373.789062 411.152344 374.003906 411.328125 374.203125 411.523438 C 374.398438 411.71875 374.574219 411.933594 374.726562 412.164062 C 374.882812 412.394531 375.011719 412.640625 375.121094 412.898438 C 375.226562 413.152344 375.308594 413.417969 375.359375 413.691406 C 375.414062 413.964844 375.441406 414.238281 375.441406 414.515625 C 375.441406 414.792969 375.414062 415.070312 375.359375 415.34375 C 375.308594 415.613281 375.226562 415.878906 375.121094 416.136719 C 375.011719 416.394531 374.882812 416.636719 374.726562 416.867188 C 374.574219 417.097656 374.398438 417.3125 374.203125 417.511719 C 374.003906 417.707031 373.789062 417.882812 373.558594 418.035156 C 373.328125 418.191406 373.082031 418.320312 372.824219 418.425781 C 372.570312 418.535156 372.304688 418.613281 372.03125 418.667969 C 371.757812 418.722656 371.480469 418.75 371.203125 418.75 C 370.832031 418.773438 370.476562 418.867188 370.136719 419.027344 C 369.800781 419.1875 369.503906 419.40625 369.25 419.679688 C 368.996094 419.949219 368.796875 420.261719 368.660156 420.609375 C 368.523438 420.953125 368.457031 421.316406 368.457031 421.6875 C 368.457031 422.0625 368.523438 422.421875 368.660156 422.769531 C 368.796875 423.117188 368.996094 423.425781 369.25 423.699219 C 369.503906 423.972656 369.800781 424.1875 370.136719 424.347656 C 370.476562 424.507812 370.832031 424.601562 371.203125 424.625 L 404.125 424.625 C 404.5 424.601562 404.855469 424.507812 405.191406 424.347656 C 405.53125 424.1875 405.824219 423.972656 406.082031 423.699219 C 406.335938 423.425781 406.53125 423.117188 406.667969 422.769531 C 406.804688 422.421875 406.875 422.0625 406.875 421.6875 C 406.875 421.316406 406.804688 420.953125 406.667969 420.609375 C 406.53125 420.261719 406.335938 419.949219 406.082031 419.679688 C 405.824219 419.40625 405.53125 419.1875 405.191406 419.027344 C 404.855469 418.867188 404.5 418.773438 404.125 418.75 C 403.851562 418.75 403.578125 418.722656 403.304688 418.667969 C 403.035156 418.617188 402.773438 418.539062 402.515625 418.433594 C 402.261719 418.328125 402.019531 418.199219 401.789062 418.046875 C 401.558594 417.894531 401.34375 417.722656 401.148438 417.53125 C 400.953125 417.335938 400.777344 417.125 400.621094 416.898438 C 400.464844 416.667969 400.335938 416.429688 400.226562 416.175781 C 400.117188 415.921875 400.035156 415.660156 399.980469 415.390625 C 399.921875 415.121094 399.890625 414.847656 399.886719 414.570312 Z M 399.886719 414.515625 " fill-opacity="1" fill-rule="nonzero"/><path fill="#ffffff" d="M 370.039062 462.78125 C 370.039062 462.203125 370.066406 461.625 370.121094 461.050781 C 370.179688 460.476562 370.265625 459.90625 370.378906 459.339844 C 370.488281 458.773438 370.628906 458.214844 370.796875 457.660156 C 370.964844 457.109375 371.160156 456.566406 371.382812 456.03125 C 371.605469 455.5 371.851562 454.976562 372.125 454.46875 C 372.394531 453.957031 372.691406 453.464844 373.015625 452.984375 C 373.335938 452.503906 373.679688 452.039062 374.046875 451.59375 C 374.414062 451.148438 374.800781 450.71875 375.210938 450.3125 C 375.621094 449.902344 376.046875 449.515625 376.496094 449.148438 C 376.941406 448.78125 377.40625 448.4375 377.886719 448.117188 C 378.367188 447.796875 378.863281 447.5 379.375 447.230469 C 379.882812 446.957031 380.40625 446.710938 380.941406 446.488281 C 381.472656 446.269531 382.019531 446.074219 382.570312 445.90625 C 383.125 445.738281 383.683594 445.597656 384.253906 445.488281 C 384.820312 445.375 385.390625 445.289062 385.964844 445.234375 C 386.542969 445.175781 387.117188 445.148438 387.699219 445.148438 C 388.277344 445.148438 388.851562 445.175781 389.429688 445.234375 C 390.003906 445.289062 390.574219 445.375 391.140625 445.488281 C 391.710938 445.601562 392.269531 445.742188 392.824219 445.910156 C 393.375 446.078125 393.921875 446.273438 394.453125 446.492188 C 394.988281 446.714844 395.511719 446.960938 396.019531 447.234375 C 396.53125 447.507812 397.027344 447.800781 397.507812 448.125 C 397.988281 448.445312 398.449219 448.789062 398.898438 449.15625 C 399.34375 449.523438 399.773438 449.910156 400.179688 450.316406 C 400.589844 450.726562 400.976562 451.152344 401.34375 451.601562 C 401.710938 452.046875 402.054688 452.511719 402.375 452.992188 C 402.699219 453.472656 402.992188 453.964844 403.265625 454.476562 C 403.539062 454.984375 403.785156 455.507812 404.007812 456.039062 C 404.226562 456.574219 404.421875 457.117188 404.589844 457.671875 C 404.757812 458.222656 404.898438 458.78125 405.011719 459.347656 C 405.121094 459.914062 405.207031 460.484375 405.261719 461.0625 C 405.320312 461.636719 405.347656 462.210938 405.347656 462.789062 C 405.347656 463.367188 405.320312 463.941406 405.261719 464.519531 C 405.203125 465.09375 405.121094 465.664062 405.007812 466.230469 C 404.894531 466.796875 404.753906 467.355469 404.585938 467.90625 C 404.417969 468.460938 404.222656 469.003906 404 469.535156 C 403.777344 470.070312 403.53125 470.589844 403.257812 471.101562 C 402.984375 471.609375 402.6875 472.105469 402.367188 472.585938 C 402.042969 473.066406 401.699219 473.527344 401.332031 473.972656 C 400.964844 474.421875 400.578125 474.847656 400.167969 475.253906 C 399.757812 475.664062 399.332031 476.050781 398.882812 476.417969 C 398.4375 476.78125 397.972656 477.125 397.492188 477.445312 C 397.011719 477.765625 396.515625 478.0625 396.003906 478.335938 C 395.492188 478.605469 394.972656 478.851562 394.4375 479.074219 C 393.902344 479.292969 393.359375 479.488281 392.804688 479.65625 C 392.25 479.824219 391.691406 479.964844 391.125 480.074219 C 390.558594 480.1875 389.984375 480.273438 389.410156 480.328125 C 388.835938 480.382812 388.257812 480.410156 387.679688 480.410156 C 387.101562 480.410156 386.523438 480.382812 385.949219 480.324219 C 385.375 480.265625 384.804688 480.179688 384.238281 480.066406 C 383.671875 479.953125 383.113281 479.8125 382.558594 479.644531 C 382.007812 479.476562 381.460938 479.28125 380.929688 479.0625 C 380.394531 478.839844 379.875 478.59375 379.363281 478.320312 C 378.855469 478.046875 378.359375 477.753906 377.878906 477.429688 C 377.398438 477.109375 376.9375 476.765625 376.492188 476.398438 C 376.042969 476.035156 375.617188 475.648438 375.207031 475.238281 C 374.800781 474.832031 374.414062 474.402344 374.046875 473.957031 C 373.679688 473.511719 373.335938 473.046875 373.015625 472.566406 C 372.695312 472.089844 372.398438 471.59375 372.125 471.085938 C 371.851562 470.574219 371.605469 470.054688 371.382812 469.523438 C 371.164062 468.988281 370.96875 468.445312 370.800781 467.894531 C 370.632812 467.34375 370.492188 466.78125 370.378906 466.21875 C 370.265625 465.652344 370.179688 465.082031 370.125 464.507812 C 370.066406 463.933594 370.039062 463.355469 370.039062 462.78125 Z M 378.515625 462.78125 C 378.515625 463.382812 378.574219 463.976562 378.691406 464.566406 C 378.808594 465.15625 378.984375 465.726562 379.214844 466.28125 C 379.441406 466.835938 379.726562 467.363281 380.058594 467.863281 C 380.394531 468.363281 380.773438 468.828125 381.199219 469.25 C 381.625 469.675781 382.085938 470.054688 382.589844 470.390625 C 383.089844 470.722656 383.617188 471.003906 384.171875 471.234375 C 384.726562 471.464844 385.300781 471.636719 385.890625 471.753906 C 386.480469 471.871094 387.078125 471.929688 387.679688 471.929688 C 388.28125 471.929688 388.875 471.871094 389.464844 471.753906 C 390.058594 471.636719 390.628906 471.464844 391.1875 471.234375 C 391.742188 471.003906 392.269531 470.722656 392.769531 470.390625 C 393.269531 470.054688 393.734375 469.675781 394.160156 469.25 C 394.585938 468.828125 394.964844 468.363281 395.296875 467.863281 C 395.632812 467.363281 395.914062 466.835938 396.144531 466.28125 C 396.375 465.726562 396.550781 465.15625 396.667969 464.566406 C 396.785156 463.976562 396.84375 463.382812 396.84375 462.78125 C 396.84375 462.179688 396.785156 461.585938 396.667969 460.996094 C 396.550781 460.40625 396.375 459.832031 396.144531 459.277344 C 395.914062 458.722656 395.632812 458.195312 395.296875 457.695312 C 394.964844 457.195312 394.585938 456.734375 394.160156 456.308594 C 393.734375 455.882812 393.269531 455.503906 392.769531 455.171875 C 392.269531 454.835938 391.742188 454.554688 391.1875 454.324219 C 390.628906 454.09375 390.058594 453.921875 389.464844 453.804688 C 388.875 453.6875 388.28125 453.628906 387.679688 453.628906 C 387.078125 453.628906 386.480469 453.6875 385.890625 453.808594 C 385.300781 453.925781 384.730469 454.097656 384.175781 454.328125 C 383.617188 454.558594 383.089844 454.839844 382.589844 455.175781 C 382.089844 455.507812 381.628906 455.886719 381.203125 456.3125 C 380.777344 456.738281 380.398438 457.199219 380.0625 457.699219 C 379.730469 458.199219 379.449219 458.726562 379.214844 459.28125 C 378.984375 459.835938 378.8125 460.40625 378.695312 460.996094 C 378.574219 461.585938 378.515625 462.179688 378.515625 462.78125 Z M 378.515625 462.78125 " fill-opacity="1" fill-rule="nonzero"/><path fill="#ffffff" d="M 353.496094 508.960938 L 353.496094 503.726562 C 353.496094 502.761719 353.539062 501.796875 353.625 500.832031 C 353.707031 499.867188 353.832031 498.910156 354 497.957031 C 354.164062 497.003906 354.371094 496.058594 354.617188 495.125 C 354.863281 494.1875 355.148438 493.265625 355.46875 492.355469 C 355.792969 491.441406 356.15625 490.546875 356.554688 489.664062 C 356.957031 488.785156 357.394531 487.921875 357.867188 487.078125 C 358.339844 486.234375 358.847656 485.414062 359.390625 484.613281 C 359.933594 483.8125 360.507812 483.035156 361.117188 482.28125 C 361.726562 481.53125 362.367188 480.804688 363.039062 480.105469 C 363.707031 479.410156 364.40625 478.738281 365.132812 478.101562 C 365.859375 477.460938 366.613281 476.855469 367.390625 476.28125 C 368.171875 475.703125 368.972656 475.164062 369.796875 474.65625 C 370.621094 474.148438 371.464844 473.675781 372.328125 473.242188 C 373.195312 472.804688 374.074219 472.40625 374.972656 472.042969 C 375.871094 471.683594 376.785156 471.359375 377.710938 471.078125 C 378.636719 470.792969 379.570312 470.546875 380.519531 470.34375 C 381.53125 470.117188 382.492188 470.253906 383.398438 470.753906 C 384.050781 471.121094 384.742188 471.398438 385.464844 471.589844 C 386.191406 471.777344 386.929688 471.875 387.679688 471.875 C 388.429688 471.875 389.167969 471.777344 389.890625 471.589844 C 390.617188 471.398438 391.304688 471.121094 391.957031 470.753906 C 392.875 470.261719 393.839844 470.125 394.851562 470.34375 C 395.800781 470.546875 396.734375 470.792969 397.660156 471.078125 C 398.585938 471.359375 399.5 471.683594 400.398438 472.042969 C 401.296875 472.40625 402.175781 472.804688 403.042969 473.242188 C 403.90625 473.675781 404.75 474.148438 405.574219 474.65625 C 406.398438 475.164062 407.203125 475.703125 407.980469 476.28125 C 408.757812 476.855469 409.511719 477.460938 410.238281 478.101562 C 410.964844 478.738281 411.664062 479.410156 412.335938 480.105469 C 413.003906 480.804688 413.644531 481.53125 414.253906 482.28125 C 414.863281 483.035156 415.4375 483.8125 415.980469 484.613281 C 416.523438 485.414062 417.03125 486.234375 417.503906 487.078125 C 417.976562 487.921875 418.414062 488.785156 418.816406 489.664062 C 419.214844 490.546875 419.578125 491.441406 419.902344 492.355469 C 420.226562 493.265625 420.511719 494.1875 420.753906 495.125 C 421 496.058594 421.207031 497.003906 421.371094 497.957031 C 421.539062 498.910156 421.664062 499.867188 421.746094 500.832031 C 421.832031 501.796875 421.875 502.761719 421.878906 503.726562 L 421.878906 508.960938 C 421.878906 509.238281 421.851562 509.515625 421.796875 509.789062 C 421.742188 510.058594 421.660156 510.324219 421.554688 510.582031 C 421.449219 510.839844 421.316406 511.082031 421.164062 511.3125 C 421.007812 511.542969 420.832031 511.757812 420.636719 511.953125 C 420.4375 512.152344 420.226562 512.328125 419.992188 512.480469 C 419.761719 512.636719 419.519531 512.765625 419.261719 512.871094 C 419.003906 512.980469 418.738281 513.058594 418.464844 513.113281 C 418.191406 513.167969 417.917969 513.195312 417.636719 513.195312 L 357.734375 513.195312 C 357.453125 513.195312 357.179688 513.167969 356.90625 513.113281 C 356.632812 513.058594 356.367188 512.980469 356.109375 512.871094 C 355.855469 512.765625 355.609375 512.636719 355.378906 512.480469 C 355.148438 512.328125 354.933594 512.152344 354.734375 511.953125 C 354.539062 511.757812 354.363281 511.542969 354.207031 511.3125 C 354.054688 511.082031 353.921875 510.839844 353.816406 510.582031 C 353.710938 510.324219 353.628906 510.058594 353.574219 509.789062 C 353.519531 509.515625 353.496094 509.238281 353.496094 508.960938 Z M 413.398438 503.726562 C 413.394531 502.328125 413.273438 500.941406 413.042969 499.5625 C 412.8125 498.183594 412.46875 496.832031 412.015625 495.507812 C 411.566406 494.1875 411.007812 492.90625 410.347656 491.675781 C 409.6875 490.441406 408.933594 489.269531 408.082031 488.160156 C 407.234375 487.046875 406.296875 486.011719 405.277344 485.054688 C 404.257812 484.097656 403.167969 483.226562 402.007812 482.445312 C 400.847656 481.660156 399.632812 480.976562 398.359375 480.394531 C 397.089844 479.808594 395.777344 479.332031 394.429688 478.960938 C 393.363281 479.417969 392.261719 479.761719 391.125 479.996094 C 389.988281 480.230469 388.839844 480.347656 387.679688 480.347656 C 386.519531 480.347656 385.371094 480.230469 384.234375 479.996094 C 383.097656 479.761719 381.996094 479.417969 380.929688 478.960938 C 379.582031 479.332031 378.269531 479.808594 377 480.394531 C 375.726562 480.980469 374.511719 481.664062 373.351562 482.445312 C 372.191406 483.226562 371.101562 484.097656 370.082031 485.054688 C 369.066406 486.015625 368.128906 487.050781 367.28125 488.160156 C 366.429688 489.269531 365.675781 490.441406 365.015625 491.675781 C 364.355469 492.910156 363.800781 494.1875 363.351562 495.511719 C 362.898438 496.832031 362.558594 498.183594 362.328125 499.5625 C 362.09375 500.941406 361.976562 502.332031 361.972656 503.726562 L 361.972656 504.726562 L 413.398438 504.726562 Z M 413.398438 503.726562 " fill-opacity="1" fill-rule="nonzero"/><path fill="#ffffff" d="M 295.082031 405.3125 C 295.082031 404.734375 295.113281 404.15625 295.167969 403.582031 C 295.222656 403.007812 295.308594 402.4375 295.421875 401.871094 C 295.53125 401.304688 295.671875 400.742188 295.839844 400.191406 C 296.007812 399.636719 296.203125 399.09375 296.421875 398.5625 C 296.644531 398.027344 296.890625 397.507812 297.164062 396.996094 C 297.433594 396.488281 297.730469 395.992188 298.050781 395.511719 C 298.375 395.03125 298.71875 394.566406 299.082031 394.121094 C 299.449219 393.675781 299.839844 393.246094 300.246094 392.835938 C 300.65625 392.429688 301.082031 392.042969 301.53125 391.675781 C 301.976562 391.308594 302.441406 390.964844 302.921875 390.644531 C 303.402344 390.320312 303.898438 390.023438 304.40625 389.753906 C 304.917969 389.480469 305.4375 389.234375 305.972656 389.011719 C 306.507812 388.789062 307.050781 388.59375 307.605469 388.425781 C 308.15625 388.257812 308.71875 388.121094 309.285156 388.007812 C 309.851562 387.894531 310.421875 387.808594 311 387.75 C 311.574219 387.695312 312.152344 387.664062 312.730469 387.664062 C 313.308594 387.664062 313.886719 387.691406 314.460938 387.75 C 315.035156 387.804688 315.605469 387.890625 316.175781 388.003906 C 316.742188 388.113281 317.300781 388.253906 317.855469 388.421875 C 318.410156 388.589844 318.953125 388.785156 319.488281 389.003906 C 320.023438 389.226562 320.542969 389.472656 321.054688 389.742188 C 321.566406 390.015625 322.058594 390.3125 322.542969 390.632812 C 323.023438 390.953125 323.484375 391.296875 323.933594 391.664062 C 324.378906 392.03125 324.808594 392.417969 325.21875 392.824219 C 325.625 393.234375 326.015625 393.660156 326.382812 394.105469 C 326.75 394.554688 327.09375 395.015625 327.414062 395.496094 C 327.734375 395.976562 328.035156 396.472656 328.304688 396.980469 C 328.578125 397.488281 328.824219 398.011719 329.046875 398.542969 C 329.269531 399.078125 329.464844 399.621094 329.632812 400.171875 C 329.800781 400.726562 329.941406 401.285156 330.054688 401.851562 C 330.167969 402.417969 330.25 402.988281 330.308594 403.5625 C 330.363281 404.136719 330.394531 404.714844 330.394531 405.292969 C 330.394531 405.871094 330.367188 406.445312 330.308594 407.019531 C 330.253906 407.59375 330.167969 408.167969 330.054688 408.734375 C 329.941406 409.300781 329.800781 409.859375 329.632812 410.410156 C 329.464844 410.964844 329.273438 411.507812 329.050781 412.039062 C 328.828125 412.574219 328.582031 413.097656 328.308594 413.605469 C 328.039062 414.113281 327.742188 414.609375 327.417969 415.089844 C 327.097656 415.570312 326.753906 416.035156 326.386719 416.480469 C 326.019531 416.925781 325.632812 417.355469 325.222656 417.761719 C 324.816406 418.171875 324.386719 418.558594 323.941406 418.925781 C 323.492188 419.292969 323.03125 419.636719 322.546875 419.957031 C 322.066406 420.277344 321.574219 420.574219 321.0625 420.84375 C 320.550781 421.117188 320.03125 421.363281 319.496094 421.585938 C 318.960938 421.808594 318.417969 422 317.863281 422.167969 C 317.3125 422.335938 316.75 422.476562 316.183594 422.589844 C 315.617188 422.703125 315.046875 422.785156 314.46875 422.84375 C 313.894531 422.898438 313.316406 422.929688 312.738281 422.929688 C 312.160156 422.929688 311.585938 422.898438 311.007812 422.84375 C 310.433594 422.785156 309.863281 422.699219 309.296875 422.585938 C 308.730469 422.476562 308.171875 422.335938 307.617188 422.167969 C 307.066406 422 306.523438 421.804688 305.988281 421.582031 C 305.453125 421.363281 304.933594 421.117188 304.421875 420.84375 C 303.914062 420.574219 303.417969 420.277344 302.9375 419.957031 C 302.457031 419.636719 301.992188 419.292969 301.546875 418.925781 C 301.101562 418.558594 300.671875 418.171875 300.265625 417.765625 C 299.855469 417.355469 299.46875 416.929688 299.101562 416.484375 C 298.734375 416.039062 298.390625 415.574219 298.066406 415.097656 C 297.746094 414.617188 297.449219 414.121094 297.175781 413.613281 C 296.902344 413.105469 296.65625 412.585938 296.433594 412.050781 C 296.214844 411.519531 296.019531 410.976562 295.851562 410.425781 C 295.683594 409.871094 295.542969 409.3125 295.429688 408.746094 C 295.3125 408.179688 295.230469 407.613281 295.171875 407.039062 C 295.113281 406.464844 295.085938 405.886719 295.082031 405.3125 Z M 303.574219 405.3125 C 303.574219 405.910156 303.632812 406.507812 303.75 407.097656 C 303.867188 407.683594 304.042969 408.257812 304.273438 408.8125 C 304.503906 409.367188 304.785156 409.894531 305.121094 410.394531 C 305.453125 410.894531 305.832031 411.355469 306.257812 411.78125 C 306.683594 412.207031 307.148438 412.585938 307.648438 412.917969 C 308.148438 413.253906 308.675781 413.535156 309.230469 413.765625 C 309.789062 413.996094 310.359375 414.167969 310.949219 414.285156 C 311.542969 414.402344 312.136719 414.460938 312.738281 414.460938 C 313.339844 414.460938 313.9375 414.402344 314.527344 414.285156 C 315.117188 414.167969 315.691406 413.996094 316.246094 413.765625 C 316.800781 413.535156 317.328125 413.253906 317.828125 412.917969 C 318.328125 412.585938 318.792969 412.207031 319.21875 411.78125 C 319.644531 411.355469 320.023438 410.894531 320.359375 410.394531 C 320.691406 409.894531 320.972656 409.367188 321.203125 408.8125 C 321.433594 408.257812 321.609375 407.683594 321.726562 407.097656 C 321.84375 406.507812 321.902344 405.910156 321.902344 405.3125 C 321.902344 404.710938 321.84375 404.113281 321.726562 403.523438 C 321.609375 402.9375 321.433594 402.363281 321.203125 401.808594 C 320.972656 401.253906 320.691406 400.726562 320.359375 400.226562 C 320.023438 399.726562 319.644531 399.265625 319.21875 398.839844 C 318.792969 398.414062 318.328125 398.035156 317.828125 397.703125 C 317.328125 397.367188 316.800781 397.085938 316.246094 396.855469 C 315.691406 396.625 315.117188 396.453125 314.527344 396.335938 C 313.9375 396.21875 313.339844 396.160156 312.738281 396.160156 C 312.136719 396.160156 311.542969 396.21875 310.953125 396.335938 C 310.363281 396.457031 309.789062 396.628906 309.234375 396.859375 C 308.679688 397.089844 308.152344 397.371094 307.652344 397.707031 C 307.152344 398.039062 306.6875 398.417969 306.261719 398.84375 C 305.839844 399.269531 305.457031 399.730469 305.125 400.230469 C 304.789062 400.730469 304.507812 401.257812 304.277344 401.8125 C 304.046875 402.367188 303.871094 402.9375 303.753906 403.527344 C 303.636719 404.113281 303.574219 404.710938 303.574219 405.3125 Z M 303.574219 405.3125 " fill-opacity="1" fill-rule="nonzero"/><g clip-path="url(#id2)"><path fill="#ffffff" d="M 278.539062 451.53125 L 278.539062 446.339844 C 278.542969 445.371094 278.585938 444.40625 278.667969 443.441406 C 278.75 442.480469 278.875 441.519531 279.042969 440.566406 C 279.207031 439.613281 279.410156 438.667969 279.65625 437.730469 C 279.902344 436.796875 280.1875 435.871094 280.507812 434.957031 C 280.832031 434.046875 281.195312 433.148438 281.59375 432.269531 C 281.996094 431.386719 282.429688 430.523438 282.902344 429.679688 C 283.378906 428.835938 283.886719 428.011719 284.429688 427.210938 C 284.972656 426.40625 285.546875 425.628906 286.15625 424.878906 C 286.765625 424.125 287.40625 423.398438 288.074219 422.699219 C 288.746094 422 289.445312 421.332031 290.171875 420.691406 C 290.898438 420.054688 291.652344 419.445312 292.429688 418.871094 C 293.210938 418.292969 294.011719 417.753906 294.835938 417.246094 C 295.660156 416.738281 296.507812 416.265625 297.371094 415.828125 C 298.234375 415.390625 299.117188 414.992188 300.015625 414.632812 C 300.914062 414.269531 301.828125 413.945312 302.753906 413.660156 C 303.679688 413.378906 304.617188 413.132812 305.5625 412.925781 C 306.582031 412.699219 307.546875 412.835938 308.457031 413.339844 C 309.113281 413.707031 309.800781 413.988281 310.527344 414.175781 C 311.25 414.367188 311.988281 414.464844 312.738281 414.464844 C 313.488281 414.464844 314.226562 414.367188 314.953125 414.175781 C 315.675781 413.988281 316.367188 413.707031 317.019531 413.339844 C 317.929688 412.851562 318.890625 412.71875 319.898438 412.941406 C 320.847656 413.144531 321.78125 413.390625 322.707031 413.675781 C 323.632812 413.960938 324.546875 414.28125 325.445312 414.644531 C 326.34375 415.003906 327.226562 415.40625 328.089844 415.839844 C 328.953125 416.277344 329.800781 416.75 330.625 417.257812 C 331.449219 417.765625 332.25 418.304688 333.03125 418.882812 C 333.808594 419.457031 334.5625 420.0625 335.289062 420.703125 C 336.015625 421.34375 336.714844 422.011719 337.382812 422.710938 C 338.054688 423.410156 338.695312 424.132812 339.304688 424.886719 C 339.914062 425.640625 340.488281 426.414062 341.03125 427.21875 C 341.574219 428.019531 342.082031 428.839844 342.554688 429.683594 C 343.027344 430.53125 343.464844 431.390625 343.863281 432.273438 C 344.265625 433.15625 344.625 434.050781 344.949219 434.960938 C 345.273438 435.875 345.558594 436.796875 345.804688 437.734375 C 346.050781 438.671875 346.253906 439.613281 346.421875 440.566406 C 346.585938 441.519531 346.710938 442.480469 346.792969 443.445312 C 346.878906 444.40625 346.921875 445.375 346.921875 446.339844 L 346.921875 451.558594 C 346.921875 451.839844 346.894531 452.113281 346.84375 452.386719 C 346.789062 452.660156 346.707031 452.921875 346.601562 453.179688 C 346.496094 453.4375 346.363281 453.679688 346.210938 453.910156 C 346.054688 454.144531 345.878906 454.355469 345.683594 454.554688 C 345.484375 454.75 345.269531 454.925781 345.039062 455.078125 C 344.808594 455.234375 344.5625 455.363281 344.308594 455.472656 C 344.050781 455.578125 343.785156 455.65625 343.511719 455.710938 C 343.238281 455.765625 342.964844 455.792969 342.683594 455.792969 L 282.777344 455.792969 C 282.5 455.792969 282.222656 455.765625 281.949219 455.710938 C 281.675781 455.65625 281.410156 455.574219 281.152344 455.46875 C 280.890625 455.363281 280.648438 455.230469 280.414062 455.074219 C 280.183594 454.917969 279.96875 454.742188 279.773438 454.542969 C 279.574219 454.347656 279.398438 454.128906 279.246094 453.898438 C 279.089844 453.664062 278.960938 453.417969 278.855469 453.160156 C 278.75 452.902344 278.671875 452.636719 278.617188 452.363281 C 278.5625 452.089844 278.539062 451.8125 278.539062 451.53125 Z M 338.445312 446.339844 C 338.441406 444.941406 338.328125 443.550781 338.097656 442.171875 C 337.867188 440.789062 337.527344 439.4375 337.078125 438.109375 C 336.625 436.785156 336.074219 435.503906 335.414062 434.269531 C 334.753906 433.035156 334 431.859375 333.148438 430.746094 C 332.300781 429.636719 331.363281 428.597656 330.347656 427.636719 C 329.328125 426.675781 328.238281 425.804688 327.074219 425.023438 C 325.914062 424.238281 324.695312 423.554688 323.421875 422.96875 C 322.152344 422.382812 320.839844 421.902344 319.488281 421.53125 C 318.421875 421.988281 317.320312 422.335938 316.183594 422.566406 C 315.046875 422.800781 313.898438 422.917969 312.738281 422.917969 C 311.578125 422.917969 310.429688 422.800781 309.292969 422.566406 C 308.15625 422.335938 307.054688 421.988281 305.988281 421.53125 C 304.636719 421.902344 303.324219 422.382812 302.050781 422.96875 C 300.78125 423.554688 299.5625 424.238281 298.398438 425.019531 C 297.238281 425.804688 296.148438 426.675781 295.128906 427.636719 C 294.109375 428.597656 293.171875 429.632812 292.320312 430.746094 C 291.472656 431.859375 290.714844 433.035156 290.058594 434.269531 C 289.398438 435.503906 288.84375 436.785156 288.390625 438.109375 C 287.941406 439.433594 287.601562 440.789062 287.371094 442.167969 C 287.140625 443.550781 287.023438 444.941406 287.019531 446.339844 L 287.019531 447.328125 L 338.445312 447.328125 Z M 338.445312 446.339844 " fill-opacity="1" fill-rule="nonzero"/></g><path fill="#ffffff" d="M 444.976562 405.3125 C 444.976562 404.734375 445.003906 404.15625 445.0625 403.582031 C 445.117188 403.007812 445.203125 402.4375 445.316406 401.871094 C 445.425781 401.304688 445.566406 400.742188 445.734375 400.191406 C 445.902344 399.636719 446.097656 399.09375 446.316406 398.5625 C 446.539062 398.027344 446.785156 397.507812 447.058594 396.996094 C 447.328125 396.488281 447.625 395.992188 447.945312 395.511719 C 448.269531 395.03125 448.613281 394.566406 448.976562 394.121094 C 449.34375 393.675781 449.734375 393.246094 450.140625 392.835938 C 450.550781 392.429688 450.976562 392.042969 451.425781 391.675781 C 451.871094 391.308594 452.335938 390.964844 452.816406 390.644531 C 453.296875 390.320312 453.792969 390.023438 454.300781 389.753906 C 454.8125 389.480469 455.332031 389.234375 455.867188 389.011719 C 456.402344 388.789062 456.945312 388.59375 457.5 388.425781 C 458.050781 388.257812 458.613281 388.121094 459.179688 388.007812 C 459.746094 387.894531 460.316406 387.808594 460.894531 387.75 C 461.46875 387.695312 462.046875 387.664062 462.625 387.664062 C 463.203125 387.664062 463.777344 387.691406 464.355469 387.75 C 464.929688 387.804688 465.5 387.890625 466.070312 388.003906 C 466.636719 388.113281 467.195312 388.253906 467.75 388.421875 C 468.304688 388.589844 468.847656 388.785156 469.382812 389.003906 C 469.917969 389.226562 470.4375 389.472656 470.949219 389.742188 C 471.457031 390.015625 471.953125 390.3125 472.433594 390.632812 C 472.917969 390.953125 473.378906 391.296875 473.828125 391.664062 C 474.273438 392.03125 474.703125 392.417969 475.113281 392.824219 C 475.519531 393.234375 475.910156 393.660156 476.277344 394.105469 C 476.644531 394.554688 476.988281 395.015625 477.308594 395.496094 C 477.628906 395.976562 477.925781 396.472656 478.199219 396.980469 C 478.472656 397.488281 478.71875 398.011719 478.941406 398.542969 C 479.164062 399.078125 479.359375 399.621094 479.527344 400.171875 C 479.695312 400.726562 479.835938 401.285156 479.949219 401.851562 C 480.058594 402.417969 480.144531 402.988281 480.203125 403.5625 C 480.257812 404.136719 480.289062 404.714844 480.289062 405.292969 C 480.289062 405.871094 480.257812 406.445312 480.203125 407.019531 C 480.148438 407.59375 480.0625 408.167969 479.949219 408.734375 C 479.835938 409.300781 479.695312 409.859375 479.527344 410.410156 C 479.359375 410.964844 479.167969 411.507812 478.945312 412.039062 C 478.722656 412.574219 478.476562 413.097656 478.203125 413.605469 C 477.933594 414.113281 477.636719 414.609375 477.3125 415.089844 C 476.992188 415.570312 476.648438 416.035156 476.28125 416.480469 C 475.914062 416.925781 475.527344 417.355469 475.117188 417.761719 C 474.710938 418.171875 474.28125 418.558594 473.835938 418.925781 C 473.386719 419.292969 472.921875 419.636719 472.441406 419.957031 C 471.960938 420.277344 471.464844 420.574219 470.957031 420.84375 C 470.445312 421.117188 469.925781 421.363281 469.390625 421.585938 C 468.855469 421.808594 468.3125 422 467.757812 422.167969 C 467.207031 422.335938 466.644531 422.476562 466.078125 422.589844 C 465.511719 422.703125 464.9375 422.785156 464.363281 422.84375 C 463.789062 422.898438 463.210938 422.929688 462.632812 422.929688 C 462.054688 422.925781 461.480469 422.898438 460.902344 422.839844 C 460.328125 422.785156 459.757812 422.699219 459.191406 422.585938 C 458.625 422.472656 458.066406 422.332031 457.511719 422.164062 C 456.960938 421.996094 456.417969 421.800781 455.882812 421.582031 C 455.351562 421.359375 454.828125 421.113281 454.320312 420.839844 C 453.808594 420.566406 453.316406 420.273438 452.835938 419.953125 C 452.355469 419.628906 451.890625 419.289062 451.445312 418.921875 C 451 418.554688 450.570312 418.167969 450.160156 417.761719 C 449.753906 417.351562 449.367188 416.925781 449 416.480469 C 448.632812 416.035156 448.289062 415.574219 447.964844 415.09375 C 447.644531 414.613281 447.347656 414.121094 447.074219 413.609375 C 446.800781 413.101562 446.554688 412.582031 446.332031 412.050781 C 446.113281 411.515625 445.917969 410.972656 445.746094 410.421875 C 445.578125 409.871094 445.4375 409.3125 445.324219 408.746094 C 445.210938 408.179688 445.125 407.609375 445.066406 407.035156 C 445.007812 406.464844 444.980469 405.886719 444.976562 405.3125 Z M 453.46875 405.3125 C 453.46875 405.910156 453.527344 406.507812 453.644531 407.097656 C 453.761719 407.683594 453.9375 408.257812 454.167969 408.8125 C 454.398438 409.367188 454.679688 409.894531 455.015625 410.394531 C 455.347656 410.894531 455.726562 411.355469 456.152344 411.78125 C 456.578125 412.207031 457.042969 412.585938 457.542969 412.917969 C 458.042969 413.253906 458.570312 413.535156 459.125 413.765625 C 459.683594 413.996094 460.253906 414.167969 460.84375 414.285156 C 461.433594 414.402344 462.03125 414.460938 462.632812 414.460938 C 463.234375 414.460938 463.832031 414.402344 464.421875 414.285156 C 465.011719 414.167969 465.582031 413.996094 466.140625 413.765625 C 466.695312 413.535156 467.222656 413.253906 467.722656 412.917969 C 468.222656 412.585938 468.6875 412.207031 469.113281 411.78125 C 469.539062 411.355469 469.917969 410.894531 470.253906 410.394531 C 470.585938 409.894531 470.867188 409.367188 471.097656 408.8125 C 471.328125 408.257812 471.503906 407.683594 471.621094 407.097656 C 471.738281 406.507812 471.796875 405.910156 471.796875 405.3125 C 471.796875 404.710938 471.738281 404.113281 471.621094 403.523438 C 471.503906 402.9375 471.328125 402.363281 471.097656 401.808594 C 470.867188 401.253906 470.585938 400.726562 470.253906 400.226562 C 469.917969 399.726562 469.539062 399.265625 469.113281 398.839844 C 468.6875 398.414062 468.222656 398.035156 467.722656 397.703125 C 467.222656 397.367188 466.695312 397.085938 466.140625 396.855469 C 465.582031 396.625 465.011719 396.453125 464.421875 396.335938 C 463.832031 396.21875 463.234375 396.160156 462.632812 396.160156 C 462.03125 396.160156 461.4375 396.21875 460.847656 396.335938 C 460.257812 396.457031 459.683594 396.628906 459.128906 396.859375 C 458.574219 397.089844 458.046875 397.371094 457.546875 397.707031 C 457.046875 398.039062 456.582031 398.417969 456.15625 398.84375 C 455.730469 399.269531 455.351562 399.730469 455.019531 400.230469 C 454.683594 400.730469 454.402344 401.257812 454.171875 401.8125 C 453.941406 402.367188 453.765625 402.9375 453.648438 403.527344 C 453.53125 404.113281 453.46875 404.710938 453.46875 405.3125 Z M 453.46875 405.3125 " fill-opacity="1" fill-rule="nonzero"/><g clip-path="url(#id3)"><path fill="#ffffff" d="M 428.433594 451.53125 L 428.433594 446.339844 C 428.4375 445.371094 428.480469 444.40625 428.5625 443.441406 C 428.648438 442.476562 428.773438 441.515625 428.9375 440.5625 C 429.101562 439.609375 429.308594 438.664062 429.554688 437.726562 C 429.800781 436.789062 430.085938 435.863281 430.410156 434.953125 C 430.734375 434.039062 431.097656 433.140625 431.496094 432.257812 C 431.898438 431.378906 432.335938 430.515625 432.808594 429.667969 C 433.28125 428.824219 433.792969 428 434.335938 427.199219 C 434.878906 426.398438 435.457031 425.621094 436.066406 424.867188 C 436.675781 424.113281 437.316406 423.386719 437.988281 422.691406 C 438.660156 421.992188 439.359375 421.320312 440.089844 420.683594 C 440.816406 420.042969 441.570312 419.4375 442.351562 418.859375 C 443.128906 418.285156 443.933594 417.742188 444.757812 417.234375 C 445.585938 416.726562 446.429688 416.257812 447.296875 415.820312 C 448.164062 415.386719 449.046875 414.988281 449.945312 414.625 C 450.847656 414.265625 451.757812 413.941406 452.6875 413.660156 C 453.613281 413.375 454.550781 413.132812 455.5 412.925781 C 456.515625 412.699219 457.480469 412.835938 458.394531 413.339844 C 459.046875 413.707031 459.734375 413.988281 460.460938 414.175781 C 461.1875 414.367188 461.925781 414.464844 462.675781 414.464844 C 463.425781 414.464844 464.160156 414.367188 464.886719 414.175781 C 465.613281 413.988281 466.300781 413.707031 466.953125 413.339844 C 467.867188 412.851562 468.824219 412.71875 469.835938 412.941406 C 470.78125 413.148438 471.714844 413.394531 472.640625 413.679688 C 473.566406 413.964844 474.476562 414.289062 475.375 414.648438 C 476.273438 415.011719 477.152344 415.410156 478.015625 415.847656 C 478.878906 416.285156 479.722656 416.757812 480.546875 417.265625 C 481.371094 417.773438 482.171875 418.316406 482.949219 418.890625 C 483.726562 419.46875 484.480469 420.074219 485.203125 420.714844 C 485.929688 421.351562 486.628906 422.023438 487.296875 422.722656 C 487.96875 423.417969 488.605469 424.144531 489.214844 424.898438 C 489.820312 425.648438 490.398438 426.425781 490.9375 427.226562 C 491.480469 428.027344 491.988281 428.851562 492.460938 429.695312 C 492.933594 430.539062 493.367188 431.402344 493.765625 432.28125 C 494.167969 433.164062 494.527344 434.058594 494.851562 434.96875 C 495.171875 435.882812 495.457031 436.804688 495.703125 437.738281 C 495.949219 438.675781 496.152344 439.621094 496.316406 440.570312 C 496.480469 441.523438 496.605469 442.484375 496.691406 443.445312 C 496.773438 444.410156 496.816406 445.375 496.816406 446.339844 L 496.816406 451.558594 C 496.816406 451.839844 496.789062 452.113281 496.734375 452.386719 C 496.683594 452.660156 496.601562 452.921875 496.496094 453.179688 C 496.386719 453.4375 496.257812 453.679688 496.101562 453.910156 C 495.949219 454.144531 495.773438 454.355469 495.578125 454.554688 C 495.378906 454.75 495.164062 454.925781 494.933594 455.078125 C 494.703125 455.234375 494.457031 455.363281 494.199219 455.472656 C 493.945312 455.578125 493.679688 455.65625 493.40625 455.710938 C 493.132812 455.765625 492.855469 455.792969 492.578125 455.792969 L 432.671875 455.792969 C 432.394531 455.792969 432.117188 455.765625 431.84375 455.710938 C 431.570312 455.65625 431.304688 455.574219 431.042969 455.46875 C 430.785156 455.363281 430.542969 455.230469 430.308594 455.074219 C 430.078125 454.917969 429.863281 454.742188 429.667969 454.542969 C 429.46875 454.347656 429.292969 454.128906 429.140625 453.898438 C 428.984375 453.664062 428.855469 453.417969 428.75 453.160156 C 428.644531 452.902344 428.5625 452.636719 428.511719 452.363281 C 428.457031 452.089844 428.433594 451.8125 428.433594 451.53125 Z M 488.339844 446.339844 C 488.335938 444.941406 488.21875 443.554688 487.988281 442.175781 C 487.757812 440.792969 487.414062 439.441406 486.964844 438.117188 C 486.515625 436.796875 485.957031 435.515625 485.300781 434.28125 C 484.640625 433.046875 483.886719 431.875 483.035156 430.765625 C 482.1875 429.652344 481.25 428.617188 480.234375 427.660156 C 479.214844 426.699219 478.125 425.828125 476.964844 425.046875 C 475.804688 424.261719 474.585938 423.578125 473.316406 422.992188 C 472.042969 422.410156 470.730469 421.929688 469.382812 421.558594 C 468.316406 422.015625 467.214844 422.363281 466.078125 422.59375 C 464.941406 422.828125 463.792969 422.945312 462.632812 422.945312 C 461.472656 422.945312 460.324219 422.828125 459.1875 422.59375 C 458.050781 422.363281 456.949219 422.015625 455.882812 421.558594 C 454.535156 421.929688 453.222656 422.410156 451.949219 422.992188 C 450.675781 423.578125 449.460938 424.261719 448.300781 425.042969 C 447.140625 425.828125 446.050781 426.699219 445.03125 427.65625 C 444.011719 428.617188 443.074219 429.652344 442.226562 430.761719 C 441.375 431.875 440.617188 433.046875 439.960938 434.28125 C 439.300781 435.515625 438.742188 436.792969 438.292969 438.117188 C 437.839844 439.441406 437.5 440.792969 437.265625 442.171875 C 437.035156 443.554688 436.917969 444.941406 436.914062 446.339844 L 436.914062 447.328125 L 488.339844 447.328125 Z M 488.339844 446.339844 " fill-opacity="1" fill-rule="nonzero"/></g><path fill="#ffffff" d="M 387.679688 542.9375 C 387.957031 542.9375 388.234375 542.910156 388.507812 542.855469 C 388.78125 542.800781 389.046875 542.71875 389.304688 542.613281 C 389.5625 542.503906 389.804688 542.375 390.039062 542.21875 C 390.269531 542.066406 390.484375 541.890625 390.679688 541.691406 C 390.878906 541.496094 391.054688 541.28125 391.207031 541.046875 C 391.363281 540.816406 391.492188 540.570312 391.597656 540.3125 C 391.707031 540.054688 391.785156 539.789062 391.839844 539.515625 C 391.890625 539.242188 391.917969 538.96875 391.917969 538.6875 L 391.917969 508.960938 C 391.917969 508.683594 391.890625 508.40625 391.835938 508.136719 C 391.78125 507.863281 391.703125 507.597656 391.59375 507.339844 C 391.488281 507.085938 391.359375 506.839844 391.203125 506.609375 C 391.046875 506.378906 390.875 506.164062 390.675781 505.96875 C 390.480469 505.769531 390.265625 505.597656 390.035156 505.441406 C 389.800781 505.285156 389.558594 505.15625 389.300781 505.050781 C 389.042969 504.945312 388.777344 504.863281 388.507812 504.808594 C 388.234375 504.753906 387.957031 504.726562 387.679688 504.726562 C 387.402344 504.726562 387.125 504.753906 386.851562 504.808594 C 386.578125 504.863281 386.3125 504.945312 386.058594 505.050781 C 385.800781 505.15625 385.554688 505.289062 385.324219 505.441406 C 385.09375 505.597656 384.878906 505.769531 384.683594 505.96875 C 384.484375 506.164062 384.308594 506.378906 384.15625 506.609375 C 384 506.839844 383.871094 507.085938 383.761719 507.339844 C 383.65625 507.597656 383.574219 507.863281 383.523438 508.136719 C 383.46875 508.40625 383.441406 508.683594 383.441406 508.960938 L 383.441406 538.6875 C 383.4375 538.96875 383.464844 539.242188 383.519531 539.515625 C 383.574219 539.789062 383.652344 540.054688 383.757812 540.3125 C 383.863281 540.570312 383.996094 540.816406 384.148438 541.046875 C 384.304688 541.28125 384.480469 541.496094 384.675781 541.691406 C 384.875 541.890625 385.089844 542.066406 385.320312 542.21875 C 385.550781 542.375 385.796875 542.503906 386.054688 542.613281 C 386.3125 542.71875 386.578125 542.800781 386.851562 542.855469 C 387.125 542.910156 387.398438 542.9375 387.679688 542.9375 Z M 387.679688 542.9375 " fill-opacity="1" fill-rule="nonzero"/><path fill="#ffffff" d="M 307.085938 542.9375 L 468.285156 542.9375 C 468.5625 542.9375 468.839844 542.910156 469.113281 542.855469 C 469.386719 542.800781 469.652344 542.71875 469.910156 542.613281 C 470.167969 542.503906 470.414062 542.375 470.644531 542.21875 C 470.875 542.066406 471.089844 541.890625 471.285156 541.691406 C 471.484375 541.492188 471.660156 541.28125 471.8125 541.046875 C 471.96875 540.816406 472.097656 540.570312 472.203125 540.3125 C 472.3125 540.054688 472.390625 539.789062 472.445312 539.515625 C 472.5 539.242188 472.523438 538.96875 472.523438 538.6875 L 472.523438 482.589844 C 472.523438 482.3125 472.496094 482.039062 472.441406 481.765625 C 472.386719 481.492188 472.304688 481.230469 472.199219 480.972656 C 472.089844 480.714844 471.960938 480.472656 471.804688 480.242188 C 471.652344 480.011719 471.476562 479.796875 471.277344 479.601562 C 471.082031 479.40625 470.867188 479.230469 470.636719 479.078125 C 470.40625 478.921875 470.160156 478.792969 469.90625 478.6875 C 469.648438 478.582031 469.382812 478.5 469.109375 478.445312 C 468.839844 478.390625 468.5625 478.363281 468.285156 478.363281 C 468.007812 478.363281 467.730469 478.390625 467.457031 478.445312 C 467.1875 478.5 466.921875 478.582031 466.664062 478.6875 C 466.40625 478.792969 466.164062 478.921875 465.933594 479.078125 C 465.699219 479.230469 465.488281 479.40625 465.289062 479.601562 C 465.09375 479.796875 464.917969 480.011719 464.761719 480.242188 C 464.609375 480.472656 464.476562 480.714844 464.371094 480.972656 C 464.265625 481.230469 464.183594 481.492188 464.128906 481.765625 C 464.074219 482.039062 464.046875 482.3125 464.046875 482.589844 L 464.046875 534.457031 L 311.324219 534.457031 L 311.324219 485.054688 C 311.296875 484.515625 311.164062 483.996094 310.9375 483.507812 C 310.707031 483.015625 310.394531 482.582031 310 482.210938 C 309.605469 481.835938 309.15625 481.550781 308.652344 481.351562 C 308.148438 481.148438 307.625 481.050781 307.082031 481.050781 C 306.539062 481.050781 306.011719 481.148438 305.507812 481.351562 C 305.003906 481.550781 304.554688 481.835938 304.160156 482.210938 C 303.765625 482.582031 303.453125 483.015625 303.222656 483.507812 C 302.996094 483.996094 302.867188 484.515625 302.835938 485.054688 L 302.835938 538.6875 C 302.835938 538.96875 302.863281 539.246094 302.917969 539.519531 C 302.96875 539.792969 303.050781 540.058594 303.15625 540.316406 C 303.265625 540.570312 303.394531 540.816406 303.550781 541.046875 C 303.707031 541.28125 303.882812 541.496094 304.078125 541.691406 C 304.277344 541.890625 304.492188 542.066406 304.722656 542.21875 C 304.957031 542.375 305.203125 542.507812 305.460938 542.613281 C 305.71875 542.71875 305.984375 542.800781 306.257812 542.855469 C 306.53125 542.910156 306.808594 542.9375 307.085938 542.9375 Z M 307.085938 542.9375 " fill-opacity="1" fill-rule="nonzero"/><g clip-path="url(#id4)"><path fill="#ffffff" d="M 387.679688 319.320312 C 387.957031 319.320312 388.234375 319.292969 388.507812 319.238281 C 388.777344 319.183594 389.042969 319.101562 389.300781 318.996094 C 389.558594 318.890625 389.800781 318.757812 390.035156 318.605469 C 390.265625 318.449219 390.480469 318.273438 390.675781 318.078125 C 390.875 317.882812 391.046875 317.667969 391.203125 317.4375 C 391.359375 317.207031 391.488281 316.960938 391.59375 316.707031 C 391.703125 316.449219 391.78125 316.183594 391.835938 315.910156 C 391.890625 315.640625 391.917969 315.363281 391.917969 315.085938 L 391.917969 302.617188 C 391.917969 302.339844 391.890625 302.066406 391.835938 301.792969 C 391.78125 301.519531 391.703125 301.253906 391.59375 301 C 391.488281 300.742188 391.359375 300.5 391.203125 300.265625 C 391.046875 300.035156 390.875 299.820312 390.675781 299.625 C 390.480469 299.429688 390.265625 299.253906 390.035156 299.097656 C 389.800781 298.945312 389.558594 298.8125 389.300781 298.707031 C 389.042969 298.601562 388.777344 298.519531 388.507812 298.46875 C 388.234375 298.414062 387.957031 298.386719 387.679688 298.386719 C 387.402344 298.386719 387.125 298.414062 386.851562 298.46875 C 386.578125 298.519531 386.3125 298.601562 386.058594 298.707031 C 385.800781 298.8125 385.554688 298.945312 385.324219 299.097656 C 385.09375 299.253906 384.878906 299.429688 384.683594 299.625 C 384.484375 299.820312 384.308594 300.035156 384.15625 300.265625 C 384 300.5 383.871094 300.742188 383.761719 301 C 383.65625 301.253906 383.574219 301.519531 383.523438 301.792969 C 383.46875 302.066406 383.441406 302.339844 383.441406 302.617188 L 383.441406 315.085938 C 383.441406 315.363281 383.46875 315.640625 383.523438 315.910156 C 383.574219 316.183594 383.65625 316.449219 383.761719 316.707031 C 383.871094 316.960938 384 317.207031 384.15625 317.4375 C 384.308594 317.667969 384.484375 317.882812 384.683594 318.078125 C 384.878906 318.273438 385.09375 318.449219 385.324219 318.605469 C 385.554688 318.757812 385.800781 318.890625 386.058594 318.996094 C 386.3125 319.101562 386.578125 319.183594 386.851562 319.238281 C 387.125 319.292969 387.402344 319.320312 387.679688 319.320312 Z M 387.679688 319.320312 " fill-opacity="1" fill-rule="nonzero"/><path fill="#ffffff" d="M 387.679688 319.320312 C 387.957031 319.320312 388.234375 319.292969 388.507812 319.238281 C 388.777344 319.183594 389.042969 319.101562 389.300781 318.996094 C 389.558594 318.890625 389.800781 318.757812 390.035156 318.605469 C 390.265625 318.449219 390.480469 318.273438 390.675781 318.078125 C 390.875 317.882812 391.046875 317.667969 391.203125 317.4375 C 391.359375 317.207031 391.488281 316.960938 391.59375 316.707031 C 391.703125 316.449219 391.78125 316.183594 391.835938 315.910156 C 391.890625 315.640625 391.917969 315.363281 391.917969 315.085938 L 391.917969 302.617188 C 391.917969 302.339844 391.890625 302.066406 391.835938 301.792969 C 391.78125 301.519531 391.703125 301.253906 391.59375 301 C 391.488281 300.742188 391.359375 300.5 391.203125 300.265625 C 391.046875 300.035156 390.875 299.820312 390.675781 299.625 C 390.480469 299.429688 390.265625 299.253906 390.035156 299.097656 C 389.800781 298.945312 389.558594 298.8125 389.300781 298.707031 C 389.042969 298.601562 388.777344 298.519531 388.507812 298.46875 C 388.234375 298.414062 387.957031 298.386719 387.679688 298.386719 C 387.402344 298.386719 387.125 298.414062 386.851562 298.46875 C 386.578125 298.519531 386.3125 298.601562 386.058594 298.707031 C 385.800781 298.8125 385.554688 298.945312 385.324219 299.097656 C 385.09375 299.253906 384.878906 299.429688 384.683594 299.625 C 384.484375 299.820312 384.308594 300.035156 384.15625 300.265625 C 384 300.5 383.871094 300.742188 383.761719 301 C 383.65625 301.253906 383.574219 301.519531 383.523438 301.792969 C 383.46875 302.066406 383.441406 302.339844 383.441406 302.617188 L 383.441406 315.085938 C 383.441406 315.363281 383.46875 315.640625 383.523438 315.910156 C 383.574219 316.183594 383.65625 316.449219 383.761719 316.707031 C 383.871094 316.960938 384 317.207031 384.15625 317.4375 C 384.308594 317.667969 384.484375 317.882812 384.683594 318.078125 C 384.878906 318.273438 385.09375 318.449219 385.324219 318.605469 C 385.554688 318.757812 385.800781 318.890625 386.058594 318.996094 C 386.3125 319.101562 386.578125 319.183594 386.851562 319.238281 C 387.125 319.292969 387.402344 319.320312 387.679688 319.320312 Z M 387.679688 319.320312 " fill-opacity="1" fill-rule="nonzero"/></g><path fill="#ffffff" d="M 364.535156 325.523438 C 364.722656 325.523438 364.90625 325.511719 365.089844 325.484375 C 365.273438 325.460938 365.453125 325.421875 365.632812 325.375 C 365.808594 325.324219 365.984375 325.265625 366.15625 325.195312 C 366.324219 325.121094 366.492188 325.039062 366.648438 324.945312 C 366.808594 324.855469 366.964844 324.75 367.109375 324.636719 C 367.253906 324.523438 367.394531 324.402344 367.523438 324.273438 C 367.65625 324.140625 367.777344 324.003906 367.886719 323.855469 C 368 323.710938 368.101562 323.554688 368.195312 323.394531 C 368.289062 323.234375 368.367188 323.070312 368.4375 322.898438 C 368.511719 322.730469 368.570312 322.554688 368.617188 322.375 C 368.664062 322.199219 368.699219 322.015625 368.726562 321.835938 C 368.75 321.652344 368.761719 321.46875 368.761719 321.28125 C 368.761719 321.097656 368.75 320.914062 368.726562 320.730469 C 368.703125 320.546875 368.667969 320.367188 368.621094 320.1875 C 368.570312 320.011719 368.511719 319.835938 368.441406 319.664062 C 368.371094 319.492188 368.292969 319.328125 368.199219 319.167969 L 361.957031 308.371094 C 361.671875 307.902344 361.304688 307.5 360.859375 307.171875 C 360.414062 306.84375 359.921875 306.613281 359.386719 306.476562 C 358.851562 306.339844 358.308594 306.308594 357.761719 306.382812 C 357.210938 306.457031 356.699219 306.632812 356.21875 306.910156 C 355.738281 307.1875 355.332031 307.542969 354.992188 307.980469 C 354.652344 308.417969 354.40625 308.902344 354.257812 309.433594 C 354.109375 309.964844 354.066406 310.503906 354.128906 311.054688 C 354.191406 311.605469 354.355469 312.121094 354.621094 312.605469 L 360.847656 323.402344 C 361.226562 324.058594 361.746094 324.578125 362.40625 324.960938 C 363.066406 325.339844 363.777344 325.527344 364.535156 325.523438 Z M 364.535156 325.523438 " fill-opacity="1" fill-rule="nonzero"/><path fill="#ffffff" d="M 364.535156 325.523438 C 364.722656 325.523438 364.90625 325.511719 365.089844 325.484375 C 365.273438 325.460938 365.453125 325.421875 365.632812 325.375 C 365.808594 325.324219 365.984375 325.265625 366.15625 325.195312 C 366.324219 325.121094 366.492188 325.039062 366.648438 324.945312 C 366.808594 324.855469 366.964844 324.75 367.109375 324.636719 C 367.253906 324.523438 367.394531 324.402344 367.523438 324.273438 C 367.65625 324.140625 367.777344 324.003906 367.886719 323.855469 C 368 323.710938 368.101562 323.554688 368.195312 323.394531 C 368.289062 323.234375 368.367188 323.070312 368.4375 322.898438 C 368.511719 322.730469 368.570312 322.554688 368.617188 322.375 C 368.664062 322.199219 368.699219 322.015625 368.726562 321.835938 C 368.75 321.652344 368.761719 321.46875 368.761719 321.28125 C 368.761719 321.097656 368.75 320.914062 368.726562 320.730469 C 368.703125 320.546875 368.667969 320.367188 368.621094 320.1875 C 368.570312 320.011719 368.511719 319.835938 368.441406 319.664062 C 368.371094 319.492188 368.292969 319.328125 368.199219 319.167969 L 361.957031 308.371094 C 361.671875 307.902344 361.304688 307.5 360.859375 307.171875 C 360.414062 306.84375 359.921875 306.613281 359.386719 306.476562 C 358.851562 306.339844 358.308594 306.308594 357.761719 306.382812 C 357.210938 306.457031 356.699219 306.632812 356.21875 306.910156 C 355.738281 307.1875 355.332031 307.542969 354.992188 307.980469 C 354.652344 308.417969 354.40625 308.902344 354.257812 309.433594 C 354.109375 309.964844 354.066406 310.503906 354.128906 311.054688 C 354.191406 311.605469 354.355469 312.121094 354.621094 312.605469 L 360.847656 323.402344 C 361.226562 324.058594 361.746094 324.578125 362.40625 324.960938 C 363.066406 325.339844 363.777344 325.527344 364.535156 325.523438 Z M 364.535156 325.523438 " fill-opacity="1" fill-rule="nonzero"/><path fill="#ffffff" d="M 347.566406 342.445312 C 348.035156 342.441406 348.488281 342.367188 348.925781 342.21875 C 349.367188 342.066406 349.773438 341.851562 350.140625 341.566406 C 350.511719 341.285156 350.824219 340.949219 351.085938 340.5625 C 351.34375 340.175781 351.53125 339.757812 351.652344 339.308594 C 351.773438 338.863281 351.820312 338.40625 351.792969 337.941406 C 351.761719 337.476562 351.65625 337.03125 351.480469 336.601562 C 351.304688 336.171875 351.0625 335.78125 350.757812 335.429688 C 350.449219 335.078125 350.097656 334.785156 349.695312 334.550781 L 338.898438 328.304688 C 338.65625 328.167969 338.40625 328.050781 338.140625 327.960938 C 337.875 327.871094 337.605469 327.808594 337.332031 327.773438 C 337.054688 327.738281 336.777344 327.726562 336.5 327.746094 C 336.21875 327.765625 335.945312 327.808594 335.675781 327.882812 C 335.410156 327.953125 335.148438 328.050781 334.898438 328.175781 C 334.648438 328.296875 334.414062 328.441406 334.191406 328.613281 C 333.96875 328.78125 333.769531 328.972656 333.582031 329.179688 C 333.398438 329.390625 333.238281 329.613281 333.097656 329.855469 C 332.960938 330.097656 332.84375 330.347656 332.753906 330.613281 C 332.664062 330.875 332.601562 331.144531 332.566406 331.421875 C 332.527344 331.695312 332.519531 331.972656 332.535156 332.25 C 332.554688 332.53125 332.601562 332.800781 332.671875 333.070312 C 332.742188 333.339844 332.839844 333.601562 332.964844 333.851562 C 333.085938 334.097656 333.234375 334.335938 333.402344 334.554688 C 333.570312 334.777344 333.761719 334.980469 333.96875 335.164062 C 334.179688 335.347656 334.40625 335.507812 334.644531 335.648438 L 345.457031 341.882812 C 346.109375 342.257812 346.8125 342.445312 347.566406 342.445312 Z M 347.566406 342.445312 " fill-opacity="1" fill-rule="nonzero"/><path fill="#ffffff" d="M 347.566406 342.445312 C 348.035156 342.441406 348.488281 342.367188 348.925781 342.21875 C 349.367188 342.066406 349.773438 341.851562 350.140625 341.566406 C 350.511719 341.285156 350.824219 340.949219 351.085938 340.5625 C 351.34375 340.175781 351.53125 339.757812 351.652344 339.308594 C 351.773438 338.863281 351.820312 338.40625 351.792969 337.941406 C 351.761719 337.476562 351.65625 337.03125 351.480469 336.601562 C 351.304688 336.171875 351.0625 335.78125 350.757812 335.429688 C 350.449219 335.078125 350.097656 334.785156 349.695312 334.550781 L 338.898438 328.304688 C 338.65625 328.167969 338.40625 328.050781 338.140625 327.960938 C 337.875 327.871094 337.605469 327.808594 337.332031 327.773438 C 337.054688 327.738281 336.777344 327.726562 336.5 327.746094 C 336.21875 327.765625 335.945312 327.808594 335.675781 327.882812 C 335.410156 327.953125 335.148438 328.050781 334.898438 328.175781 C 334.648438 328.296875 334.414062 328.441406 334.191406 328.613281 C 333.96875 328.78125 333.769531 328.972656 333.582031 329.179688 C 333.398438 329.390625 333.238281 329.613281 333.097656 329.855469 C 332.960938 330.097656 332.84375 330.347656 332.753906 330.613281 C 332.664062 330.875 332.601562 331.144531 332.566406 331.421875 C 332.527344 331.695312 332.519531 331.972656 332.535156 332.25 C 332.554688 332.53125 332.601562 332.800781 332.671875 333.070312 C 332.742188 333.339844 332.839844 333.601562 332.964844 333.851562 C 333.085938 334.097656 333.234375 334.335938 333.402344 334.554688 C 333.570312 334.777344 333.761719 334.980469 333.96875 335.164062 C 334.179688 335.347656 334.40625 335.507812 334.644531 335.648438 L 345.457031 341.882812 C 346.109375 342.257812 346.8125 342.445312 347.566406 342.445312 Z M 347.566406 342.445312 " fill-opacity="1" fill-rule="nonzero"/><path fill="#ffffff" d="M 328.882812 365.511719 L 341.367188 365.511719 C 341.644531 365.511719 341.921875 365.484375 342.195312 365.433594 C 342.46875 365.378906 342.734375 365.296875 342.988281 365.191406 C 343.246094 365.085938 343.492188 364.953125 343.722656 364.800781 C 343.953125 364.644531 344.167969 364.46875 344.363281 364.273438 C 344.5625 364.078125 344.738281 363.863281 344.890625 363.632812 C 345.046875 363.402344 345.175781 363.15625 345.285156 362.898438 C 345.390625 362.644531 345.472656 362.378906 345.523438 362.105469 C 345.578125 361.832031 345.605469 361.558594 345.605469 361.28125 C 345.605469 361.003906 345.578125 360.726562 345.523438 360.453125 C 345.472656 360.183594 345.390625 359.917969 345.285156 359.660156 C 345.175781 359.402344 345.046875 359.160156 344.890625 358.929688 C 344.738281 358.699219 344.5625 358.484375 344.363281 358.285156 C 344.167969 358.089844 343.953125 357.914062 343.722656 357.761719 C 343.492188 357.605469 343.246094 357.476562 342.988281 357.371094 C 342.734375 357.261719 342.46875 357.183594 342.195312 357.128906 C 341.921875 357.074219 341.644531 357.046875 341.367188 357.046875 L 328.882812 357.046875 C 328.605469 357.046875 328.332031 357.074219 328.058594 357.128906 C 327.785156 357.183594 327.519531 357.261719 327.261719 357.371094 C 327.003906 357.476562 326.761719 357.605469 326.53125 357.761719 C 326.296875 357.914062 326.085938 358.089844 325.886719 358.285156 C 325.691406 358.484375 325.515625 358.699219 325.359375 358.929688 C 325.207031 359.160156 325.074219 359.402344 324.96875 359.660156 C 324.863281 359.917969 324.78125 360.183594 324.726562 360.453125 C 324.671875 360.726562 324.644531 361.003906 324.644531 361.28125 C 324.644531 361.558594 324.671875 361.832031 324.726562 362.105469 C 324.78125 362.378906 324.863281 362.644531 324.96875 362.898438 C 325.074219 363.15625 325.207031 363.402344 325.359375 363.632812 C 325.515625 363.863281 325.691406 364.078125 325.886719 364.273438 C 326.085938 364.46875 326.296875 364.644531 326.53125 364.800781 C 326.761719 364.953125 327.003906 365.085938 327.261719 365.191406 C 327.519531 365.296875 327.785156 365.378906 328.058594 365.433594 C 328.332031 365.484375 328.605469 365.511719 328.882812 365.511719 Z M 328.882812 365.511719 " fill-opacity="1" fill-rule="nonzero"/><path fill="#ffffff" d="M 328.882812 365.511719 L 341.367188 365.511719 C 341.644531 365.511719 341.921875 365.484375 342.195312 365.433594 C 342.46875 365.378906 342.734375 365.296875 342.988281 365.191406 C 343.246094 365.085938 343.492188 364.953125 343.722656 364.800781 C 343.953125 364.644531 344.167969 364.46875 344.363281 364.273438 C 344.5625 364.078125 344.738281 363.863281 344.890625 363.632812 C 345.046875 363.402344 345.175781 363.15625 345.285156 362.898438 C 345.390625 362.644531 345.472656 362.378906 345.523438 362.105469 C 345.578125 361.832031 345.605469 361.558594 345.605469 361.28125 C 345.605469 361.003906 345.578125 360.726562 345.523438 360.453125 C 345.472656 360.183594 345.390625 359.917969 345.285156 359.660156 C 345.175781 359.402344 345.046875 359.160156 344.890625 358.929688 C 344.738281 358.699219 344.5625 358.484375 344.363281 358.285156 C 344.167969 358.089844 343.953125 357.914062 343.722656 357.761719 C 343.492188 357.605469 343.246094 357.476562 342.988281 357.371094 C 342.734375 357.261719 342.46875 357.183594 342.195312 357.128906 C 341.921875 357.074219 341.644531 357.046875 341.367188 357.046875 L 328.882812 357.046875 C 328.605469 357.046875 328.332031 357.074219 328.058594 357.128906 C 327.785156 357.183594 327.519531 357.261719 327.261719 357.371094 C 327.003906 357.476562 326.761719 357.605469 326.53125 357.761719 C 326.296875 357.914062 326.085938 358.089844 325.886719 358.285156 C 325.691406 358.484375 325.515625 358.699219 325.359375 358.929688 C 325.207031 359.160156 325.074219 359.402344 324.96875 359.660156 C 324.863281 359.917969 324.78125 360.183594 324.726562 360.453125 C 324.671875 360.726562 324.644531 361.003906 324.644531 361.28125 C 324.644531 361.558594 324.671875 361.832031 324.726562 362.105469 C 324.78125 362.378906 324.863281 362.644531 324.96875 362.898438 C 325.074219 363.15625 325.207031 363.402344 325.359375 363.632812 C 325.515625 363.863281 325.691406 364.078125 325.886719 364.273438 C 326.085938 364.46875 326.296875 364.644531 326.53125 364.800781 C 326.761719 364.953125 327.003906 365.085938 327.261719 365.191406 C 327.519531 365.296875 327.785156 365.378906 328.058594 365.433594 C 328.332031 365.484375 328.605469 365.511719 328.882812 365.511719 Z M 328.882812 365.511719 " fill-opacity="1" fill-rule="nonzero"/><path fill="#ffffff" d="M 336.773438 394.925781 C 337.53125 394.929688 338.238281 394.742188 338.898438 394.363281 L 349.707031 388.132812 C 349.949219 387.992188 350.175781 387.832031 350.382812 387.648438 C 350.59375 387.464844 350.785156 387.261719 350.953125 387.042969 C 351.125 386.820312 351.269531 386.585938 351.394531 386.335938 C 351.515625 386.085938 351.613281 385.828125 351.6875 385.558594 C 351.757812 385.289062 351.804688 385.015625 351.824219 384.738281 C 351.839844 384.460938 351.832031 384.183594 351.796875 383.910156 C 351.761719 383.632812 351.699219 383.363281 351.609375 383.101562 C 351.519531 382.835938 351.402344 382.585938 351.265625 382.34375 C 351.125 382.101562 350.964844 381.878906 350.78125 381.667969 C 350.597656 381.457031 350.394531 381.269531 350.175781 381.097656 C 349.953125 380.929688 349.71875 380.785156 349.46875 380.660156 C 349.21875 380.535156 348.957031 380.4375 348.691406 380.367188 C 348.421875 380.292969 348.148438 380.25 347.867188 380.230469 C 347.589844 380.210938 347.3125 380.222656 347.039062 380.257812 C 346.761719 380.292969 346.492188 380.355469 346.226562 380.445312 C 345.964844 380.535156 345.710938 380.648438 345.46875 380.789062 L 334.644531 387.023438 C 334.242188 387.253906 333.882812 387.546875 333.574219 387.894531 C 333.265625 388.246094 333.019531 388.636719 332.839844 389.070312 C 332.660156 389.5 332.558594 389.949219 332.527344 390.414062 C 332.496094 390.882812 332.539062 391.339844 332.664062 391.792969 C 332.785156 392.242188 332.972656 392.664062 333.234375 393.050781 C 333.496094 393.4375 333.8125 393.773438 334.183594 394.058594 C 334.554688 394.339844 334.960938 394.558594 335.40625 394.707031 C 335.847656 394.855469 336.304688 394.929688 336.773438 394.925781 Z M 336.773438 394.925781 " fill-opacity="1" fill-rule="nonzero"/><path fill="#ffffff" d="M 336.773438 394.925781 C 337.53125 394.929688 338.238281 394.742188 338.898438 394.363281 L 349.707031 388.132812 C 349.949219 387.992188 350.175781 387.832031 350.382812 387.648438 C 350.59375 387.464844 350.785156 387.261719 350.953125 387.042969 C 351.125 386.820312 351.269531 386.585938 351.394531 386.335938 C 351.515625 386.085938 351.613281 385.828125 351.6875 385.558594 C 351.757812 385.289062 351.804688 385.015625 351.824219 384.738281 C 351.839844 384.460938 351.832031 384.183594 351.796875 383.910156 C 351.761719 383.632812 351.699219 383.363281 351.609375 383.101562 C 351.519531 382.835938 351.402344 382.585938 351.265625 382.34375 C 351.125 382.101562 350.964844 381.878906 350.78125 381.667969 C 350.597656 381.457031 350.394531 381.269531 350.175781 381.097656 C 349.953125 380.929688 349.71875 380.785156 349.46875 380.660156 C 349.21875 380.535156 348.957031 380.4375 348.691406 380.367188 C 348.421875 380.292969 348.148438 380.25 347.867188 380.230469 C 347.589844 380.210938 347.3125 380.222656 347.039062 380.257812 C 346.761719 380.292969 346.492188 380.355469 346.226562 380.445312 C 345.964844 380.535156 345.710938 380.648438 345.46875 380.789062 L 334.644531 387.023438 C 334.242188 387.253906 333.882812 387.546875 333.574219 387.894531 C 333.265625 388.246094 333.019531 388.636719 332.839844 389.070312 C 332.660156 389.5 332.558594 389.949219 332.527344 390.414062 C 332.496094 390.882812 332.539062 391.339844 332.664062 391.792969 C 332.785156 392.242188 332.972656 392.664062 333.234375 393.050781 C 333.496094 393.4375 333.8125 393.773438 334.183594 394.058594 C 334.554688 394.339844 334.960938 394.558594 335.40625 394.707031 C 335.847656 394.855469 336.304688 394.929688 336.773438 394.925781 Z M 336.773438 394.925781 " fill-opacity="1" fill-rule="nonzero"/><g clip-path="url(#id5)"><path fill="#ffffff" d="M 387.898438 319.320312 C 388.175781 319.320312 388.453125 319.292969 388.726562 319.238281 C 389 319.183594 389.261719 319.101562 389.519531 318.996094 C 389.777344 318.890625 390.023438 318.757812 390.253906 318.605469 C 390.484375 318.449219 390.699219 318.273438 390.894531 318.078125 C 391.09375 317.882812 391.269531 317.667969 391.421875 317.4375 C 391.578125 317.207031 391.707031 316.960938 391.816406 316.707031 C 391.921875 316.449219 392 316.183594 392.054688 315.910156 C 392.109375 315.640625 392.136719 315.363281 392.136719 315.085938 L 392.136719 302.617188 C 392.136719 302.339844 392.109375 302.066406 392.054688 301.792969 C 392 301.519531 391.921875 301.253906 391.816406 301 C 391.707031 300.742188 391.578125 300.5 391.421875 300.265625 C 391.269531 300.035156 391.09375 299.820312 390.894531 299.625 C 390.699219 299.429688 390.484375 299.253906 390.253906 299.097656 C 390.023438 298.945312 389.777344 298.8125 389.519531 298.707031 C 389.261719 298.601562 389 298.519531 388.726562 298.46875 C 388.453125 298.414062 388.175781 298.386719 387.898438 298.386719 C 387.621094 298.386719 387.34375 298.414062 387.070312 298.46875 C 386.796875 298.519531 386.535156 298.601562 386.277344 298.707031 C 386.019531 298.8125 385.773438 298.945312 385.542969 299.097656 C 385.3125 299.253906 385.097656 299.429688 384.902344 299.625 C 384.703125 299.820312 384.527344 300.035156 384.375 300.265625 C 384.21875 300.5 384.089844 300.742188 383.980469 301 C 383.875 301.253906 383.796875 301.519531 383.742188 301.792969 C 383.6875 302.066406 383.660156 302.339844 383.660156 302.617188 L 383.660156 315.085938 C 383.660156 315.363281 383.6875 315.640625 383.742188 315.910156 C 383.796875 316.183594 383.875 316.449219 383.980469 316.707031 C 384.089844 316.960938 384.21875 317.207031 384.375 317.4375 C 384.527344 317.667969 384.703125 317.882812 384.902344 318.078125 C 385.097656 318.273438 385.3125 318.449219 385.542969 318.605469 C 385.773438 318.757812 386.019531 318.890625 386.277344 318.996094 C 386.535156 319.101562 386.796875 319.183594 387.070312 319.238281 C 387.34375 319.292969 387.621094 319.320312 387.898438 319.320312 Z M 387.898438 319.320312 " fill-opacity="1" fill-rule="nonzero"/></g><path fill="#ffffff" d="M 411.039062 325.523438 C 411.800781 325.523438 412.507812 325.335938 413.164062 324.957031 C 413.820312 324.578125 414.339844 324.058594 414.714844 323.402344 L 420.957031 312.605469 C 421.105469 312.363281 421.226562 312.113281 421.324219 311.847656 C 421.421875 311.582031 421.488281 311.308594 421.53125 311.03125 C 421.574219 310.75 421.585938 310.46875 421.574219 310.1875 C 421.558594 309.90625 421.515625 309.628906 421.445312 309.355469 C 421.378906 309.082031 421.28125 308.816406 421.160156 308.5625 C 421.035156 308.308594 420.890625 308.070312 420.71875 307.84375 C 420.546875 307.621094 420.355469 307.414062 420.144531 307.226562 C 419.933594 307.039062 419.703125 306.878906 419.460938 306.734375 C 419.214844 306.59375 418.957031 306.480469 418.691406 306.390625 C 418.421875 306.300781 418.148438 306.238281 417.867188 306.203125 C 417.589844 306.167969 417.308594 306.160156 417.023438 306.179688 C 416.742188 306.199219 416.464844 306.25 416.195312 306.324219 C 415.921875 306.402344 415.660156 306.503906 415.410156 306.632812 C 415.15625 306.761719 414.921875 306.914062 414.699219 307.089844 C 414.480469 307.265625 414.277344 307.460938 414.09375 307.675781 C 413.914062 307.894531 413.753906 308.125 413.621094 308.371094 L 407.378906 319.167969 C 407.285156 319.328125 407.203125 319.492188 407.132812 319.664062 C 407.0625 319.835938 407.003906 320.011719 406.957031 320.1875 C 406.910156 320.367188 406.875 320.546875 406.851562 320.730469 C 406.828125 320.914062 406.816406 321.097656 406.816406 321.28125 C 406.816406 321.46875 406.828125 321.652344 406.851562 321.835938 C 406.875 322.015625 406.914062 322.199219 406.960938 322.375 C 407.007812 322.554688 407.066406 322.730469 407.136719 322.898438 C 407.207031 323.070312 407.289062 323.234375 407.382812 323.394531 C 407.476562 323.554688 407.578125 323.710938 407.6875 323.855469 C 407.800781 324.003906 407.921875 324.140625 408.054688 324.273438 C 408.183594 324.402344 408.320312 324.523438 408.46875 324.636719 C 408.613281 324.75 408.769531 324.855469 408.925781 324.945312 C 409.085938 325.039062 409.253906 325.121094 409.421875 325.195312 C 409.59375 325.265625 409.769531 325.324219 409.945312 325.375 C 410.125 325.421875 410.304688 325.460938 410.488281 325.484375 C 410.671875 325.511719 410.855469 325.523438 411.039062 325.523438 Z M 411.039062 325.523438 " fill-opacity="1" fill-rule="nonzero"/><path fill="#ffffff" d="M 411.039062 325.523438 C 411.800781 325.523438 412.507812 325.335938 413.164062 324.957031 C 413.820312 324.578125 414.339844 324.058594 414.714844 323.402344 L 420.957031 312.605469 C 421.105469 312.363281 421.226562 312.113281 421.324219 311.847656 C 421.421875 311.582031 421.488281 311.308594 421.53125 311.03125 C 421.574219 310.75 421.585938 310.46875 421.574219 310.1875 C 421.558594 309.90625 421.515625 309.628906 421.445312 309.355469 C 421.378906 309.082031 421.28125 308.816406 421.160156 308.5625 C 421.035156 308.308594 420.890625 308.070312 420.71875 307.84375 C 420.546875 307.621094 420.355469 307.414062 420.144531 307.226562 C 419.933594 307.039062 419.703125 306.878906 419.460938 306.734375 C 419.214844 306.59375 418.957031 306.480469 418.691406 306.390625 C 418.421875 306.300781 418.148438 306.238281 417.867188 306.203125 C 417.589844 306.167969 417.308594 306.160156 417.023438 306.179688 C 416.742188 306.199219 416.464844 306.25 416.195312 306.324219 C 415.921875 306.402344 415.660156 306.503906 415.410156 306.632812 C 415.15625 306.761719 414.921875 306.914062 414.699219 307.089844 C 414.480469 307.265625 414.277344 307.460938 414.09375 307.675781 C 413.914062 307.894531 413.753906 308.125 413.621094 308.371094 L 407.378906 319.167969 C 407.285156 319.328125 407.203125 319.492188 407.132812 319.664062 C 407.0625 319.835938 407.003906 320.011719 406.957031 320.1875 C 406.910156 320.367188 406.875 320.546875 406.851562 320.730469 C 406.828125 320.914062 406.816406 321.097656 406.816406 321.28125 C 406.816406 321.46875 406.828125 321.652344 406.851562 321.835938 C 406.875 322.015625 406.914062 322.199219 406.960938 322.375 C 407.007812 322.554688 407.066406 322.730469 407.136719 322.898438 C 407.207031 323.070312 407.289062 323.234375 407.382812 323.394531 C 407.476562 323.554688 407.578125 323.710938 407.6875 323.855469 C 407.800781 324.003906 407.921875 324.140625 408.054688 324.273438 C 408.183594 324.402344 408.320312 324.523438 408.46875 324.636719 C 408.613281 324.75 408.769531 324.855469 408.925781 324.945312 C 409.085938 325.039062 409.253906 325.121094 409.421875 325.195312 C 409.59375 325.265625 409.769531 325.324219 409.945312 325.375 C 410.125 325.421875 410.304688 325.460938 410.488281 325.484375 C 410.671875 325.511719 410.855469 325.523438 411.039062 325.523438 Z M 411.039062 325.523438 " fill-opacity="1" fill-rule="nonzero"/><path fill="#ffffff" d="M 428.0625 342.445312 C 428.820312 342.445312 429.523438 342.257812 430.175781 341.882812 L 440.984375 335.648438 C 441.226562 335.507812 441.453125 335.347656 441.664062 335.164062 C 441.871094 334.980469 442.0625 334.78125 442.230469 334.558594 C 442.402344 334.339844 442.546875 334.101562 442.671875 333.855469 C 442.796875 333.605469 442.894531 333.34375 442.964844 333.078125 C 443.039062 332.808594 443.082031 332.535156 443.101562 332.257812 C 443.121094 331.980469 443.109375 331.703125 443.074219 331.425781 C 443.039062 331.152344 442.976562 330.882812 442.886719 330.617188 C 442.796875 330.355469 442.683594 330.101562 442.542969 329.859375 C 442.402344 329.621094 442.242188 329.394531 442.058594 329.183594 C 441.875 328.976562 441.671875 328.785156 441.453125 328.617188 C 441.230469 328.445312 440.996094 328.300781 440.746094 328.175781 C 440.496094 328.054688 440.238281 327.957031 439.96875 327.882812 C 439.699219 327.8125 439.425781 327.765625 439.148438 327.75 C 438.871094 327.730469 438.59375 327.738281 438.316406 327.773438 C 438.039062 327.8125 437.769531 327.875 437.503906 327.964844 C 437.242188 328.050781 436.988281 328.167969 436.746094 328.304688 L 425.9375 334.550781 C 425.535156 334.785156 425.179688 335.078125 424.875 335.429688 C 424.570312 335.78125 424.328125 336.171875 424.152344 336.601562 C 423.972656 337.03125 423.871094 337.476562 423.839844 337.941406 C 423.8125 338.40625 423.855469 338.859375 423.976562 339.308594 C 424.097656 339.757812 424.289062 340.175781 424.546875 340.5625 C 424.808594 340.949219 425.121094 341.285156 425.488281 341.566406 C 425.859375 341.851562 426.265625 342.066406 426.703125 342.21875 C 427.144531 342.367188 427.597656 342.441406 428.0625 342.445312 Z M 428.0625 342.445312 " fill-opacity="1" fill-rule="nonzero"/><path fill="#ffffff" d="M 428.0625 342.445312 C 428.820312 342.445312 429.523438 342.257812 430.175781 341.882812 L 440.984375 335.648438 C 441.226562 335.507812 441.453125 335.347656 441.664062 335.164062 C 441.871094 334.980469 442.0625 334.78125 442.230469 334.558594 C 442.402344 334.339844 442.546875 334.101562 442.671875 333.855469 C 442.796875 333.605469 442.894531 333.34375 442.964844 333.078125 C 443.039062 332.808594 443.082031 332.535156 443.101562 332.257812 C 443.121094 331.980469 443.109375 331.703125 443.074219 331.425781 C 443.039062 331.152344 442.976562 330.882812 442.886719 330.617188 C 442.796875 330.355469 442.683594 330.101562 442.542969 329.859375 C 442.402344 329.621094 442.242188 329.394531 442.058594 329.183594 C 441.875 328.976562 441.671875 328.785156 441.453125 328.617188 C 441.230469 328.445312 440.996094 328.300781 440.746094 328.175781 C 440.496094 328.054688 440.238281 327.957031 439.96875 327.882812 C 439.699219 327.8125 439.425781 327.765625 439.148438 327.75 C 438.871094 327.730469 438.59375 327.738281 438.316406 327.773438 C 438.039062 327.8125 437.769531 327.875 437.503906 327.964844 C 437.242188 328.050781 436.988281 328.167969 436.746094 328.304688 L 425.9375 334.550781 C 425.535156 334.785156 425.179688 335.078125 424.875 335.429688 C 424.570312 335.78125 424.328125 336.171875 424.152344 336.601562 C 423.972656 337.03125 423.871094 337.476562 423.839844 337.941406 C 423.8125 338.40625 423.855469 338.859375 423.976562 339.308594 C 424.097656 339.757812 424.289062 340.175781 424.546875 340.5625 C 424.808594 340.949219 425.121094 341.285156 425.488281 341.566406 C 425.859375 341.851562 426.265625 342.066406 426.703125 342.21875 C 427.144531 342.367188 427.597656 342.441406 428.0625 342.445312 Z M 428.0625 342.445312 " fill-opacity="1" fill-rule="nonzero"/><path fill="#ffffff" d="M 434.210938 365.511719 L 446.691406 365.511719 C 446.972656 365.511719 447.246094 365.484375 447.519531 365.433594 C 447.792969 365.378906 448.058594 365.296875 448.316406 365.191406 C 448.570312 365.085938 448.816406 364.953125 449.046875 364.800781 C 449.277344 364.644531 449.492188 364.46875 449.691406 364.273438 C 449.886719 364.078125 450.0625 363.863281 450.21875 363.632812 C 450.371094 363.402344 450.503906 363.15625 450.609375 362.898438 C 450.714844 362.644531 450.796875 362.378906 450.851562 362.105469 C 450.90625 361.832031 450.933594 361.558594 450.933594 361.28125 C 450.933594 361.003906 450.90625 360.726562 450.851562 360.453125 C 450.796875 360.183594 450.714844 359.917969 450.609375 359.660156 C 450.503906 359.402344 450.371094 359.160156 450.21875 358.929688 C 450.0625 358.699219 449.886719 358.484375 449.691406 358.285156 C 449.492188 358.089844 449.277344 357.914062 449.046875 357.761719 C 448.816406 357.605469 448.570312 357.476562 448.316406 357.371094 C 448.058594 357.261719 447.792969 357.183594 447.519531 357.128906 C 447.246094 357.074219 446.972656 357.046875 446.691406 357.046875 L 434.210938 357.046875 C 433.929688 357.046875 433.65625 357.074219 433.382812 357.128906 C 433.109375 357.183594 432.84375 357.261719 432.585938 357.371094 C 432.332031 357.476562 432.085938 357.605469 431.855469 357.761719 C 431.625 357.914062 431.410156 358.089844 431.210938 358.285156 C 431.015625 358.484375 430.839844 358.699219 430.683594 358.929688 C 430.53125 359.160156 430.398438 359.402344 430.292969 359.660156 C 430.1875 359.917969 430.105469 360.183594 430.050781 360.453125 C 430 360.726562 429.972656 361.003906 429.972656 361.28125 C 429.972656 361.558594 430 361.832031 430.050781 362.105469 C 430.105469 362.378906 430.1875 362.644531 430.292969 362.898438 C 430.398438 363.15625 430.53125 363.402344 430.683594 363.632812 C 430.839844 363.863281 431.015625 364.078125 431.210938 364.273438 C 431.410156 364.46875 431.625 364.644531 431.855469 364.800781 C 432.085938 364.953125 432.332031 365.085938 432.585938 365.191406 C 432.84375 365.296875 433.109375 365.378906 433.382812 365.433594 C 433.65625 365.484375 433.929688 365.511719 434.210938 365.511719 Z M 434.210938 365.511719 " fill-opacity="1" fill-rule="nonzero"/><path fill="#ffffff" d="M 434.210938 365.511719 L 446.691406 365.511719 C 446.972656 365.511719 447.246094 365.484375 447.519531 365.433594 C 447.792969 365.378906 448.058594 365.296875 448.316406 365.191406 C 448.570312 365.085938 448.816406 364.953125 449.046875 364.800781 C 449.277344 364.644531 449.492188 364.46875 449.691406 364.273438 C 449.886719 364.078125 450.0625 363.863281 450.21875 363.632812 C 450.371094 363.402344 450.503906 363.15625 450.609375 362.898438 C 450.714844 362.644531 450.796875 362.378906 450.851562 362.105469 C 450.90625 361.832031 450.933594 361.558594 450.933594 361.28125 C 450.933594 361.003906 450.90625 360.726562 450.851562 360.453125 C 450.796875 360.183594 450.714844 359.917969 450.609375 359.660156 C 450.503906 359.402344 450.371094 359.160156 450.21875 358.929688 C 450.0625 358.699219 449.886719 358.484375 449.691406 358.285156 C 449.492188 358.089844 449.277344 357.914062 449.046875 357.761719 C 448.816406 357.605469 448.570312 357.476562 448.316406 357.371094 C 448.058594 357.261719 447.792969 357.183594 447.519531 357.128906 C 447.246094 357.074219 446.972656 357.046875 446.691406 357.046875 L 434.210938 357.046875 C 433.929688 357.046875 433.65625 357.074219 433.382812 357.128906 C 433.109375 357.183594 432.84375 357.261719 432.585938 357.371094 C 432.332031 357.476562 432.085938 357.605469 431.855469 357.761719 C 431.625 357.914062 431.410156 358.089844 431.210938 358.285156 C 431.015625 358.484375 430.839844 358.699219 430.683594 358.929688 C 430.53125 359.160156 430.398438 359.402344 430.292969 359.660156 C 430.1875 359.917969 430.105469 360.183594 430.050781 360.453125 C 430 360.726562 429.972656 361.003906 429.972656 361.28125 C 429.972656 361.558594 430 361.832031 430.050781 362.105469 C 430.105469 362.378906 430.1875 362.644531 430.292969 362.898438 C 430.398438 363.15625 430.53125 363.402344 430.683594 363.632812 C 430.839844 363.863281 431.015625 364.078125 431.210938 364.273438 C 431.410156 364.46875 431.625 364.644531 431.855469 364.800781 C 432.085938 364.953125 432.332031 365.085938 432.585938 365.191406 C 432.84375 365.296875 433.109375 365.378906 433.382812 365.433594 C 433.65625 365.484375 433.929688 365.511719 434.210938 365.511719 Z M 434.210938 365.511719 " fill-opacity="1" fill-rule="nonzero"/><path fill="#ffffff" d="M 438.804688 394.925781 C 439.273438 394.929688 439.726562 394.855469 440.171875 394.707031 C 440.613281 394.558594 441.023438 394.339844 441.394531 394.058594 C 441.765625 393.773438 442.082031 393.4375 442.34375 393.050781 C 442.601562 392.664062 442.792969 392.242188 442.914062 391.792969 C 443.035156 391.339844 443.082031 390.882812 443.050781 390.414062 C 443.019531 389.949219 442.914062 389.5 442.734375 389.070312 C 442.558594 388.636719 442.3125 388.246094 442.003906 387.894531 C 441.695312 387.546875 441.335938 387.253906 440.929688 387.023438 L 430.121094 380.789062 C 429.878906 380.648438 429.628906 380.535156 429.363281 380.445312 C 429.101562 380.359375 428.832031 380.296875 428.554688 380.257812 C 428.277344 380.222656 428 380.214844 427.722656 380.234375 C 427.445312 380.25 427.171875 380.296875 426.902344 380.371094 C 426.632812 380.441406 426.375 380.539062 426.125 380.664062 C 425.875 380.785156 425.640625 380.933594 425.417969 381.101562 C 425.199219 381.269531 424.996094 381.460938 424.8125 381.667969 C 424.628906 381.878906 424.46875 382.105469 424.328125 382.34375 C 424.191406 382.585938 424.074219 382.839844 423.988281 383.101562 C 423.898438 383.363281 423.835938 383.632812 423.796875 383.910156 C 423.761719 384.1875 423.753906 384.460938 423.769531 384.742188 C 423.789062 385.019531 423.835938 385.289062 423.90625 385.558594 C 423.980469 385.828125 424.078125 386.085938 424.199219 386.335938 C 424.324219 386.585938 424.46875 386.820312 424.640625 387.042969 C 424.808594 387.261719 424.996094 387.464844 425.207031 387.648438 C 425.417969 387.832031 425.640625 387.992188 425.882812 388.132812 L 436.691406 394.363281 C 437.347656 394.738281 438.050781 394.925781 438.804688 394.925781 Z M 438.804688 394.925781 " fill-opacity="1" fill-rule="nonzero"/><path fill="#ffffff" d="M 438.804688 394.925781 C 439.273438 394.929688 439.726562 394.855469 440.171875 394.707031 C 440.613281 394.558594 441.023438 394.339844 441.394531 394.058594 C 441.765625 393.773438 442.082031 393.4375 442.34375 393.050781 C 442.601562 392.664062 442.792969 392.242188 442.914062 391.792969 C 443.035156 391.339844 443.082031 390.882812 443.050781 390.414062 C 443.019531 389.949219 442.914062 389.5 442.734375 389.070312 C 442.558594 388.636719 442.3125 388.246094 442.003906 387.894531 C 441.695312 387.546875 441.335938 387.253906 440.929688 387.023438 L 430.121094 380.789062 C 429.878906 380.648438 429.628906 380.535156 429.363281 380.445312 C 429.101562 380.359375 428.832031 380.296875 428.554688 380.257812 C 428.277344 380.222656 428 380.214844 427.722656 380.234375 C 427.445312 380.25 427.171875 380.296875 426.902344 380.371094 C 426.632812 380.441406 426.375 380.539062 426.125 380.664062 C 425.875 380.785156 425.640625 380.933594 425.417969 381.101562 C 425.199219 381.269531 424.996094 381.460938 424.8125 381.667969 C 424.628906 381.878906 424.46875 382.105469 424.328125 382.34375 C 424.191406 382.585938 424.074219 382.839844 423.988281 383.101562 C 423.898438 383.363281 423.835938 383.632812 423.796875 383.910156 C 423.761719 384.1875 423.753906 384.460938 423.769531 384.742188 C 423.789062 385.019531 423.835938 385.289062 423.90625 385.558594 C 423.980469 385.828125 424.078125 386.085938 424.199219 386.335938 C 424.324219 386.585938 424.46875 386.820312 424.640625 387.042969 C 424.808594 387.261719 424.996094 387.464844 425.207031 387.648438 C 425.417969 387.832031 425.640625 387.992188 425.882812 388.132812 L 436.691406 394.363281 C 437.347656 394.738281 438.050781 394.925781 438.804688 394.925781 Z M 438.804688 394.925781 " fill-opacity="1" fill-rule="nonzero"/></svg>