<?xml version="1.0" encoding="UTF-8" standalone="no"?>
<svg
   width="512"
   zoomAndPan="magnify"
   viewBox="0 0 384 384"
   height="512"
   preserveAspectRatio="xMidYMid meet"
   version="1.0"
   id="svg187"
   sodipodi:docname="64.svg"
   inkscape:version="1.1 (c68e22c387, 2021-05-23)"
   xmlns:inkscape="http://www.inkscape.org/namespaces/inkscape"
   xmlns:sodipodi="http://sodipodi.sourceforge.net/DTD/sodipodi-0.dtd"
   xmlns="http://www.w3.org/2000/svg"
   xmlns:svg="http://www.w3.org/2000/svg">
  <sodipodi:namedview
     id="namedview189"
     pagecolor="#ffffff"
     bordercolor="#666666"
     borderopacity="1.0"
     inkscape:pageshadow="2"
     inkscape:pageopacity="0.0"
     inkscape:pagecheckerboard="0"
     showgrid="false"
     inkscape:zoom="0.73518519"
     inkscape:cx="278.16121"
     inkscape:cy="235.31486"
     inkscape:window-width="1920"
     inkscape:window-height="1002"
     inkscape:window-x="-8"
     inkscape:window-y="-8"
     inkscape:window-maximized="1"
     inkscape:current-layer="svg187" />
  <defs
     id="defs115">
    <clipPath
       id="id1">
      <path
         d="m 195.47266,228.61328 h 384 v 384 h -384 z m 0,0"
         clip-rule="nonzero"
         id="path100" />
    </clipPath>
    <clipPath
       id="id2">
      <path
         d="M 278.53906,412 H 347 v 44 h -68.46094 z m 0,0"
         clip-rule="nonzero"
         id="path103" />
    </clipPath>
    <clipPath
       id="id3">
      <path
         d="m 428,412 h 68.78906 v 44 H 428 Z m 0,0"
         clip-rule="nonzero"
         id="path106" />
    </clipPath>
    <clipPath
       id="id4">
      <path
         d="m 383,298.02734 h 9 V 320 h -9 z m 0,0"
         clip-rule="nonzero"
         id="path109" />
    </clipPath>
    <clipPath
       id="id5">
      <path
         d="m 383,298.02734 h 10 V 320 h -10 z m 0,0"
         clip-rule="nonzero"
         id="path112" />
    </clipPath>
  </defs>
  <g
     clip-path="url(#id1)"
     id="g119"
     transform="translate(-195.47266,-228.61328)">
    <path
       fill="#ad98d4"
       d="m 387.47266,228.61328 c -106.03907,0 -192,85.96094 -192,192 0,106.03906 85.96093,192 192,192 106.03906,0 192,-85.96094 192,-192 0,-106.03906 -85.96094,-192 -192,-192"
       fill-opacity="1"
       fill-rule="nonzero"
       id="path117" />
  </g>
  <path
     fill="#ffffff"
     d="m 169.85937,171.61328 v -6.32812 c -0.0234,-1.51953 -0.33203,-2.98047 -0.92578,-4.37891 -0.59375,-1.40234 -1.42969,-2.64062 -2.50391,-3.71875 -1.22656,-1.27344 -2.35547,-2.63281 -3.3789,-4.07422 -1.02344,-1.4414 -1.9375,-2.95312 -2.73828,-4.53125 -0.80079,-1.57812 -1.47657,-3.20703 -2.03516,-4.88672 -0.55469,-1.67968 -0.98438,-3.39062 -1.28516,-5.13281 -0.30468,-1.74609 -0.47265,-3.5 -0.51172,-5.26953 -0.043,-1.76953 0.0508,-3.53125 0.27344,-5.28516 0.22266,-1.7539 0.57422,-3.48437 1.0586,-5.18359 0.48046,-1.70313 1.08593,-3.36328 1.8125,-4.97266 0.73046,-1.61328 1.57421,-3.16406 2.53125,-4.65234 0.96093,-1.48438 2.02343,-2.89453 3.19531,-4.22266 1.16797,-1.32812 2.42969,-2.5625 3.78515,-3.70312 1.35157,-1.14063 2.78516,-2.17578 4.29297,-3.10156 1.50782,-0.92969 3.07813,-1.73829 4.70703,-2.433601 1.62891,-0.69531 3.30079,-1.26562 5.01172,-1.71094 1.71485,-0.44531 3.45313,-0.76171 5.21485,-0.94921 1.76172,-0.1875 3.52734,-0.24219 5.29687,-0.16797 1.09375,0.0547 2.1836,0.15234 3.26563,0.30468 1.08593,0.15235 2.16015,0.35157 3.22656,0.60157 1.06641,0.24609 2.11719,0.54297 3.15625,0.89062 1.03906,0.34375 2.05859,0.73438 3.0625,1.17188 1.00391,0.437501 1.98437,0.921871 2.94531,1.449221 0.95703,0.52734 1.89063,1.09375 2.79688,1.70703 0.90625,0.61328 1.78515,1.26562 2.63281,1.95703 0.84766,0.6914 1.66016,1.42187 2.44141,2.1875 0.78125,0.76562 1.52734,1.5664 2.23437,2.39844 0.70703,0.83593 1.375,1.69921 2.00391,2.59375 0.6289,0.89453 1.21484,1.8164 1.76172,2.76562 0.54296,0.94531 1.04687,1.91797 1.5,2.91016 0.45703,0.99609 0.86718,2.00781 1.23046,3.03906 0.36329,1.03125 0.67969,2.07812 0.94922,3.13672 0.26563,1.05859 0.48438,2.1289 0.65625,3.21094 0.17188,1.07812 0.29297,2.16406 0.36328,3.2539 0.14844,2.44922 0.0469,4.88281 -0.3125,7.3086 -0.35546,2.42578 -0.95703,4.78906 -1.80859,7.08984 -0.84766,2.30078 -1.92578,4.48828 -3.23047,6.56641 -1.30469,2.07812 -2.80859,4 -4.51172,5.76171 -1.08203,1.07813 -1.92187,2.32032 -2.51953,3.72657 -0.60156,1.40625 -0.91015,2.87109 -0.9375,4.39843 v 6.32813 c 0,0.28125 -0.0273,0.55469 -0.082,0.82812 -0.0547,0.27344 -0.13672,0.53907 -0.24219,0.79688 -0.10547,0.25781 -0.23828,0.5 -0.39453,0.73437 -0.15234,0.23047 -0.33203,0.44532 -0.52734,0.64063 -0.19922,0.19531 -0.41406,0.37109 -0.64453,0.52734 -0.23438,0.15235 -0.47657,0.28125 -0.73438,0.39063 -0.25781,0.10547 -0.52344,0.18359 -0.79687,0.23828 -0.27735,0.0547 -0.55078,0.0781 -0.83203,0.0781 h -36.21485 c -0.28125,0 -0.55859,-0.0273 -0.83203,-0.082 -0.27734,-0.0547 -0.54297,-0.13672 -0.80078,-0.24609 -0.26172,-0.10547 -0.50391,-0.23828 -0.73828,-0.39453 -0.23438,-0.16016 -0.44922,-0.33594 -0.64453,-0.53516 -0.19532,-0.19922 -0.3711,-0.41797 -0.52735,-0.65234 -0.15234,-0.23438 -0.28125,-0.48047 -0.38672,-0.74219 -0.10546,-0.25781 -0.18359,-0.52734 -0.23437,-0.80078 -0.0547,-0.27734 -0.0781,-0.55469 -0.0742,-0.83594 z m 36.21484,-6.32812 c 0.0274,-2.61719 0.54297,-5.13672 1.55079,-7.5586 1.0039,-2.41797 2.42578,-4.55859 4.26562,-6.42968 1.30078,-1.34375 2.44922,-2.8086 3.44531,-4.39454 0.99219,-1.58203 1.81641,-3.25 2.46094,-5.00781 0.64844,-1.7539 1.10938,-3.55469 1.37891,-5.40625 0.26953,-1.85156 0.34765,-3.70703 0.23437,-5.57422 -0.0586,-0.83203 -0.15234,-1.65625 -0.28125,-2.47656 -0.13281,-0.82422 -0.30078,-1.63672 -0.50781,-2.44531 -0.20703,-0.80469 -0.44922,-1.59766 -0.72656,-2.38281 -0.27735,-0.78516 -0.58985,-1.55469 -0.9375,-2.3125 -0.35157,-0.75391 -0.73438,-1.49219 -1.14844,-2.21485 -0.41406,-0.71875 -0.86328,-1.42187 -1.34375,-2.10156 -0.48047,-0.67969 -0.98828,-1.33594 -1.52734,-1.96875 -0.54297,-0.63672 -1.10938,-1.24219 -1.70313,-1.82422 -0.59766,-0.58203 -1.21484,-1.13672 -1.86328,-1.66406 -0.64453,-0.52344 -1.3125,-1.01953 -2.00391,-1.48438 -0.6914,-0.46484 -1.40234,-0.89843 -2.13281,-1.29687 -0.73047,-0.40235 -1.47656,-0.76953 -2.24219,-1.10156 -0.76172,-0.33204 -1.53906,-0.62891 -2.33203,-0.89063 -0.78906,-0.26172 -1.58984,-0.48437 -2.40234,-0.67578 -0.8125,-0.1875 -1.62891,-0.33984 -2.45313,-0.45313 -0.82812,-0.11328 -1.65625,-0.1914 -2.48828,-0.23046 -1.34375,-0.0508 -2.6875,-0.008 -4.02734,0.14062 -1.33985,0.14453 -2.66016,0.39063 -3.96485,0.73047 -1.30468,0.34375 -2.57421,0.77734 -3.8125,1.30859 -1.23828,0.53125 -2.42968,1.14844 -3.57812,1.85938 -1.14453,0.70703 -2.23438,1.49219 -3.26172,2.36328 -1.03125,0.86719 -1.98828,1.80859 -2.87891,2.82031 -0.89062,1.00781 -1.69921,2.08203 -2.42968,3.21094 -0.73047,1.13281 -1.3711,2.3125 -1.92578,3.53906 -0.55469,1.22656 -1.01563,2.48438 -1.38282,3.78125 -0.36718,1.29297 -0.63672,2.60938 -0.80859,3.94531 -0.17188,1.33204 -0.24219,2.67188 -0.21484,4.01954 0.0273,1.34375 0.15234,2.67968 0.3789,4.00781 0.22656,1.32812 0.55078,2.6289 0.97266,3.90625 0.41797,1.28125 0.92969,2.51953 1.53515,3.72265 0.60547,1.20313 1.29688,2.35547 2.07032,3.45313 0.77734,1.10156 1.6289,2.14062 2.55859,3.11328 1.83594,1.86719 3.25391,4.00781 4.25391,6.42578 1,2.41797 1.51562,4.9336 1.53515,7.54688 v 2.09765 h 27.73828 z m 0,0"
     fill-opacity="1"
     fill-rule="nonzero"
     id="path121" />
  <path
     fill="#ffffff"
     d="m 164.34375,193.06641 c 0,-1.30469 0.21875,-2.57032 0.66015,-3.80078 0.4375,-1.23047 1.06641,-2.35157 1.89453,-3.36329 -0.67968,-0.83593 -1.23047,-1.75 -1.64843,-2.74218 -0.42188,-0.99219 -0.69532,-2.02344 -0.82032,-3.09375 -0.1289,-1.07032 -0.10547,-2.13672 0.0703,-3.19922 0.17578,-1.0625 0.49609,-2.07813 0.96093,-3.05078 0.46485,-0.97266 1.05469,-1.85938 1.77344,-2.66407 0.71484,-0.80468 1.53125,-1.49609 2.44141,-2.07031 0.91406,-0.57422 1.88672,-1.01172 2.92578,-1.30859 1.03515,-0.29688 2.09375,-0.44922 3.17187,-0.44531 h 32.92188 c 0.75,0 1.49219,0.0742 2.22656,0.21875 0.73438,0.14843 1.44922,0.36718 2.14063,0.65234 0.69531,0.28906 1.35156,0.64062 1.97265,1.05469 0.625,0.41797 1.20313,0.89062 1.73047,1.42187 0.53125,0.52735 1.00391,1.10547 1.41797,1.72656 0.41797,0.625 0.76953,1.28125 1.05469,1.97266 0.28906,0.69141 0.5039,1.40625 0.65234,2.14063 0.14453,0.73437 0.21875,1.47265 0.21875,2.22265 0,1.32031 -0.22266,2.59766 -0.66797,3.83985 -0.44922,1.23828 -1.09375,2.36718 -1.9414,3.3789 0.82812,1.00391 1.46093,2.11328 1.89843,3.33594 0.44141,1.21875 0.66407,2.47656 0.66797,3.77344 0,0.75 -0.0742,1.49218 -0.21875,2.22656 -0.14453,0.73437 -0.36328,1.44922 -0.64844,2.14062 -0.28906,0.69141 -0.64062,1.34766 -1.05468,1.96875 -0.41797,0.625 -0.89063,1.19922 -1.41797,1.73047 -0.53125,0.53125 -1.10938,1.00391 -1.73047,1.41797 -0.625,0.41797 -1.28125,0.76953 -1.97266,1.05469 -0.6914,0.28906 -1.40625,0.50781 -2.14062,0.65234 -0.73828,0.14844 -1.48047,0.22266 -2.23047,0.22266 h -32.92188 c -0.74609,-0.004 -1.48828,-0.082 -2.22265,-0.23047 -0.73047,-0.14844 -1.44531,-0.36719 -2.13281,-0.65234 -0.69141,-0.28907 -1.34766,-0.64063 -1.96875,-1.0586 -0.6211,-0.41797 -1.19532,-0.89062 -1.72266,-1.42187 -0.53125,-0.52735 -1,-1.10156 -1.41797,-1.72656 -0.41406,-0.6211 -0.76562,-1.27735 -1.05078,-1.96875 -0.28516,-0.6875 -0.50391,-1.39844 -0.64844,-2.13282 -0.14453,-0.73437 -0.21875,-1.47265 -0.22265,-2.22265 z m 40.07031,-7.16407 c 0,-0.27734 0.0273,-0.55078 0.082,-0.82421 0.0547,-0.27344 0.13672,-0.53907 0.24219,-0.79297 0.10547,-0.25782 0.23828,-0.50391 0.39062,-0.73438 0.15625,-0.23047 0.33203,-0.44531 0.52735,-0.64062 0.19531,-0.19532 0.41015,-0.3711 0.64453,-0.52735 0.23047,-0.15234 0.47265,-0.28515 0.73047,-0.39062 0.25781,-0.10547 0.52343,-0.1875 0.79687,-0.24219 0.27344,-0.0508 0.54688,-0.0781 0.82422,-0.0781 0.375,-0.0274 0.73047,-0.1211 1.06641,-0.28125 0.33984,-0.16016 0.63281,-0.375 0.89062,-0.64844 0.25391,-0.27344 0.44922,-0.58203 0.58594,-0.92969 0.13672,-0.34766 0.20703,-0.70703 0.20703,-1.08203 0,-0.37109 -0.0703,-0.73047 -0.20703,-1.07813 -0.13672,-0.34765 -0.33203,-0.66015 -0.58594,-0.92968 -0.25781,-0.27344 -0.55078,-0.49219 -0.89062,-0.65235 -0.33594,-0.16015 -0.69141,-0.25 -1.06641,-0.27734 h -32.92188 c -0.37109,0.0273 -0.72656,0.11719 -1.0664,0.27734 -0.33594,0.16016 -0.63281,0.37891 -0.88672,0.65235 -0.25391,0.26953 -0.45313,0.58203 -0.58984,0.92968 -0.13672,0.34766 -0.20313,0.70704 -0.20313,1.07813 0,0.375 0.0664,0.73437 0.20313,1.08203 0.13671,0.34766 0.33593,0.65625 0.58984,0.92969 0.25391,0.27344 0.55078,0.48828 0.88672,0.64844 0.33984,0.16015 0.69531,0.2539 1.0664,0.28125 0.27735,0 0.55469,0.0273 0.82813,0.0781 0.27344,0.0547 0.53906,0.13672 0.79297,0.24219 0.25781,0.10547 0.5039,0.23828 0.73437,0.39062 0.23047,0.15625 0.44532,0.33203 0.64453,0.52735 0.19532,0.19531 0.3711,0.41015 0.52344,0.64062 0.15625,0.23047 0.28516,0.47656 0.39453,0.73438 0.10547,0.2539 0.1875,0.51953 0.23828,0.79297 0.0547,0.27343 0.082,0.54687 0.082,0.82421 0,0.27735 -0.0274,0.55469 -0.082,0.82813 -0.0508,0.26953 -0.13281,0.53516 -0.23828,0.79297 -0.10937,0.25781 -0.23828,0.5 -0.39453,0.73047 -0.15234,0.23047 -0.32812,0.44531 -0.52344,0.64453 -0.19921,0.19531 -0.41406,0.37109 -0.64453,0.52344 -0.23047,0.15625 -0.47656,0.28515 -0.73437,0.39062 -0.25391,0.10938 -0.51953,0.1875 -0.79297,0.24219 -0.27344,0.0547 -0.55078,0.082 -0.82813,0.082 -0.37109,0.0234 -0.72656,0.11719 -1.0664,0.27734 -0.33594,0.16016 -0.63281,0.37891 -0.88672,0.65235 -0.25391,0.26953 -0.45313,0.58203 -0.58984,0.92968 -0.13672,0.34375 -0.20313,0.70704 -0.20313,1.07813 0,0.375 0.0664,0.73437 0.20313,1.08203 0.13671,0.34766 0.33593,0.65625 0.58984,0.92969 0.25391,0.27344 0.55078,0.48828 0.88672,0.64844 0.33984,0.16015 0.69531,0.2539 1.0664,0.27734 h 32.92191 c 0.375,-0.0234 0.73047,-0.11719 1.06641,-0.27734 0.33984,-0.16016 0.63281,-0.375 0.89062,-0.64844 0.25391,-0.27344 0.44922,-0.58203 0.58594,-0.92969 0.13672,-0.34766 0.20703,-0.70703 0.20703,-1.08203 0,-0.37109 -0.0703,-0.73438 -0.20703,-1.07813 -0.13672,-0.34765 -0.33203,-0.66015 -0.58594,-0.92968 -0.25781,-0.27344 -0.55078,-0.49219 -0.89062,-0.65235 -0.33594,-0.16015 -0.69141,-0.2539 -1.06641,-0.27734 -0.27344,0 -0.54688,-0.0273 -0.82031,-0.082 -0.26953,-0.0508 -0.53125,-0.12891 -0.78907,-0.23438 -0.2539,-0.10547 -0.49609,-0.23437 -0.72656,-0.38672 -0.23047,-0.15234 -0.44531,-0.32421 -0.64062,-0.51562 -0.19532,-0.19531 -0.3711,-0.40625 -0.52735,-0.63281 -0.15625,-0.23047 -0.28515,-0.46875 -0.39453,-0.72266 -0.10937,-0.25391 -0.1914,-0.51562 -0.24609,-0.78516 -0.0586,-0.26953 -0.0899,-0.54296 -0.0937,-0.82031 z m 0,0"
     fill-opacity="1"
     fill-rule="nonzero"
     id="path123" />
  <path
     fill="#ffffff"
     d="m 174.5664,234.16797 c 0,-0.57813 0.0274,-1.15625 0.082,-1.73047 0.0586,-0.57422 0.14453,-1.14453 0.25782,-1.71094 0.10937,-0.5664 0.25,-1.125 0.41796,-1.67968 0.16797,-0.55079 0.36329,-1.09375 0.58594,-1.62891 0.22266,-0.53125 0.46875,-1.05469 0.74219,-1.5625 0.26953,-0.51172 0.56641,-1.00391 0.89062,-1.48438 0.32032,-0.48046 0.66407,-0.94531 1.03125,-1.39062 0.36719,-0.44531 0.75391,-0.875 1.16407,-1.28125 0.41015,-0.41016 0.83593,-0.79688 1.28515,-1.16406 0.44532,-0.36719 0.91016,-0.71094 1.39063,-1.03125 0.48047,-0.32032 0.97656,-0.61719 1.48828,-0.88672 0.50781,-0.27344 1.03125,-0.51953 1.56641,-0.74219 0.53125,-0.21875 1.07812,-0.41406 1.6289,-0.58203 0.55469,-0.16797 1.11328,-0.30859 1.6836,-0.41797 0.5664,-0.11328 1.13671,-0.19922 1.71093,-0.25391 0.57813,-0.0586 1.15235,-0.0859 1.73438,-0.0859 0.57812,0 1.15234,0.0273 1.73047,0.0859 0.57422,0.0547 1.14453,0.14063 1.71093,0.25391 0.57032,0.11328 1.12891,0.25391 1.6836,0.42188 0.55078,0.16796 1.09765,0.36328 1.6289,0.58203 0.53516,0.22265 1.0586,0.46875 1.56641,0.74218 0.51172,0.27344 1.00781,0.56641 1.48828,0.89063 0.48047,0.32031 0.94141,0.66406 1.39063,1.03125 0.44531,0.36719 0.875,0.75391 1.28125,1.16016 0.41015,0.41015 0.79687,0.83593 1.16406,1.28515 0.36719,0.44531 0.71094,0.91016 1.03125,1.39063 0.32422,0.48047 0.61719,0.97265 0.89062,1.48437 0.27344,0.50781 0.51954,1.03125 0.74219,1.5625 0.21875,0.53516 0.41406,1.07813 0.58203,1.63281 0.16797,0.55079 0.3086,1.10938 0.42188,1.67579 0.10937,0.5664 0.19531,1.13671 0.25,1.71484 0.0586,0.57422 0.0859,1.14844 0.0859,1.72656 0,0.57813 -0.0274,1.15235 -0.0859,1.73047 -0.0586,0.57422 -0.14063,1.14453 -0.25391,1.71094 -0.11328,0.5664 -0.2539,1.125 -0.42187,1.67578 -0.16797,0.55469 -0.36328,1.09766 -0.58594,1.62891 -0.22266,0.53515 -0.46875,1.05468 -0.74219,1.5664 -0.27344,0.50781 -0.57031,1.00391 -0.89062,1.48438 -0.32422,0.48047 -0.66797,0.9414 -1.03516,1.38672 -0.36719,0.44921 -0.75391,0.875 -1.16406,1.28125 -0.41016,0.41015 -0.83594,0.79687 -1.28516,1.16406 -0.44531,0.36328 -0.91015,0.70703 -1.39062,1.02734 -0.48047,0.32031 -0.97657,0.61719 -1.48828,0.89063 -0.51172,0.26953 -1.03125,0.51562 -1.56641,0.73828 -0.53516,0.21875 -1.07813,0.41406 -1.63281,0.58203 -0.55469,0.16797 -1.11328,0.30859 -1.67969,0.41797 -0.56641,0.11328 -1.14063,0.19922 -1.71484,0.2539 -0.57422,0.0547 -1.15235,0.082 -1.73047,0.082 -0.57813,0 -1.15625,-0.0274 -1.73047,-0.0859 -0.57422,-0.0586 -1.14453,-0.14453 -1.71094,-0.25781 -0.56641,-0.11329 -1.125,-0.25391 -1.67969,-0.42188 -0.55078,-0.16797 -1.09765,-0.36328 -1.6289,-0.58203 -0.53516,-0.22266 -1.05469,-0.46875 -1.56641,-0.74219 -0.50781,-0.27344 -1.00391,-0.5664 -1.48437,-0.89062 -0.48047,-0.32032 -0.94141,-0.66407 -1.38672,-1.03125 -0.44922,-0.36328 -0.875,-0.75 -1.28516,-1.16016 -0.40625,-0.40625 -0.79297,-0.83594 -1.16016,-1.28125 -0.36718,-0.44531 -0.71093,-0.91016 -1.03125,-1.39062 -0.32031,-0.47657 -0.61718,-0.97266 -0.89062,-1.48047 -0.27344,-0.51172 -0.51953,-1.03125 -0.74219,-1.5625 -0.21875,-0.53516 -0.41406,-1.07813 -0.58203,-1.62891 -0.16797,-0.55078 -0.30859,-1.11328 -0.42187,-1.67578 -0.11329,-0.56641 -0.19922,-1.13672 -0.25391,-1.71094 -0.0586,-0.57422 -0.0859,-1.15234 -0.0859,-1.72656 z m 8.47656,0 c 0,0.60156 0.0586,1.19531 0.17579,1.78516 0.11718,0.58984 0.29296,1.16015 0.52343,1.71484 0.22657,0.55469 0.51172,1.08203 0.84375,1.58203 0.33594,0.5 0.71485,0.96484 1.14063,1.38672 0.42578,0.42578 0.88672,0.80469 1.39062,1.14062 0.5,0.33204 1.02735,0.61329 1.58203,0.84375 0.55469,0.23047 1.12891,0.40235 1.71875,0.51954 0.58985,0.11718 1.1875,0.17578 1.78907,0.17578 0.60156,0 1.19531,-0.0586 1.78515,-0.17578 0.59375,-0.11719 1.16407,-0.28907 1.72266,-0.51954 0.55469,-0.23046 1.08203,-0.51171 1.58203,-0.84375 0.5,-0.33593 0.96484,-0.71484 1.39063,-1.14062 0.42578,-0.42188 0.80468,-0.88672 1.13671,-1.38672 0.33594,-0.5 0.61719,-1.02734 0.84766,-1.58203 0.23047,-0.55469 0.40625,-1.125 0.52344,-1.71484 0.11719,-0.58985 0.17578,-1.1836 0.17578,-1.78516 0,-0.60156 -0.0586,-1.19531 -0.17578,-1.78516 -0.11719,-0.58984 -0.29297,-1.16406 -0.52344,-1.71875 -0.23047,-0.55468 -0.51172,-1.08203 -0.84766,-1.58203 -0.33203,-0.5 -0.71093,-0.96094 -1.13671,-1.38672 -0.42579,-0.42578 -0.89063,-0.80468 -1.39063,-1.13672 -0.5,-0.33593 -1.02734,-0.61718 -1.58203,-0.84765 -0.55859,-0.23047 -1.12891,-0.40235 -1.72266,-0.51953 -0.58984,-0.11719 -1.18359,-0.17578 -1.78515,-0.17578 -0.60157,0 -1.19922,0.0586 -1.78907,0.17968 -0.58984,0.11719 -1.16015,0.28907 -1.71484,0.51953 -0.55859,0.23047 -1.08594,0.51172 -1.58594,0.84766 -0.5,0.33203 -0.96093,0.71094 -1.38672,1.13672 -0.42578,0.42578 -0.80468,0.88672 -1.14062,1.38672 -0.33203,0.5 -0.61328,1.02734 -0.84766,1.58203 -0.23047,0.55469 -0.40234,1.125 -0.51953,1.71484 -0.12109,0.58985 -0.17969,1.1836 -0.17969,1.78516 z m 0,0"
     fill-opacity="1"
     fill-rule="nonzero"
     id="path125" />
  <path
     fill="#ffffff"
     d="m 158.02343,280.34766 v -5.23438 c 0,-0.96484 0.043,-1.92969 0.12891,-2.89453 0.082,-0.96484 0.20703,-1.92187 0.375,-2.875 0.16406,-0.95312 0.37109,-1.89844 0.61719,-2.83203 0.24609,-0.9375 0.53125,-1.85938 0.85156,-2.76953 0.32422,-0.91406 0.6875,-1.8086 1.08594,-2.69141 0.40234,-0.8789 0.83984,-1.74219 1.3125,-2.58594 0.47265,-0.84375 0.98047,-1.66406 1.52343,-2.46484 0.54297,-0.80078 1.11719,-1.57812 1.72657,-2.33203 0.60937,-0.75 1.25,-1.47656 1.92187,-2.17578 0.66797,-0.69531 1.36719,-1.36719 2.09375,-2.00391 0.72656,-0.64062 1.48047,-1.24609 2.25781,-1.82031 0.78125,-0.57813 1.58204,-1.11719 2.40625,-1.625 0.82422,-0.50781 1.66797,-0.98047 2.53125,-1.41406 0.86719,-0.4375 1.7461,-0.83594 2.64454,-1.19922 0.89843,-0.35938 1.8125,-0.6836 2.73828,-0.96485 0.92578,-0.28515 1.85937,-0.53125 2.80859,-0.73437 1.01172,-0.22656 1.97266,-0.0898 2.87891,0.41016 0.65234,0.36718 1.34375,0.64453 2.0664,0.83593 0.72657,0.1875 1.46485,0.28516 2.21485,0.28516 0.75,0 1.48828,-0.0977 2.21093,-0.28516 0.72657,-0.1914 1.41407,-0.46875 2.06641,-0.83593 0.91797,-0.49219 1.88281,-0.62891 2.89453,-0.41016 0.94922,0.20312 1.88281,0.44922 2.8086,0.73437 0.92578,0.28125 1.83984,0.60547 2.73828,0.96485 0.89843,0.36328 1.77734,0.76172 2.64453,1.19922 0.86328,0.43359 1.70703,0.90625 2.53125,1.41406 0.82422,0.50781 1.6289,1.04687 2.40625,1.625 0.77734,0.57422 1.53125,1.17969 2.25781,1.82031 0.72656,0.63672 1.42578,1.3086 2.09766,2.00391 0.66797,0.69922 1.30859,1.42578 1.91797,2.17578 0.60937,0.75391 1.18359,1.53125 1.72656,2.33203 0.54297,0.80078 1.05078,1.62109 1.52344,2.46484 0.47265,0.84375 0.91015,1.70704 1.3125,2.58594 0.39843,0.88281 0.76171,1.77735 1.08593,2.69141 0.32422,0.91015 0.60938,1.83203 0.85157,2.76953 0.24609,0.93359 0.45312,1.87891 0.61718,2.83203 0.16797,0.95313 0.29297,1.91016 0.375,2.875 0.0859,0.96484 0.12891,1.92969 0.13282,2.89453 v 5.23438 c 0,0.27734 -0.0274,0.55468 -0.082,0.82812 -0.0547,0.26953 -0.13671,0.53516 -0.24218,0.79297 -0.10547,0.25781 -0.23828,0.5 -0.39063,0.73047 -0.15625,0.23047 -0.33203,0.44531 -0.52734,0.64062 -0.19922,0.19922 -0.41016,0.375 -0.64453,0.52735 -0.23047,0.15625 -0.47266,0.28515 -0.73047,0.39062 -0.25781,0.10938 -0.52344,0.1875 -0.79688,0.24219 -0.27343,0.0547 -0.54687,0.082 -0.82812,0.082 h -59.90235 c -0.28125,0 -0.55468,-0.0273 -0.82812,-0.082 -0.27344,-0.0547 -0.53906,-0.13281 -0.79688,-0.24219 -0.2539,-0.10547 -0.5,-0.23437 -0.73046,-0.39062 -0.23047,-0.15235 -0.44532,-0.32813 -0.64454,-0.52735 -0.19531,-0.19531 -0.37109,-0.41015 -0.52734,-0.64062 -0.15234,-0.23047 -0.28516,-0.47266 -0.39062,-0.73047 -0.10547,-0.25781 -0.1875,-0.52344 -0.24219,-0.79297 -0.0547,-0.27344 -0.0781,-0.55078 -0.0781,-0.82812 z m 59.90235,-5.23438 c -0.004,-1.39844 -0.125,-2.78515 -0.35547,-4.16406 -0.23047,-1.37891 -0.57422,-2.73047 -1.02735,-4.05469 -0.44921,-1.32031 -1.00781,-2.60156 -1.66796,-3.83203 -0.66016,-1.23437 -1.41407,-2.40625 -2.26563,-3.51562 -0.84766,-1.11329 -1.78516,-2.14844 -2.80469,-3.10547 -1.01953,-0.95703 -2.10937,-1.82813 -3.26953,-2.60938 -1.16015,-0.78515 -2.375,-1.46875 -3.64844,-2.05078 -1.26953,-0.58594 -2.58203,-1.0625 -3.92968,-1.43359 -1.06641,0.45703 -2.16797,0.80078 -3.30469,1.03515 -1.13672,0.23438 -2.28516,0.35157 -3.44531,0.35157 -1.16016,0 -2.3086,-0.11719 -3.44532,-0.35157 -1.13671,-0.23437 -2.23828,-0.57812 -3.30468,-1.03515 -1.34766,0.37109 -2.66016,0.84765 -3.92969,1.43359 -1.27344,0.58594 -2.48828,1.26953 -3.64844,2.05078 -1.16015,0.78125 -2.25,1.65235 -3.26953,2.60938 -1.01562,0.96093 -1.95312,1.99609 -2.80078,3.10547 -0.85156,1.10937 -1.60547,2.28125 -2.26563,3.51562 -0.66015,1.23438 -1.21484,2.51172 -1.66406,3.83594 -0.45312,1.32031 -0.79297,2.67187 -1.02344,4.05078 -0.23437,1.37891 -0.35156,2.76953 -0.35546,4.16406 v 1 h 51.42578 z m 0,0"
     fill-opacity="1"
     fill-rule="nonzero"
     id="path127" />
  <path
     fill="#ffffff"
     d="m 99.609374,176.69922 c 0,-0.57813 0.0312,-1.15625 0.0859,-1.73047 0.0547,-0.57422 0.14062,-1.14453 0.2539,-1.71094 0.109376,-0.5664 0.249996,-1.1289 0.417966,-1.67968 0.16797,-0.55469 0.36328,-1.09766 0.58203,-1.62891 0.22266,-0.53516 0.46875,-1.05469 0.74219,-1.56641 0.26953,-0.50781 0.56641,-1.0039 0.88672,-1.48437 0.32422,-0.48047 0.66797,-0.94531 1.03125,-1.39063 0.36719,-0.44531 0.75781,-0.875 1.16406,-1.28515 0.41016,-0.40625 0.83594,-0.79297 1.28516,-1.16016 0.44531,-0.36719 0.91016,-0.71094 1.39062,-1.03125 0.48047,-0.32422 0.97657,-0.62109 1.48438,-0.89062 0.51172,-0.27344 1.03125,-0.51954 1.56641,-0.74219 0.53515,-0.22266 1.07812,-0.41797 1.63281,-0.58594 0.55078,-0.16797 1.11328,-0.30469 1.67969,-0.41797 0.5664,-0.11328 1.13671,-0.19922 1.71484,-0.25781 0.57422,-0.0547 1.15234,-0.0859 1.73047,-0.0859 0.57812,0 1.15625,0.0274 1.73047,0.0859 0.57422,0.0547 1.14453,0.14062 1.71484,0.25391 0.56641,0.10937 1.125,0.25 1.67969,0.41796 0.55469,0.16797 1.09765,0.36329 1.63281,0.58204 0.53516,0.22265 1.05469,0.46875 1.56641,0.73828 0.51172,0.27343 1.0039,0.57031 1.48828,0.89062 0.48047,0.32031 0.9414,0.66406 1.39062,1.03125 0.44532,0.36719 0.875,0.75391 1.28516,1.16016 0.40625,0.41015 0.79687,0.83594 1.16406,1.28125 0.36719,0.44922 0.71094,0.91015 1.03125,1.39062 0.32031,0.48047 0.6211,0.97657 0.89063,1.48438 0.27343,0.50781 0.51953,1.03125 0.74218,1.5625 0.22266,0.53515 0.41797,1.07812 0.58594,1.6289 0.16797,0.55469 0.3086,1.11329 0.42188,1.67969 0.11328,0.56641 0.19531,1.13672 0.2539,1.71094 0.0547,0.57422 0.0859,1.15234 0.0859,1.73047 0,0.57812 -0.0273,1.15234 -0.0859,1.72656 -0.0547,0.57422 -0.14062,1.14844 -0.2539,1.71484 -0.11328,0.56641 -0.25391,1.125 -0.42188,1.67579 -0.16797,0.55468 -0.35937,1.09765 -0.58203,1.6289 -0.22266,0.53516 -0.46875,1.0586 -0.74219,1.56641 -0.26953,0.50781 -0.5664,1.0039 -0.89062,1.48437 -0.32031,0.48047 -0.66406,0.94532 -1.03125,1.39063 -0.36719,0.44531 -0.75391,0.875 -1.16406,1.28125 -0.40625,0.41015 -0.83594,0.79687 -1.28125,1.16406 -0.44922,0.36719 -0.91016,0.71094 -1.39454,1.03125 -0.48046,0.32031 -0.97265,0.61719 -1.48437,0.88672 -0.51172,0.27344 -1.03125,0.51953 -1.56641,0.74219 -0.53515,0.22265 -1.07812,0.41406 -1.63281,0.58203 -0.55078,0.16797 -1.11328,0.30859 -1.67969,0.42187 -0.5664,0.11328 -1.13672,0.19532 -1.71484,0.25391 -0.57422,0.0547 -1.15234,0.0859 -1.73047,0.0859 -0.57812,0 -1.15234,-0.0312 -1.73047,-0.0859 -0.57422,-0.0586 -1.14453,-0.14453 -1.71094,-0.25781 -0.5664,-0.10938 -1.125,-0.25 -1.67968,-0.41797 -0.55078,-0.16797 -1.09375,-0.36328 -1.62891,-0.58594 -0.53516,-0.21875 -1.05469,-0.46484 -1.56641,-0.73828 -0.50781,-0.26953 -1.0039,-0.56641 -1.48437,-0.88672 -0.48047,-0.32031 -0.94531,-0.66406 -1.39063,-1.03125 -0.44531,-0.36719 -0.875,-0.75391 -1.28125,-1.16016 -0.41015,-0.41015 -0.79687,-0.83593 -1.16406,-1.28125 -0.36719,-0.44531 -0.71094,-0.91015 -1.03515,-1.38671 -0.32032,-0.48047 -0.61719,-0.97657 -0.89063,-1.48438 -0.27344,-0.50781 -0.51953,-1.02734 -0.74219,-1.5625 -0.21875,-0.53125 -0.41406,-1.07422 -0.58203,-1.625 -0.16797,-0.55469 -0.30859,-1.11328 -0.421866,-1.67969 -0.11719,-0.5664 -0.19922,-1.13281 -0.25782,-1.70703 -0.0586,-0.57422 -0.0859,-1.15234 -0.0898,-1.72656 z m 8.492186,0 c 0,0.59766 0.0586,1.19531 0.17578,1.78516 0.11719,0.58593 0.29297,1.16015 0.52344,1.71484 0.23047,0.55469 0.51172,1.08203 0.84765,1.58203 0.33203,0.5 0.71094,0.96094 1.13672,1.38672 0.42578,0.42578 0.89063,0.80469 1.39063,1.13672 0.5,0.33594 1.02734,0.61719 1.58203,0.84765 0.55859,0.23047 1.1289,0.40235 1.71875,0.51954 0.59375,0.11718 1.1875,0.17578 1.78906,0.17578 0.60156,0 1.19922,-0.0586 1.78906,-0.17578 0.58985,-0.11719 1.16407,-0.28907 1.71875,-0.51954 0.55469,-0.23046 1.08203,-0.51171 1.58203,-0.84765 0.5,-0.33203 0.96485,-0.71094 1.39063,-1.13672 0.42578,-0.42578 0.80469,-0.88672 1.14062,-1.38672 0.33204,-0.5 0.61329,-1.02734 0.84375,-1.58203 0.23047,-0.55469 0.40625,-1.12891 0.52344,-1.71484 0.11719,-0.58985 0.17578,-1.1875 0.17578,-1.78516 0,-0.60156 -0.0586,-1.19922 -0.17578,-1.78906 -0.11719,-0.58594 -0.29297,-1.16016 -0.52344,-1.71485 -0.23046,-0.55468 -0.51171,-1.08203 -0.84375,-1.58203 -0.33593,-0.5 -0.71484,-0.96094 -1.14062,-1.38672 -0.42578,-0.42578 -0.89063,-0.80468 -1.39063,-1.13672 -0.5,-0.33593 -1.02734,-0.61718 -1.58203,-0.84765 -0.55468,-0.23047 -1.1289,-0.40235 -1.71875,-0.51953 -0.58984,-0.11719 -1.1875,-0.17578 -1.78906,-0.17578 -0.60156,0 -1.19531,0.0586 -1.78516,0.17578 -0.58984,0.12109 -1.16406,0.29297 -1.71875,0.52343 -0.55468,0.23047 -1.08203,0.51172 -1.58203,0.84766 -0.5,0.33203 -0.96484,0.71094 -1.39062,1.13672 -0.42188,0.42578 -0.80469,0.88672 -1.13672,1.38672 -0.33594,0.5 -0.61719,1.02734 -0.84766,1.58203 -0.23047,0.55469 -0.40625,1.125 -0.52343,1.71484 -0.11719,0.58594 -0.17969,1.1836 -0.17969,1.78516 z m 0,0"
     fill-opacity="1"
     fill-rule="nonzero"
     id="path129" />
  <g
     clip-path="url(#id2)"
     id="g133"
     transform="translate(-195.47266,-228.61328)">
    <path
       fill="#ffffff"
       d="m 278.53906,451.53125 v -5.19141 c 0.004,-0.96875 0.0469,-1.93359 0.12891,-2.89843 0.082,-0.96094 0.20703,-1.92188 0.375,-2.875 0.16406,-0.95313 0.36719,-1.89844 0.61328,-2.83594 0.24609,-0.9336 0.53125,-1.85938 0.85156,-2.77344 0.32422,-0.91016 0.6875,-1.80859 1.08594,-2.6875 0.40234,-0.88281 0.83594,-1.74609 1.30859,-2.58984 0.47657,-0.84375 0.98438,-1.66797 1.52735,-2.46875 0.54297,-0.80469 1.11718,-1.58203 1.72656,-2.33203 0.60937,-0.75391 1.25,-1.48047 1.91797,-2.17969 0.67187,-0.69922 1.37109,-1.36719 2.09765,-2.00781 0.72657,-0.63672 1.48047,-1.2461 2.25782,-1.82032 0.78125,-0.57812 1.58203,-1.11718 2.40625,-1.625 0.82422,-0.50781 1.67187,-0.98047 2.53515,-1.41797 0.86328,-0.4375 1.7461,-0.83593 2.64453,-1.19531 0.89844,-0.36328 1.8125,-0.6875 2.73829,-0.97265 0.92578,-0.28125 1.86328,-0.52735 2.80859,-0.73438 1.01953,-0.22656 1.98437,-0.0898 2.89453,0.41406 0.65625,0.36719 1.34375,0.64844 2.07031,0.83594 0.72266,0.19141 1.46094,0.28906 2.21094,0.28906 0.75,0 1.48828,-0.0976 2.21484,-0.28906 0.72266,-0.1875 1.41407,-0.46875 2.06641,-0.83594 0.91016,-0.48828 1.87109,-0.62109 2.87891,-0.39843 0.94922,0.20312 1.88281,0.44921 2.80859,0.73437 0.92578,0.28516 1.83984,0.60547 2.73828,0.96875 0.89844,0.35938 1.78125,0.76172 2.64453,1.19531 0.86328,0.4375 1.71094,0.91016 2.53516,1.41797 0.82422,0.50781 1.625,1.04688 2.40625,1.625 0.77734,0.57422 1.53125,1.17969 2.25781,1.82031 0.72656,0.64063 1.42578,1.3086 2.09375,2.00782 0.67188,0.69922 1.3125,1.42187 1.92188,2.17578 0.60937,0.7539 1.18359,1.52734 1.72656,2.33203 0.54297,0.80078 1.05078,1.62109 1.52344,2.46484 0.47265,0.84766 0.91015,1.70703 1.30859,2.58985 0.40234,0.88281 0.76172,1.77734 1.08594,2.6875 0.32422,0.91406 0.60937,1.83593 0.85547,2.77343 0.24609,0.9375 0.44922,1.87891 0.61718,2.83204 0.16407,0.95312 0.28907,1.91406 0.3711,2.8789 0.0859,0.96094 0.1289,1.92969 0.1289,2.89453 v 5.21875 c 0,0.28125 -0.0273,0.55469 -0.0781,0.82813 -0.0547,0.27344 -0.13672,0.53515 -0.24219,0.79297 -0.10547,0.25781 -0.23828,0.5 -0.39062,0.73047 -0.15625,0.23437 -0.33203,0.44531 -0.52735,0.64453 -0.19922,0.19531 -0.41406,0.37109 -0.64453,0.52343 -0.23047,0.15625 -0.47656,0.28516 -0.73047,0.39454 -0.25781,0.10546 -0.52343,0.18359 -0.79687,0.23828 -0.27344,0.0547 -0.54688,0.082 -0.82813,0.082 h -59.90625 c -0.27734,0 -0.55468,-0.0274 -0.82812,-0.082 -0.27344,-0.0547 -0.53906,-0.13672 -0.79688,-0.24219 -0.26172,-0.10547 -0.5039,-0.23828 -0.73828,-0.39453 -0.23047,-0.15625 -0.44531,-0.33203 -0.64062,-0.53125 -0.19922,-0.19531 -0.375,-0.41406 -0.52735,-0.64453 -0.15625,-0.23438 -0.28515,-0.48047 -0.39062,-0.73828 -0.10547,-0.25782 -0.1836,-0.52344 -0.23828,-0.79688 -0.0547,-0.27344 -0.0781,-0.55078 -0.0781,-0.83203 z m 59.90625,-5.19141 c -0.004,-1.39843 -0.11719,-2.78906 -0.34765,-4.16797 -0.23047,-1.38281 -0.57032,-2.73437 -1.01954,-4.0625 -0.45312,-1.32421 -1.0039,-2.60546 -1.66406,-3.83984 -0.66015,-1.23437 -1.41406,-2.41016 -2.26562,-3.52344 -0.84766,-1.10937 -1.78516,-2.14843 -2.80078,-3.10937 -1.01954,-0.96094 -2.10938,-1.83203 -3.27344,-2.61328 -1.16016,-0.78516 -2.37891,-1.46875 -3.65235,-2.05469 -1.26953,-0.58594 -2.58203,-1.06641 -3.93359,-1.4375 -1.06641,0.45703 -2.16797,0.80469 -3.30469,1.03516 -1.13672,0.23437 -2.28515,0.35156 -3.44531,0.35156 -1.16016,0 -2.30859,-0.11719 -3.44531,-0.35156 -1.13672,-0.23047 -2.23828,-0.57813 -3.30469,-1.03516 -1.35156,0.37109 -2.66406,0.85156 -3.9375,1.4375 -1.26953,0.58594 -2.48828,1.26953 -3.65234,2.05078 -1.16016,0.78516 -2.25,1.65625 -3.26953,2.61719 -1.01954,0.96094 -1.95704,1.99609 -2.8086,3.10937 -0.84765,1.11328 -1.60547,2.28907 -2.26172,3.52344 -0.66015,1.23438 -1.21484,2.51563 -1.66797,3.83984 -0.44921,1.32422 -0.78906,2.67969 -1.01953,4.0586 -0.23047,1.38281 -0.34765,2.77344 -0.35156,4.17187 v 0.98828 h 51.42578 z m 0,0"
       fill-opacity="1"
       fill-rule="nonzero"
       id="path131" />
  </g>
  <path
     fill="#ffffff"
     d="m 249.5039,176.69922 c 0,-0.57813 0.0274,-1.15625 0.0859,-1.73047 0.0547,-0.57422 0.14062,-1.14453 0.25391,-1.71094 0.10937,-0.5664 0.25,-1.1289 0.41796,-1.67968 0.16797,-0.55469 0.36329,-1.09766 0.58204,-1.62891 0.22265,-0.53516 0.46875,-1.05469 0.74218,-1.56641 0.26953,-0.50781 0.56641,-1.0039 0.88672,-1.48437 0.32422,-0.48047 0.66797,-0.94531 1.03125,-1.39063 0.36719,-0.44531 0.75781,-0.875 1.16406,-1.28515 0.41016,-0.40625 0.83594,-0.79297 1.28516,-1.16016 0.44531,-0.36719 0.91016,-0.71094 1.39063,-1.03125 0.48046,-0.32422 0.97656,-0.62109 1.48437,-0.89062 0.51172,-0.27344 1.03125,-0.51954 1.56641,-0.74219 0.53515,-0.22266 1.07812,-0.41797 1.63281,-0.58594 0.55078,-0.16797 1.11328,-0.30469 1.67969,-0.41797 0.5664,-0.11328 1.13672,-0.19922 1.71484,-0.25781 0.57422,-0.0547 1.15234,-0.0859 1.73047,-0.0859 0.57812,0 1.15234,0.0274 1.73047,0.0859 0.57422,0.0547 1.14453,0.14062 1.71484,0.25391 0.56641,0.10937 1.125,0.25 1.67969,0.41796 0.55469,0.16797 1.09766,0.36329 1.63281,0.58204 0.53516,0.22265 1.05469,0.46875 1.56641,0.73828 0.50781,0.27343 1.0039,0.57031 1.48437,0.89062 0.48438,0.32031 0.94532,0.66406 1.39453,1.03125 0.44532,0.36719 0.875,0.75391 1.28516,1.16016 0.40625,0.41015 0.79688,0.83594 1.16406,1.28125 0.36719,0.44922 0.71094,0.91015 1.03125,1.39062 0.32032,0.48047 0.61719,0.97657 0.89063,1.48438 0.27344,0.50781 0.51953,1.03125 0.74219,1.5625 0.22265,0.53515 0.41796,1.07812 0.58593,1.6289 0.16797,0.55469 0.3086,1.11329 0.42188,1.67969 0.10937,0.56641 0.19531,1.13672 0.2539,1.71094 0.0547,0.57422 0.0859,1.15234 0.0859,1.73047 0,0.57812 -0.0312,1.15234 -0.0859,1.72656 -0.0547,0.57422 -0.14062,1.14844 -0.2539,1.71484 -0.11328,0.56641 -0.25391,1.125 -0.42188,1.67579 -0.16797,0.55468 -0.35937,1.09765 -0.58203,1.6289 -0.22265,0.53516 -0.46875,1.0586 -0.74219,1.56641 -0.26953,0.50781 -0.5664,1.0039 -0.89062,1.48437 -0.32031,0.48047 -0.66406,0.94532 -1.03125,1.39063 -0.36719,0.44531 -0.75391,0.875 -1.16406,1.28125 -0.40625,0.41015 -0.83594,0.79687 -1.28125,1.16406 -0.44922,0.36719 -0.91407,0.71094 -1.39453,1.03125 -0.48047,0.32031 -0.97657,0.61719 -1.48438,0.88672 -0.51172,0.27344 -1.03125,0.51953 -1.56641,0.74219 -0.53515,0.22265 -1.07812,0.41406 -1.63281,0.58203 -0.55078,0.16797 -1.11328,0.30859 -1.67969,0.42187 -0.5664,0.11328 -1.14062,0.19532 -1.71484,0.25391 -0.57422,0.0547 -1.15234,0.0859 -1.73047,0.0859 -0.57812,-0.004 -1.15234,-0.0312 -1.73047,-0.0899 -0.57422,-0.0547 -1.14453,-0.14062 -1.71093,-0.2539 -0.56641,-0.11328 -1.125,-0.25391 -1.67969,-0.42188 -0.55078,-0.16797 -1.09375,-0.36328 -1.62891,-0.58203 -0.53125,-0.22266 -1.05469,-0.46875 -1.5625,-0.74219 -0.51172,-0.27343 -1.0039,-0.5664 -1.48437,-0.88672 -0.48047,-0.32421 -0.94532,-0.66406 -1.39063,-1.03125 -0.44531,-0.36718 -0.875,-0.7539 -1.28515,-1.16015 -0.40625,-0.41016 -0.79297,-0.83594 -1.16016,-1.28125 -0.36719,-0.44531 -0.71094,-0.90625 -1.03516,-1.38672 -0.32031,-0.48047 -0.61718,-0.97266 -0.89062,-1.48438 -0.27344,-0.50781 -0.51953,-1.02734 -0.74219,-1.55859 -0.21875,-0.53516 -0.41406,-1.07812 -0.58594,-1.62891 -0.16797,-0.55078 -0.30859,-1.10937 -0.42187,-1.67578 -0.11328,-0.5664 -0.19922,-1.13672 -0.25781,-1.71093 -0.0586,-0.57032 -0.0859,-1.14844 -0.0899,-1.72266 z m 8.49219,0 c 0,0.59766 0.0586,1.19531 0.17578,1.78516 0.11719,0.58593 0.29297,1.16015 0.52344,1.71484 0.23047,0.55469 0.51172,1.08203 0.84765,1.58203 0.33204,0.5 0.71094,0.96094 1.13672,1.38672 0.42578,0.42578 0.89063,0.80469 1.39063,1.13672 0.5,0.33594 1.02734,0.61719 1.58203,0.84765 0.55859,0.23047 1.12891,0.40235 1.71875,0.51954 0.58984,0.11718 1.1875,0.17578 1.78906,0.17578 0.60156,0 1.19922,-0.0586 1.78906,-0.17578 0.58985,-0.11719 1.16016,-0.28907 1.71875,-0.51954 0.55469,-0.23046 1.08204,-0.51171 1.58204,-0.84765 0.5,-0.33203 0.96484,-0.71094 1.39062,-1.13672 0.42578,-0.42578 0.80469,-0.88672 1.14063,-1.38672 0.33203,-0.5 0.61328,-1.02734 0.84375,-1.58203 0.23046,-0.55469 0.40625,-1.12891 0.52343,-1.71484 0.11719,-0.58985 0.17578,-1.1875 0.17578,-1.78516 0,-0.60156 -0.0586,-1.19922 -0.17578,-1.78906 -0.11718,-0.58594 -0.29297,-1.16016 -0.52343,-1.71485 -0.23047,-0.55468 -0.51172,-1.08203 -0.84375,-1.58203 -0.33594,-0.5 -0.71485,-0.96094 -1.14063,-1.38672 -0.42578,-0.42578 -0.89062,-0.80468 -1.39062,-1.13672 -0.5,-0.33593 -1.02735,-0.61718 -1.58204,-0.84765 -0.55859,-0.23047 -1.1289,-0.40235 -1.71875,-0.51953 -0.58984,-0.11719 -1.1875,-0.17578 -1.78906,-0.17578 -0.60156,0 -1.19531,0.0586 -1.78515,0.17578 -0.58985,0.12109 -1.16407,0.29297 -1.71875,0.52343 -0.55469,0.23047 -1.08204,0.51172 -1.58204,0.84766 -0.5,0.33203 -0.96484,0.71094 -1.39062,1.13672 -0.42578,0.42578 -0.80469,0.88672 -1.13672,1.38672 -0.33594,0.5 -0.61719,1.02734 -0.84766,1.58203 -0.23046,0.55469 -0.40625,1.125 -0.52343,1.71484 -0.11719,0.58594 -0.17969,1.1836 -0.17969,1.78516 z m 0,0"
     fill-opacity="1"
     fill-rule="nonzero"
     id="path135" />
  <g
     clip-path="url(#id3)"
     id="g139"
     transform="translate(-195.47266,-228.61328)">
    <path
       fill="#ffffff"
       d="m 428.43359,451.53125 v -5.19141 c 0.004,-0.96875 0.0469,-1.93359 0.12891,-2.89843 0.0859,-0.96485 0.21094,-1.92579 0.375,-2.87891 0.16406,-0.95313 0.37109,-1.89844 0.61719,-2.83594 0.24609,-0.9375 0.53125,-1.86328 0.85547,-2.77344 0.32421,-0.91406 0.6875,-1.8125 1.08593,-2.69531 0.40235,-0.8789 0.83985,-1.74219 1.3125,-2.58984 0.47266,-0.84375 0.98438,-1.66797 1.52735,-2.46875 0.54297,-0.80078 1.12109,-1.57813 1.73047,-2.33203 0.60937,-0.75391 1.25,-1.48047 1.92187,-2.17578 0.67188,-0.69922 1.37109,-1.3711 2.10156,-2.00782 0.72657,-0.64062 1.48047,-1.24609 2.26172,-1.82422 0.77735,-0.57421 1.58203,-1.11718 2.40625,-1.625 0.82813,-0.50781 1.67188,-0.97656 2.53906,-1.41406 0.86719,-0.43359 1.75,-0.83203 2.64844,-1.19531 0.90235,-0.35938 1.8125,-0.68359 2.74219,-0.96484 0.92578,-0.28516 1.86328,-0.52735 2.8125,-0.73438 1.01562,-0.22656 1.98047,-0.0898 2.89453,0.41406 0.65234,0.36719 1.33984,0.64844 2.06641,0.83594 0.72656,0.19141 1.46484,0.28906 2.21484,0.28906 0.75,0 1.48438,-0.0976 2.21094,-0.28906 0.72656,-0.1875 1.41406,-0.46875 2.0664,-0.83594 0.91407,-0.48828 1.8711,-0.62109 2.88282,-0.39843 0.94531,0.20703 1.8789,0.45312 2.80468,0.73828 0.92579,0.28515 1.83594,0.60937 2.73438,0.96875 0.89844,0.36328 1.77734,0.76172 2.64062,1.19922 0.86329,0.4375 1.70704,0.91015 2.53125,1.41796 0.82422,0.50782 1.625,1.05079 2.40235,1.625 0.77734,0.57813 1.53125,1.1836 2.2539,1.82422 0.72657,0.63672 1.42579,1.3086 2.09375,2.00782 0.67188,0.69531 1.3086,1.42187 1.91797,2.17578 0.60547,0.75 1.1836,1.52734 1.72266,2.32812 0.54297,0.80078 1.05078,1.625 1.52344,2.46875 0.47265,0.84375 0.90625,1.70703 1.30468,2.58594 0.40235,0.88281 0.76172,1.77734 1.08594,2.6875 0.32031,0.91406 0.60547,1.83594 0.85156,2.76953 0.2461,0.9375 0.44922,1.88281 0.61329,2.83203 0.16406,0.95313 0.28906,1.91406 0.375,2.875 0.082,0.96485 0.125,1.92969 0.125,2.89453 v 5.21875 c 0,0.28125 -0.0274,0.55469 -0.082,0.82813 -0.0508,0.27344 -0.13281,0.53515 -0.23828,0.79297 -0.10937,0.25781 -0.23828,0.5 -0.39453,0.73047 -0.15234,0.23437 -0.32812,0.44531 -0.52344,0.64453 -0.19921,0.19531 -0.41406,0.37109 -0.64453,0.52343 -0.23047,0.15625 -0.47656,0.28516 -0.73437,0.39454 -0.25391,0.10546 -0.51953,0.18359 -0.79297,0.23828 -0.27344,0.0547 -0.55078,0.082 -0.82813,0.082 h -59.90625 c -0.27734,0 -0.55468,-0.0274 -0.82812,-0.082 -0.27344,-0.0547 -0.53906,-0.13672 -0.80078,-0.24219 -0.25781,-0.10547 -0.5,-0.23828 -0.73438,-0.39453 -0.23047,-0.15625 -0.44531,-0.33203 -0.64062,-0.53125 -0.19922,-0.19531 -0.375,-0.41406 -0.52735,-0.64453 -0.15625,-0.23438 -0.28515,-0.48047 -0.39062,-0.73828 -0.10547,-0.25782 -0.1875,-0.52344 -0.23828,-0.79688 -0.0547,-0.27344 -0.0781,-0.55078 -0.0781,-0.83203 z m 59.90625,-5.19141 c -0.004,-1.39843 -0.12109,-2.78515 -0.35156,-4.16406 -0.23047,-1.38281 -0.57422,-2.73437 -1.02344,-4.05859 -0.44922,-1.32032 -1.00781,-2.60157 -1.66406,-3.83594 -0.66016,-1.23438 -1.41406,-2.40625 -2.26562,-3.51563 -0.84766,-1.11328 -1.78516,-2.14843 -2.80079,-3.10546 -1.01953,-0.96094 -2.10937,-1.83204 -3.26953,-2.61329 -1.16015,-0.78515 -2.3789,-1.46875 -3.64843,-2.05468 -1.27344,-0.58203 -2.58594,-1.0625 -3.9336,-1.4336 -1.0664,0.45703 -2.16797,0.80469 -3.30469,1.03516 -1.13671,0.23437 -2.28515,0.35156 -3.44531,0.35156 -1.16015,0 -2.30859,-0.11719 -3.44531,-0.35156 -1.13672,-0.23047 -2.23828,-0.57813 -3.30469,-1.03516 -1.34765,0.3711 -2.66015,0.85157 -3.93359,1.4336 -1.27344,0.58593 -2.48828,1.26953 -3.64844,2.05078 -1.16016,0.78515 -2.25,1.65625 -3.26953,2.61328 -1.01953,0.96094 -1.95703,1.99609 -2.80469,3.10547 -0.85156,1.11328 -1.60937,2.28515 -2.26562,3.51953 -0.66016,1.23437 -1.21875,2.51172 -1.66797,3.83594 -0.45313,1.32422 -0.79297,2.67578 -1.02735,4.05468 -0.23046,1.38282 -0.34765,2.76954 -0.35156,4.16797 v 0.98828 h 51.42578 z m 0,0"
       fill-opacity="1"
       fill-rule="nonzero"
       id="path137" />
  </g>
  <path
     fill="#ffffff"
     d="m 192.20703,314.32422 c 0.27734,0 0.55468,-0.0273 0.82812,-0.082 0.27344,-0.0547 0.53906,-0.13672 0.79688,-0.24219 0.25781,-0.10937 0.5,-0.23828 0.73437,-0.39453 0.23047,-0.15234 0.44531,-0.32813 0.64063,-0.52734 0.19922,-0.19532 0.375,-0.41016 0.52734,-0.64454 0.15625,-0.23046 0.28516,-0.47656 0.39063,-0.73437 0.10937,-0.25781 0.1875,-0.52344 0.24218,-0.79688 0.0508,-0.27343 0.0781,-0.54687 0.0781,-0.82812 v -29.72656 c 0,-0.27735 -0.0274,-0.55469 -0.082,-0.82422 -0.0547,-0.27344 -0.13282,-0.53906 -0.24219,-0.79688 -0.10547,-0.2539 -0.23438,-0.5 -0.39063,-0.73047 -0.15625,-0.23046 -0.32812,-0.44531 -0.52734,-0.64062 -0.19531,-0.19922 -0.41016,-0.37109 -0.64062,-0.52734 -0.23438,-0.15625 -0.47657,-0.28516 -0.73438,-0.39063 -0.25781,-0.10547 -0.52344,-0.1875 -0.79297,-0.24219 -0.27344,-0.0547 -0.55078,-0.082 -0.82812,-0.082 -0.27735,0 -0.55469,0.0274 -0.82813,0.082 -0.27344,0.0547 -0.53906,0.13672 -0.79297,0.24219 -0.25781,0.10547 -0.5039,0.23828 -0.73437,0.39063 -0.23047,0.15625 -0.44531,0.32812 -0.64063,0.52734 -0.19922,0.19531 -0.375,0.41016 -0.52734,0.64062 -0.15625,0.23047 -0.28516,0.47657 -0.39453,0.73047 -0.10547,0.25782 -0.1875,0.52344 -0.23828,0.79688 -0.0547,0.26953 -0.082,0.54687 -0.082,0.82422 v 29.72656 c -0.004,0.28125 0.0234,0.55469 0.0781,0.82812 0.0547,0.27344 0.13281,0.53907 0.23828,0.79688 0.10547,0.25781 0.23828,0.50391 0.39063,0.73437 0.15625,0.23438 0.33203,0.44922 0.52734,0.64454 0.19922,0.19921 0.41406,0.375 0.64453,0.52734 0.23047,0.15625 0.47656,0.28516 0.73438,0.39453 0.25781,0.10547 0.52343,0.1875 0.79687,0.24219 0.27344,0.0547 0.54688,0.082 0.82813,0.082 z m 0,0"
     fill-opacity="1"
     fill-rule="nonzero"
     id="path141" />
  <path
     fill="#ffffff"
     d="M 111.61328,314.32422 H 272.8125 c 0.27734,0 0.55468,-0.0273 0.82812,-0.082 0.27344,-0.0547 0.53906,-0.13672 0.79688,-0.24219 0.25781,-0.10937 0.5039,-0.23828 0.73437,-0.39453 0.23047,-0.15234 0.44531,-0.32813 0.64063,-0.52734 0.19921,-0.19922 0.375,-0.41016 0.52734,-0.64454 0.15625,-0.23046 0.28516,-0.47656 0.39062,-0.73437 0.10938,-0.25781 0.1875,-0.52344 0.24219,-0.79688 0.0547,-0.27343 0.0781,-0.54687 0.0781,-0.82812 v -56.09766 c 0,-0.27734 -0.0274,-0.55078 -0.082,-0.82422 -0.0547,-0.27343 -0.13672,-0.53515 -0.24219,-0.79296 -0.10938,-0.25782 -0.23828,-0.5 -0.39453,-0.73047 -0.15235,-0.23047 -0.32813,-0.44532 -0.52735,-0.64063 -0.19531,-0.19531 -0.41015,-0.37109 -0.64062,-0.52344 -0.23047,-0.15625 -0.47656,-0.28515 -0.73047,-0.39062 -0.25781,-0.10547 -0.52344,-0.1875 -0.79688,-0.24219 -0.26953,-0.0547 -0.54687,-0.082 -0.82421,-0.082 -0.27735,0 -0.55469,0.0273 -0.82813,0.082 -0.26953,0.0547 -0.53516,0.13672 -0.79297,0.24219 -0.25781,0.10547 -0.5,0.23437 -0.73047,0.39062 -0.23437,0.15235 -0.44531,0.32813 -0.64453,0.52344 -0.19531,0.19531 -0.37109,0.41016 -0.52734,0.64063 -0.15235,0.23047 -0.28516,0.47265 -0.39063,0.73047 -0.10547,0.25781 -0.1875,0.51953 -0.24218,0.79296 -0.0547,0.27344 -0.082,0.54688 -0.082,0.82422 v 51.86719 H 115.85156 v -49.40234 c -0.0274,-0.53907 -0.16016,-1.0586 -0.38672,-1.54688 -0.23047,-0.49219 -0.54297,-0.92578 -0.9375,-1.29687 -0.39453,-0.375 -0.84375,-0.66016 -1.34766,-0.85938 -0.5039,-0.20312 -1.02734,-0.30078 -1.57031,-0.30078 -0.54297,0 -1.07031,0.0977 -1.57422,0.30078 -0.5039,0.19922 -0.95312,0.48438 -1.34765,0.85938 -0.39454,0.37109 -0.70704,0.80468 -0.9375,1.29687 -0.22657,0.48828 -0.35547,1.00781 -0.38672,1.54688 v 53.63281 c 0,0.28125 0.0273,0.55859 0.082,0.83203 0.0508,0.27344 0.13281,0.53906 0.23828,0.79688 0.10937,0.2539 0.23828,0.5 0.39453,0.73046 0.15625,0.23438 0.33203,0.44922 0.52734,0.64454 0.19922,0.19921 0.41407,0.375 0.64454,0.52734 0.23437,0.15625 0.48046,0.28906 0.73828,0.39453 0.25781,0.10547 0.52343,0.1875 0.79687,0.24219 0.27344,0.0547 0.55078,0.082 0.82813,0.082 z m 0,0"
     fill-opacity="1"
     fill-rule="nonzero"
     id="path143" />
  <g
     clip-path="url(#id4)"
     id="g149"
     transform="translate(-195.47266,-228.61328)">
    <path
       fill="#ffffff"
       d="m 387.67969,319.32031 c 0.27734,0 0.55468,-0.0273 0.82812,-0.082 0.26953,-0.0547 0.53516,-0.13672 0.79297,-0.24219 0.25781,-0.10547 0.5,-0.23828 0.73438,-0.39062 0.23046,-0.15625 0.44531,-0.33203 0.64062,-0.52735 0.19922,-0.19531 0.37109,-0.41015 0.52734,-0.64062 0.15625,-0.23047 0.28516,-0.47656 0.39063,-0.73047 0.10937,-0.25781 0.1875,-0.52344 0.24219,-0.79687 0.0547,-0.26954 0.082,-0.54688 0.082,-0.82422 v -12.46875 c 0,-0.27735 -0.0274,-0.55078 -0.082,-0.82422 -0.0547,-0.27344 -0.13282,-0.53906 -0.24219,-0.79297 -0.10547,-0.25781 -0.23438,-0.5 -0.39063,-0.73438 -0.15625,-0.23046 -0.32812,-0.44531 -0.52734,-0.64062 -0.19531,-0.19531 -0.41016,-0.37109 -0.64062,-0.52734 -0.23438,-0.15235 -0.47657,-0.28516 -0.73438,-0.39063 -0.25781,-0.10547 -0.52344,-0.1875 -0.79297,-0.23828 -0.27344,-0.0547 -0.55078,-0.082 -0.82812,-0.082 -0.27735,0 -0.55469,0.0273 -0.82813,0.082 -0.27344,0.0508 -0.53906,0.13281 -0.79297,0.23828 -0.25781,0.10547 -0.5039,0.23828 -0.73437,0.39063 -0.23047,0.15625 -0.44531,0.33203 -0.64063,0.52734 -0.19922,0.19531 -0.375,0.41016 -0.52734,0.64062 C 384,300.5 383.87109,300.74219 383.76172,301 c -0.10547,0.25391 -0.1875,0.51953 -0.23828,0.79297 -0.0547,0.27344 -0.082,0.54687 -0.082,0.82422 v 12.46875 c 0,0.27734 0.0273,0.55468 0.082,0.82422 0.0508,0.27343 0.13281,0.53906 0.23828,0.79687 0.10937,0.25391 0.23828,0.5 0.39453,0.73047 0.15234,0.23047 0.32812,0.44531 0.52734,0.64062 0.19532,0.19532 0.41016,0.3711 0.64063,0.52735 0.23047,0.15234 0.47656,0.28515 0.73437,0.39062 0.25391,0.10547 0.51953,0.1875 0.79297,0.24219 0.27344,0.0547 0.55078,0.082 0.82813,0.082 z m 0,0"
       fill-opacity="1"
       fill-rule="nonzero"
       id="path145" />
    <path
       fill="#ffffff"
       d="m 387.67969,319.32031 c 0.27734,0 0.55468,-0.0273 0.82812,-0.082 0.26953,-0.0547 0.53516,-0.13672 0.79297,-0.24219 0.25781,-0.10547 0.5,-0.23828 0.73438,-0.39062 0.23046,-0.15625 0.44531,-0.33203 0.64062,-0.52735 0.19922,-0.19531 0.37109,-0.41015 0.52734,-0.64062 0.15625,-0.23047 0.28516,-0.47656 0.39063,-0.73047 0.10937,-0.25781 0.1875,-0.52344 0.24219,-0.79687 0.0547,-0.26954 0.082,-0.54688 0.082,-0.82422 v -12.46875 c 0,-0.27735 -0.0274,-0.55078 -0.082,-0.82422 -0.0547,-0.27344 -0.13282,-0.53906 -0.24219,-0.79297 -0.10547,-0.25781 -0.23438,-0.5 -0.39063,-0.73438 -0.15625,-0.23046 -0.32812,-0.44531 -0.52734,-0.64062 -0.19531,-0.19531 -0.41016,-0.37109 -0.64062,-0.52734 -0.23438,-0.15235 -0.47657,-0.28516 -0.73438,-0.39063 -0.25781,-0.10547 -0.52344,-0.1875 -0.79297,-0.23828 -0.27344,-0.0547 -0.55078,-0.082 -0.82812,-0.082 -0.27735,0 -0.55469,0.0273 -0.82813,0.082 -0.27344,0.0508 -0.53906,0.13281 -0.79297,0.23828 -0.25781,0.10547 -0.5039,0.23828 -0.73437,0.39063 -0.23047,0.15625 -0.44531,0.33203 -0.64063,0.52734 -0.19922,0.19531 -0.375,0.41016 -0.52734,0.64062 C 384,300.5 383.87109,300.74219 383.76172,301 c -0.10547,0.25391 -0.1875,0.51953 -0.23828,0.79297 -0.0547,0.27344 -0.082,0.54687 -0.082,0.82422 v 12.46875 c 0,0.27734 0.0273,0.55468 0.082,0.82422 0.0508,0.27343 0.13281,0.53906 0.23828,0.79687 0.10937,0.25391 0.23828,0.5 0.39453,0.73047 0.15234,0.23047 0.32812,0.44531 0.52734,0.64062 0.19532,0.19532 0.41016,0.3711 0.64063,0.52735 0.23047,0.15234 0.47656,0.28515 0.73437,0.39062 0.25391,0.10547 0.51953,0.1875 0.79297,0.24219 0.27344,0.0547 0.55078,0.082 0.82813,0.082 z m 0,0"
       fill-opacity="1"
       fill-rule="nonzero"
       id="path147" />
  </g>
  <path
     fill="#ffffff"
     d="m 169.0625,96.910159 c 0.1875,0 0.37109,-0.0117 0.55468,-0.0391 0.1836,-0.0234 0.36328,-0.0625 0.54297,-0.10937 0.17578,-0.0508 0.35156,-0.10938 0.52344,-0.17969 0.16797,-0.0742 0.33594,-0.15625 0.49219,-0.25 0.16015,-0.0898 0.3164,-0.19531 0.46093,-0.30859 0.14454,-0.11328 0.28516,-0.23438 0.41407,-0.36328 0.13281,-0.13282 0.2539,-0.26953 0.36328,-0.41797 0.11328,-0.14453 0.21484,-0.30078 0.30859,-0.46094 0.0937,-0.16016 0.17188,-0.32422 0.24219,-0.49609 0.0742,-0.16797 0.13281,-0.34375 0.17969,-0.52344 0.0469,-0.17578 0.082,-0.35938 0.10937,-0.53906 0.0234,-0.1836 0.0352,-0.36719 0.0352,-0.55469 0,-0.18359 -0.0117,-0.36719 -0.0352,-0.55078 -0.0234,-0.1836 -0.0586,-0.36328 -0.10547,-0.54297 -0.0508,-0.17578 -0.10937,-0.35156 -0.17968,-0.52344 -0.0703,-0.17187 -0.14844,-0.33594 -0.24219,-0.49609 l -6.24219,-10.79688 c -0.28516,-0.46875 -0.65234,-0.87109 -1.09766,-1.19922 -0.44531,-0.32812 -0.9375,-0.55859 -1.47265,-0.69531 -0.53516,-0.13672 -1.07813,-0.16797 -1.625,-0.0937 -0.55078,0.0742 -1.0625,0.25 -1.54297,0.52735 -0.48047,0.27734 -0.88672,0.63281 -1.22656,1.07031 -0.33985,0.4375 -0.58594,0.92187 -0.73438,1.45312 -0.14844,0.53125 -0.1914,1.07032 -0.1289,1.6211 0.0625,0.55078 0.22656,1.0664 0.49218,1.55078 l 6.22657,10.79687 c 0.3789,0.65625 0.89843,1.17578 1.55859,1.5586 0.66016,0.3789 1.37109,0.5664 2.12891,0.5625 z m 0,0"
     fill-opacity="1"
     fill-rule="nonzero"
     id="path151" />
  <path
     fill="#ffffff"
     d="m 169.0625,96.910159 c 0.1875,0 0.37109,-0.0117 0.55468,-0.0391 0.1836,-0.0234 0.36328,-0.0625 0.54297,-0.10937 0.17578,-0.0508 0.35156,-0.10938 0.52344,-0.17969 0.16797,-0.0742 0.33594,-0.15625 0.49219,-0.25 0.16015,-0.0898 0.3164,-0.19531 0.46093,-0.30859 0.14454,-0.11328 0.28516,-0.23438 0.41407,-0.36328 0.13281,-0.13282 0.2539,-0.26953 0.36328,-0.41797 0.11328,-0.14453 0.21484,-0.30078 0.30859,-0.46094 0.0937,-0.16016 0.17188,-0.32422 0.24219,-0.49609 0.0742,-0.16797 0.13281,-0.34375 0.17969,-0.52344 0.0469,-0.17578 0.082,-0.35938 0.10937,-0.53906 0.0234,-0.1836 0.0352,-0.36719 0.0352,-0.55469 0,-0.18359 -0.0117,-0.36719 -0.0352,-0.55078 -0.0234,-0.1836 -0.0586,-0.36328 -0.10547,-0.54297 -0.0508,-0.17578 -0.10937,-0.35156 -0.17968,-0.52344 -0.0703,-0.17187 -0.14844,-0.33594 -0.24219,-0.49609 l -6.24219,-10.79688 c -0.28516,-0.46875 -0.65234,-0.87109 -1.09766,-1.19922 -0.44531,-0.32812 -0.9375,-0.55859 -1.47265,-0.69531 -0.53516,-0.13672 -1.07813,-0.16797 -1.625,-0.0937 -0.55078,0.0742 -1.0625,0.25 -1.54297,0.52735 -0.48047,0.27734 -0.88672,0.63281 -1.22656,1.07031 -0.33985,0.4375 -0.58594,0.92187 -0.73438,1.45312 -0.14844,0.53125 -0.1914,1.07032 -0.1289,1.6211 0.0625,0.55078 0.22656,1.0664 0.49218,1.55078 l 6.22657,10.79687 c 0.3789,0.65625 0.89843,1.17578 1.55859,1.5586 0.66016,0.3789 1.37109,0.5664 2.12891,0.5625 z m 0,0"
     fill-opacity="1"
     fill-rule="nonzero"
     id="path153" />
  <path
     fill="#ffffff"
     d="m 152.09375,113.83203 c 0.46875,-0.004 0.92187,-0.0781 1.35937,-0.22656 0.44141,-0.15234 0.84766,-0.36719 1.21484,-0.65234 0.3711,-0.28125 0.6836,-0.61719 0.94532,-1.00391 0.25781,-0.38672 0.44531,-0.80469 0.5664,-1.25391 0.1211,-0.44531 0.16797,-0.90234 0.14063,-1.36718 -0.0312,-0.46485 -0.13672,-0.91016 -0.3125,-1.33985 -0.17578,-0.42969 -0.41797,-0.82031 -0.72266,-1.17187 -0.30859,-0.35157 -0.66015,-0.64453 -1.0625,-0.87891 l -10.79687,-6.246091 c -0.24219,-0.13672 -0.49219,-0.25391 -0.75782,-0.34375 -0.26562,-0.0899 -0.53515,-0.15235 -0.80859,-0.1875 -0.27734,-0.0352 -0.55469,-0.0469 -0.83203,-0.0274 -0.28125,0.0195 -0.55469,0.0625 -0.82422,0.13672 -0.26562,0.0703 -0.52734,0.16797 -0.77734,0.29297 -0.25,0.12109 -0.48438,0.26563 -0.70703,0.4375 -0.22266,0.167971 -0.42188,0.359381 -0.60938,0.566411 -0.18359,0.21093 -0.34375,0.43359 -0.48437,0.67578 -0.13672,0.24219 -0.25391,0.49219 -0.34375,0.75781 -0.0899,0.26172 -0.15235,0.53125 -0.1875,0.80859 -0.0391,0.27344 -0.0469,0.55079 -0.0312,0.82813 0.0195,0.28125 0.0664,0.55078 0.13671,0.82031 0.0703,0.26953 0.16797,0.53125 0.29297,0.78125 0.1211,0.2461 0.26953,0.48438 0.4375,0.70313 0.16797,0.22265 0.35938,0.42578 0.56641,0.60937 0.21094,0.1836 0.4375,0.34375 0.67578,0.48438 l 10.8125,6.23437 c 0.65234,0.375 1.35547,0.5625 2.10938,0.5625 z m 0,0"
     fill-opacity="1"
     fill-rule="nonzero"
     id="path155" />
  <path
     fill="#ffffff"
     d="m 152.09375,113.83203 c 0.46875,-0.004 0.92187,-0.0781 1.35937,-0.22656 0.44141,-0.15234 0.84766,-0.36719 1.21484,-0.65234 0.3711,-0.28125 0.6836,-0.61719 0.94532,-1.00391 0.25781,-0.38672 0.44531,-0.80469 0.5664,-1.25391 0.1211,-0.44531 0.16797,-0.90234 0.14063,-1.36718 -0.0312,-0.46485 -0.13672,-0.91016 -0.3125,-1.33985 -0.17578,-0.42969 -0.41797,-0.82031 -0.72266,-1.17187 -0.30859,-0.35157 -0.66015,-0.64453 -1.0625,-0.87891 l -10.79687,-6.246091 c -0.24219,-0.13672 -0.49219,-0.25391 -0.75782,-0.34375 -0.26562,-0.0899 -0.53515,-0.15235 -0.80859,-0.1875 -0.27734,-0.0352 -0.55469,-0.0469 -0.83203,-0.0274 -0.28125,0.0195 -0.55469,0.0625 -0.82422,0.13672 -0.26562,0.0703 -0.52734,0.16797 -0.77734,0.29297 -0.25,0.12109 -0.48438,0.26563 -0.70703,0.4375 -0.22266,0.167971 -0.42188,0.359381 -0.60938,0.566411 -0.18359,0.21093 -0.34375,0.43359 -0.48437,0.67578 -0.13672,0.24219 -0.25391,0.49219 -0.34375,0.75781 -0.0899,0.26172 -0.15235,0.53125 -0.1875,0.80859 -0.0391,0.27344 -0.0469,0.55079 -0.0312,0.82813 0.0195,0.28125 0.0664,0.55078 0.13671,0.82031 0.0703,0.26953 0.16797,0.53125 0.29297,0.78125 0.1211,0.2461 0.26953,0.48438 0.4375,0.70313 0.16797,0.22265 0.35938,0.42578 0.56641,0.60937 0.21094,0.1836 0.4375,0.34375 0.67578,0.48438 l 10.8125,6.23437 c 0.65234,0.375 1.35547,0.5625 2.10938,0.5625 z m 0,0"
     fill-opacity="1"
     fill-rule="nonzero"
     id="path157" />
  <path
     fill="#ffffff"
     d="m 133.41015,136.89844 h 12.48438 c 0.27734,0 0.55468,-0.0274 0.82812,-0.0781 0.27344,-0.0547 0.53906,-0.13672 0.79297,-0.24218 0.25781,-0.10547 0.50391,-0.23829 0.73438,-0.39063 0.23046,-0.15625 0.44531,-0.33203 0.64062,-0.52734 0.19922,-0.19532 0.375,-0.41016 0.52734,-0.64063 0.15625,-0.23047 0.28516,-0.47656 0.39454,-0.73437 0.10546,-0.25391 0.1875,-0.51953 0.23828,-0.79297 0.0547,-0.27344 0.082,-0.54688 0.082,-0.82422 0,-0.27734 -0.0274,-0.55469 -0.082,-0.82813 -0.0508,-0.26953 -0.13282,-0.53515 -0.23828,-0.79296 -0.10938,-0.25782 -0.23829,-0.5 -0.39454,-0.73047 -0.15234,-0.23047 -0.32812,-0.44532 -0.52734,-0.64453 -0.19531,-0.19532 -0.41016,-0.3711 -0.64062,-0.52344 -0.23047,-0.15625 -0.47657,-0.28516 -0.73438,-0.39063 -0.25391,-0.10937 -0.51953,-0.1875 -0.79297,-0.24218 -0.27344,-0.0547 -0.55078,-0.082 -0.82812,-0.082 h -12.48438 c -0.27734,0 -0.55078,0.0274 -0.82422,0.082 -0.27343,0.0547 -0.53906,0.13281 -0.79687,0.24218 -0.25781,0.10547 -0.5,0.23438 -0.73047,0.39063 -0.23438,0.15234 -0.44531,0.32812 -0.64453,0.52344 -0.19531,0.19921 -0.3711,0.41406 -0.52735,0.64453 -0.15234,0.23047 -0.28515,0.47265 -0.39062,0.73047 -0.10547,0.25781 -0.1875,0.52343 -0.24219,0.79296 -0.0547,0.27344 -0.082,0.55079 -0.082,0.82813 0,0.27734 0.0273,0.55078 0.082,0.82422 0.0547,0.27344 0.13672,0.53906 0.24219,0.79297 0.10547,0.25781 0.23828,0.5039 0.39062,0.73437 0.15625,0.23047 0.33204,0.44531 0.52735,0.64063 0.19922,0.19531 0.41015,0.37109 0.64453,0.52734 0.23047,0.15234 0.47266,0.28516 0.73047,0.39063 0.25781,0.10546 0.52344,0.1875 0.79687,0.24218 0.27344,0.0508 0.54688,0.0781 0.82422,0.0781 z m 0,0"
     fill-opacity="1"
     fill-rule="nonzero"
     id="path159" />
  <path
     fill="#ffffff"
     d="m 133.41015,136.89844 h 12.48438 c 0.27734,0 0.55468,-0.0274 0.82812,-0.0781 0.27344,-0.0547 0.53906,-0.13672 0.79297,-0.24218 0.25781,-0.10547 0.50391,-0.23829 0.73438,-0.39063 0.23046,-0.15625 0.44531,-0.33203 0.64062,-0.52734 0.19922,-0.19532 0.375,-0.41016 0.52734,-0.64063 0.15625,-0.23047 0.28516,-0.47656 0.39454,-0.73437 0.10546,-0.25391 0.1875,-0.51953 0.23828,-0.79297 0.0547,-0.27344 0.082,-0.54688 0.082,-0.82422 0,-0.27734 -0.0274,-0.55469 -0.082,-0.82813 -0.0508,-0.26953 -0.13282,-0.53515 -0.23828,-0.79296 -0.10938,-0.25782 -0.23829,-0.5 -0.39454,-0.73047 -0.15234,-0.23047 -0.32812,-0.44532 -0.52734,-0.64453 -0.19531,-0.19532 -0.41016,-0.3711 -0.64062,-0.52344 -0.23047,-0.15625 -0.47657,-0.28516 -0.73438,-0.39063 -0.25391,-0.10937 -0.51953,-0.1875 -0.79297,-0.24218 -0.27344,-0.0547 -0.55078,-0.082 -0.82812,-0.082 h -12.48438 c -0.27734,0 -0.55078,0.0274 -0.82422,0.082 -0.27343,0.0547 -0.53906,0.13281 -0.79687,0.24218 -0.25781,0.10547 -0.5,0.23438 -0.73047,0.39063 -0.23438,0.15234 -0.44531,0.32812 -0.64453,0.52344 -0.19531,0.19921 -0.3711,0.41406 -0.52735,0.64453 -0.15234,0.23047 -0.28515,0.47265 -0.39062,0.73047 -0.10547,0.25781 -0.1875,0.52343 -0.24219,0.79296 -0.0547,0.27344 -0.082,0.55079 -0.082,0.82813 0,0.27734 0.0273,0.55078 0.082,0.82422 0.0547,0.27344 0.13672,0.53906 0.24219,0.79297 0.10547,0.25781 0.23828,0.5039 0.39062,0.73437 0.15625,0.23047 0.33204,0.44531 0.52735,0.64063 0.19922,0.19531 0.41015,0.37109 0.64453,0.52734 0.23047,0.15234 0.47266,0.28516 0.73047,0.39063 0.25781,0.10546 0.52344,0.1875 0.79687,0.24218 0.27344,0.0508 0.54688,0.0781 0.82422,0.0781 z m 0,0"
     fill-opacity="1"
     fill-rule="nonzero"
     id="path161" />
  <path
     fill="#ffffff"
     d="m 141.30078,166.3125 c 0.75781,0.004 1.46484,-0.18359 2.125,-0.5625 l 10.80859,-6.23047 c 0.24219,-0.14062 0.46875,-0.30078 0.67578,-0.48437 0.21094,-0.1836 0.40235,-0.38672 0.57031,-0.60547 0.17188,-0.22266 0.31641,-0.45703 0.44141,-0.70703 0.12109,-0.25 0.21875,-0.50782 0.29297,-0.77735 0.0703,-0.26953 0.11719,-0.54297 0.13672,-0.82031 0.0156,-0.27734 0.008,-0.55469 -0.0274,-0.82812 -0.0351,-0.27735 -0.0976,-0.54688 -0.1875,-0.8086 -0.0898,-0.26562 -0.20703,-0.51562 -0.34375,-0.75781 -0.14062,-0.24219 -0.30078,-0.46484 -0.48437,-0.67578 -0.18359,-0.21094 -0.38672,-0.39844 -0.60547,-0.57031 -0.22266,-0.16797 -0.45703,-0.3125 -0.70703,-0.4375 -0.25,-0.125 -0.51172,-0.22266 -0.77734,-0.29297 -0.26954,-0.0742 -0.54297,-0.11719 -0.82422,-0.13672 -0.27735,-0.0195 -0.55469,-0.008 -0.82813,0.0273 -0.27734,0.0352 -0.54687,0.0977 -0.8125,0.1875 -0.26172,0.0899 -0.51562,0.20313 -0.75781,0.34375 l -10.82422,6.23438 c -0.40234,0.23047 -0.76172,0.52343 -1.07031,0.87109 -0.3086,0.35156 -0.55469,0.74219 -0.73438,1.17578 -0.17968,0.42969 -0.28125,0.87891 -0.3125,1.34375 -0.0312,0.46875 0.0117,0.92578 0.13672,1.37891 0.1211,0.44922 0.3086,0.87109 0.57031,1.25781 0.26172,0.38672 0.57813,0.72266 0.94922,1.00781 0.3711,0.28125 0.77735,0.5 1.22266,0.64844 0.44141,0.14844 0.89844,0.22266 1.36719,0.21875 z m 0,0"
     fill-opacity="1"
     fill-rule="nonzero"
     id="path163" />
  <path
     fill="#ffffff"
     d="m 141.30078,166.3125 c 0.75781,0.004 1.46484,-0.18359 2.125,-0.5625 l 10.80859,-6.23047 c 0.24219,-0.14062 0.46875,-0.30078 0.67578,-0.48437 0.21094,-0.1836 0.40235,-0.38672 0.57031,-0.60547 0.17188,-0.22266 0.31641,-0.45703 0.44141,-0.70703 0.12109,-0.25 0.21875,-0.50782 0.29297,-0.77735 0.0703,-0.26953 0.11719,-0.54297 0.13672,-0.82031 0.0156,-0.27734 0.008,-0.55469 -0.0274,-0.82812 -0.0351,-0.27735 -0.0976,-0.54688 -0.1875,-0.8086 -0.0898,-0.26562 -0.20703,-0.51562 -0.34375,-0.75781 -0.14062,-0.24219 -0.30078,-0.46484 -0.48437,-0.67578 -0.18359,-0.21094 -0.38672,-0.39844 -0.60547,-0.57031 -0.22266,-0.16797 -0.45703,-0.3125 -0.70703,-0.4375 -0.25,-0.125 -0.51172,-0.22266 -0.77734,-0.29297 -0.26954,-0.0742 -0.54297,-0.11719 -0.82422,-0.13672 -0.27735,-0.0195 -0.55469,-0.008 -0.82813,0.0273 -0.27734,0.0352 -0.54687,0.0977 -0.8125,0.1875 -0.26172,0.0899 -0.51562,0.20313 -0.75781,0.34375 l -10.82422,6.23438 c -0.40234,0.23047 -0.76172,0.52343 -1.07031,0.87109 -0.3086,0.35156 -0.55469,0.74219 -0.73438,1.17578 -0.17968,0.42969 -0.28125,0.87891 -0.3125,1.34375 -0.0312,0.46875 0.0117,0.92578 0.13672,1.37891 0.1211,0.44922 0.3086,0.87109 0.57031,1.25781 0.26172,0.38672 0.57813,0.72266 0.94922,1.00781 0.3711,0.28125 0.77735,0.5 1.22266,0.64844 0.44141,0.14844 0.89844,0.22266 1.36719,0.21875 z m 0,0"
     fill-opacity="1"
     fill-rule="nonzero"
     id="path165" />
  <g
     clip-path="url(#id5)"
     id="g169"
     transform="translate(-195.47266,-228.61328)">
    <path
       fill="#ffffff"
       d="m 387.89844,319.32031 c 0.27734,0 0.55468,-0.0273 0.82812,-0.082 0.27344,-0.0547 0.53516,-0.13672 0.79297,-0.24219 0.25781,-0.10547 0.50391,-0.23828 0.73438,-0.39062 0.23046,-0.15625 0.44531,-0.33203 0.64062,-0.52735 0.19922,-0.19531 0.375,-0.41015 0.52734,-0.64062 0.15625,-0.23047 0.28516,-0.47656 0.39454,-0.73047 0.10546,-0.25781 0.18359,-0.52344 0.23828,-0.79687 0.0547,-0.26954 0.082,-0.54688 0.082,-0.82422 v -12.46875 c 0,-0.27735 -0.0274,-0.55078 -0.082,-0.82422 -0.0547,-0.27347 -0.13282,-0.53909 -0.23828,-0.793 -0.10938,-0.25781 -0.23829,-0.5 -0.39454,-0.73438 -0.15234,-0.23046 -0.32812,-0.44531 -0.52734,-0.64062 -0.19531,-0.19531 -0.41016,-0.37109 -0.64062,-0.52734 -0.23047,-0.15235 -0.47657,-0.28516 -0.73438,-0.39063 -0.25781,-0.10547 -0.51953,-0.1875 -0.79297,-0.23828 -0.27344,-0.0547 -0.55078,-0.082 -0.82812,-0.082 -0.27735,0 -0.55469,0.0273 -0.82813,0.082 -0.27344,0.0508 -0.53515,0.13281 -0.79297,0.23828 -0.25781,0.10547 -0.5039,0.23828 -0.73437,0.39063 -0.23047,0.15625 -0.44531,0.33203 -0.64063,0.52734 -0.19922,0.19531 -0.375,0.41016 -0.52734,0.64062 -0.15625,0.23438 -0.28516,0.47657 -0.39453,0.73438 -0.10547,0.25391 -0.1836,0.51953 -0.23828,0.79297 -0.0547,0.27344 -0.082,0.54687 -0.082,0.82422 v 12.46875 c 0,0.27734 0.0273,0.55468 0.082,0.82422 0.0547,0.27343 0.13281,0.53906 0.23828,0.79687 0.10937,0.25391 0.23828,0.5 0.39453,0.73047 0.15234,0.23047 0.32812,0.44531 0.52734,0.64062 0.19532,0.19532 0.41016,0.3711 0.64063,0.52735 0.23047,0.15234 0.47656,0.28515 0.73437,0.39062 0.25782,0.10547 0.51953,0.1875 0.79297,0.24219 0.27344,0.0547 0.55078,0.082 0.82813,0.082 z m 0,0"
       fill-opacity="1"
       fill-rule="nonzero"
       id="path167" />
  </g>
  <path
     fill="#ffffff"
     d="m 215.5664,96.910159 c 0.76172,0 1.46875,-0.1875 2.125,-0.56641 0.65625,-0.37891 1.17578,-0.89844 1.55078,-1.55469 l 6.24219,-10.79687 c 0.14844,-0.24219 0.26953,-0.49219 0.36719,-0.75781 0.0976,-0.26563 0.16406,-0.53907 0.20703,-0.81641 0.043,-0.28125 0.0547,-0.5625 0.043,-0.84375 -0.0156,-0.28125 -0.0586,-0.55859 -0.12891,-0.83203 -0.0664,-0.27344 -0.16406,-0.53906 -0.28515,-0.79297 -0.125,-0.25391 -0.26954,-0.49219 -0.44141,-0.71875 -0.17188,-0.22266 -0.36328,-0.42969 -0.57422,-0.61719 -0.21094,-0.1875 -0.44141,-0.34765 -0.68359,-0.49219 -0.2461,-0.14062 -0.50391,-0.2539 -0.76953,-0.34375 -0.26954,-0.0898 -0.54297,-0.15234 -0.82422,-0.1875 -0.27735,-0.0351 -0.5586,-0.043 -0.84375,-0.0234 -0.28125,0.0195 -0.5586,0.0703 -0.82813,0.14453 -0.27344,0.0781 -0.53515,0.17969 -0.78515,0.30859 -0.25391,0.12891 -0.48829,0.28125 -0.71094,0.45703 -0.21875,0.17578 -0.42188,0.3711 -0.60547,0.58594 -0.17969,0.21875 -0.33984,0.44922 -0.47266,0.69531 l -6.24218,10.79688 c -0.0937,0.16015 -0.17579,0.32422 -0.2461,0.49609 -0.0703,0.17188 -0.1289,0.34766 -0.17578,0.52344 -0.0469,0.17969 -0.082,0.35937 -0.10547,0.54297 -0.0234,0.18359 -0.0351,0.36719 -0.0351,0.55078 0,0.1875 0.0117,0.37109 0.0351,0.55469 0.0234,0.17968 0.0625,0.36328 0.10938,0.53906 0.0469,0.17969 0.10547,0.35547 0.17578,0.52344 0.0703,0.17187 0.15234,0.33593 0.24609,0.49609 0.0937,0.16016 0.19531,0.31641 0.30469,0.46094 0.11328,0.14844 0.23437,0.28515 0.36719,0.41797 0.1289,0.1289 0.26562,0.25 0.41406,0.36328 0.14453,0.11328 0.30078,0.21875 0.45703,0.30859 0.16016,0.0937 0.32813,0.17578 0.49609,0.25 0.17188,0.0703 0.34766,0.12891 0.52344,0.17969 0.17969,0.0469 0.35938,0.0859 0.54297,0.10937 0.18359,0.0274 0.36719,0.0391 0.55078,0.0391 z m 0,0"
     fill-opacity="1"
     fill-rule="nonzero"
     id="path171" />
  <path
     fill="#ffffff"
     d="m 215.5664,96.910159 c 0.76172,0 1.46875,-0.1875 2.125,-0.56641 0.65625,-0.37891 1.17578,-0.89844 1.55078,-1.55469 l 6.24219,-10.79687 c 0.14844,-0.24219 0.26953,-0.49219 0.36719,-0.75781 0.0976,-0.26563 0.16406,-0.53907 0.20703,-0.81641 0.043,-0.28125 0.0547,-0.5625 0.043,-0.84375 -0.0156,-0.28125 -0.0586,-0.55859 -0.12891,-0.83203 -0.0664,-0.27344 -0.16406,-0.53906 -0.28515,-0.79297 -0.125,-0.25391 -0.26954,-0.49219 -0.44141,-0.71875 -0.17188,-0.22266 -0.36328,-0.42969 -0.57422,-0.61719 -0.21094,-0.1875 -0.44141,-0.34765 -0.68359,-0.49219 -0.2461,-0.14062 -0.50391,-0.2539 -0.76953,-0.34375 -0.26954,-0.0898 -0.54297,-0.15234 -0.82422,-0.1875 -0.27735,-0.0351 -0.5586,-0.043 -0.84375,-0.0234 -0.28125,0.0195 -0.5586,0.0703 -0.82813,0.14453 -0.27344,0.0781 -0.53515,0.17969 -0.78515,0.30859 -0.25391,0.12891 -0.48829,0.28125 -0.71094,0.45703 -0.21875,0.17578 -0.42188,0.3711 -0.60547,0.58594 -0.17969,0.21875 -0.33984,0.44922 -0.47266,0.69531 l -6.24218,10.79688 c -0.0937,0.16015 -0.17579,0.32422 -0.2461,0.49609 -0.0703,0.17188 -0.1289,0.34766 -0.17578,0.52344 -0.0469,0.17969 -0.082,0.35937 -0.10547,0.54297 -0.0234,0.18359 -0.0351,0.36719 -0.0351,0.55078 0,0.1875 0.0117,0.37109 0.0351,0.55469 0.0234,0.17968 0.0625,0.36328 0.10938,0.53906 0.0469,0.17969 0.10547,0.35547 0.17578,0.52344 0.0703,0.17187 0.15234,0.33593 0.24609,0.49609 0.0937,0.16016 0.19531,0.31641 0.30469,0.46094 0.11328,0.14844 0.23437,0.28515 0.36719,0.41797 0.1289,0.1289 0.26562,0.25 0.41406,0.36328 0.14453,0.11328 0.30078,0.21875 0.45703,0.30859 0.16016,0.0937 0.32813,0.17578 0.49609,0.25 0.17188,0.0703 0.34766,0.12891 0.52344,0.17969 0.17969,0.0469 0.35938,0.0859 0.54297,0.10937 0.18359,0.0274 0.36719,0.0391 0.55078,0.0391 z m 0,0"
     fill-opacity="1"
     fill-rule="nonzero"
     id="path173" />
  <path
     fill="#ffffff"
     d="m 232.58984,113.83203 c 0.75781,0 1.46094,-0.1875 2.11328,-0.5625 l 10.80859,-6.23437 c 0.24219,-0.14063 0.46875,-0.30078 0.67969,-0.48438 0.20703,-0.18359 0.39844,-0.38281 0.56641,-0.60547 0.17187,-0.21875 0.3164,-0.45703 0.4414,-0.70312 0.125,-0.25 0.22266,-0.51172 0.29297,-0.77735 0.0742,-0.26953 0.11719,-0.54296 0.13672,-0.82031 0.0195,-0.27734 0.008,-0.55469 -0.0273,-0.83203 -0.0352,-0.27344 -0.0977,-0.54297 -0.1875,-0.80859 -0.0899,-0.26172 -0.20313,-0.51563 -0.34375,-0.75782 -0.14063,-0.23828 -0.30078,-0.46484 -0.48438,-0.67578 -0.18359,-0.20703 -0.38672,-0.39843 -0.60547,-0.5664 -0.22265,-0.171881 -0.45703,-0.316411 -0.70703,-0.441411 -0.25,-0.12109 -0.50781,-0.21875 -0.77734,-0.29297 -0.26953,-0.0703 -0.54297,-0.11719 -0.82031,-0.13281 -0.27735,-0.0195 -0.55469,-0.0117 -0.83203,0.0234 -0.27735,0.0391 -0.54688,0.10156 -0.8125,0.1914 -0.26172,0.0859 -0.51563,0.20313 -0.75782,0.33985 l -10.80859,6.246091 c -0.40234,0.23438 -0.75781,0.52734 -1.0625,0.87891 -0.30469,0.35156 -0.54688,0.74218 -0.72266,1.17187 -0.17968,0.42969 -0.28125,0.875 -0.3125,1.33985 -0.0273,0.46484 0.0156,0.91796 0.13672,1.36718 0.1211,0.44922 0.3125,0.86719 0.57031,1.25391 0.26172,0.38672 0.57422,0.72266 0.94141,1.00391 0.37109,0.28515 0.77734,0.5 1.21484,0.65234 0.44141,0.14844 0.89454,0.22266 1.35938,0.22656 z m 0,0"
     fill-opacity="1"
     fill-rule="nonzero"
     id="path175" />
  <path
     fill="#ffffff"
     d="m 232.58984,113.83203 c 0.75781,0 1.46094,-0.1875 2.11328,-0.5625 l 10.80859,-6.23437 c 0.24219,-0.14063 0.46875,-0.30078 0.67969,-0.48438 0.20703,-0.18359 0.39844,-0.38281 0.56641,-0.60547 0.17187,-0.21875 0.3164,-0.45703 0.4414,-0.70312 0.125,-0.25 0.22266,-0.51172 0.29297,-0.77735 0.0742,-0.26953 0.11719,-0.54296 0.13672,-0.82031 0.0195,-0.27734 0.008,-0.55469 -0.0273,-0.83203 -0.0352,-0.27344 -0.0977,-0.54297 -0.1875,-0.80859 -0.0899,-0.26172 -0.20313,-0.51563 -0.34375,-0.75782 -0.14063,-0.23828 -0.30078,-0.46484 -0.48438,-0.67578 -0.18359,-0.20703 -0.38672,-0.39843 -0.60547,-0.5664 -0.22265,-0.171881 -0.45703,-0.316411 -0.70703,-0.441411 -0.25,-0.12109 -0.50781,-0.21875 -0.77734,-0.29297 -0.26953,-0.0703 -0.54297,-0.11719 -0.82031,-0.13281 -0.27735,-0.0195 -0.55469,-0.0117 -0.83203,0.0234 -0.27735,0.0391 -0.54688,0.10156 -0.8125,0.1914 -0.26172,0.0859 -0.51563,0.20313 -0.75782,0.33985 l -10.80859,6.246091 c -0.40234,0.23438 -0.75781,0.52734 -1.0625,0.87891 -0.30469,0.35156 -0.54688,0.74218 -0.72266,1.17187 -0.17968,0.42969 -0.28125,0.875 -0.3125,1.33985 -0.0273,0.46484 0.0156,0.91796 0.13672,1.36718 0.1211,0.44922 0.3125,0.86719 0.57031,1.25391 0.26172,0.38672 0.57422,0.72266 0.94141,1.00391 0.37109,0.28515 0.77734,0.5 1.21484,0.65234 0.44141,0.14844 0.89454,0.22266 1.35938,0.22656 z m 0,0"
     fill-opacity="1"
     fill-rule="nonzero"
     id="path177" />
  <path
     fill="#ffffff"
     d="m 238.73828,136.89844 h 12.48047 c 0.28125,0 0.55468,-0.0274 0.82812,-0.0781 0.27344,-0.0547 0.53906,-0.13672 0.79688,-0.24218 0.2539,-0.10547 0.5,-0.23829 0.73046,-0.39063 0.23047,-0.15625 0.44532,-0.33203 0.64454,-0.52734 0.19531,-0.19532 0.37109,-0.41016 0.52734,-0.64063 0.15234,-0.23047 0.28516,-0.47656 0.39062,-0.73437 0.10547,-0.25391 0.1875,-0.51953 0.24219,-0.79297 0.0547,-0.27344 0.082,-0.54688 0.082,-0.82422 0,-0.27734 -0.0273,-0.55469 -0.082,-0.82813 -0.0547,-0.26953 -0.13672,-0.53515 -0.24219,-0.79296 -0.10546,-0.25782 -0.23828,-0.5 -0.39062,-0.73047 -0.15625,-0.23047 -0.33203,-0.44532 -0.52734,-0.64453 -0.19922,-0.19532 -0.41407,-0.3711 -0.64454,-0.52344 -0.23046,-0.15625 -0.47656,-0.28516 -0.73046,-0.39063 -0.25782,-0.10937 -0.52344,-0.1875 -0.79688,-0.24218 -0.27344,-0.0547 -0.54687,-0.082 -0.82812,-0.082 h -12.48047 c -0.28125,0 -0.55469,0.0274 -0.82813,0.082 -0.27344,0.0547 -0.53906,0.13281 -0.79687,0.24218 -0.25391,0.10547 -0.5,0.23438 -0.73047,0.39063 -0.23047,0.15234 -0.44531,0.32812 -0.64453,0.52344 -0.19532,0.19921 -0.3711,0.41406 -0.52735,0.64453 -0.15234,0.23047 -0.28515,0.47265 -0.39062,0.73047 -0.10547,0.25781 -0.1875,0.52343 -0.24219,0.79296 -0.0508,0.27344 -0.0781,0.55079 -0.0781,0.82813 0,0.27734 0.0273,0.55078 0.0781,0.82422 0.0547,0.27344 0.13672,0.53906 0.24219,0.79297 0.10547,0.25781 0.23828,0.5039 0.39062,0.73437 0.15625,0.23047 0.33203,0.44531 0.52735,0.64063 0.19922,0.19531 0.41406,0.37109 0.64453,0.52734 0.23047,0.15234 0.47656,0.28516 0.73047,0.39063 0.25781,0.10546 0.52343,0.1875 0.79687,0.24218 0.27344,0.0508 0.54688,0.0781 0.82813,0.0781 z m 0,0"
     fill-opacity="1"
     fill-rule="nonzero"
     id="path179" />
  <path
     fill="#ffffff"
     d="m 238.73828,136.89844 h 12.48047 c 0.28125,0 0.55468,-0.0274 0.82812,-0.0781 0.27344,-0.0547 0.53906,-0.13672 0.79688,-0.24218 0.2539,-0.10547 0.5,-0.23829 0.73046,-0.39063 0.23047,-0.15625 0.44532,-0.33203 0.64454,-0.52734 0.19531,-0.19532 0.37109,-0.41016 0.52734,-0.64063 0.15234,-0.23047 0.28516,-0.47656 0.39062,-0.73437 0.10547,-0.25391 0.1875,-0.51953 0.24219,-0.79297 0.0547,-0.27344 0.082,-0.54688 0.082,-0.82422 0,-0.27734 -0.0273,-0.55469 -0.082,-0.82813 -0.0547,-0.26953 -0.13672,-0.53515 -0.24219,-0.79296 -0.10546,-0.25782 -0.23828,-0.5 -0.39062,-0.73047 -0.15625,-0.23047 -0.33203,-0.44532 -0.52734,-0.64453 -0.19922,-0.19532 -0.41407,-0.3711 -0.64454,-0.52344 -0.23046,-0.15625 -0.47656,-0.28516 -0.73046,-0.39063 -0.25782,-0.10937 -0.52344,-0.1875 -0.79688,-0.24218 -0.27344,-0.0547 -0.54687,-0.082 -0.82812,-0.082 h -12.48047 c -0.28125,0 -0.55469,0.0274 -0.82813,0.082 -0.27344,0.0547 -0.53906,0.13281 -0.79687,0.24218 -0.25391,0.10547 -0.5,0.23438 -0.73047,0.39063 -0.23047,0.15234 -0.44531,0.32812 -0.64453,0.52344 -0.19532,0.19921 -0.3711,0.41406 -0.52735,0.64453 -0.15234,0.23047 -0.28515,0.47265 -0.39062,0.73047 -0.10547,0.25781 -0.1875,0.52343 -0.24219,0.79296 -0.0508,0.27344 -0.0781,0.55079 -0.0781,0.82813 0,0.27734 0.0273,0.55078 0.0781,0.82422 0.0547,0.27344 0.13672,0.53906 0.24219,0.79297 0.10547,0.25781 0.23828,0.5039 0.39062,0.73437 0.15625,0.23047 0.33203,0.44531 0.52735,0.64063 0.19922,0.19531 0.41406,0.37109 0.64453,0.52734 0.23047,0.15234 0.47656,0.28516 0.73047,0.39063 0.25781,0.10546 0.52343,0.1875 0.79687,0.24218 0.27344,0.0508 0.54688,0.0781 0.82813,0.0781 z m 0,0"
     fill-opacity="1"
     fill-rule="nonzero"
     id="path181" />
  <path
     fill="#ffffff"
     d="m 243.33203,166.3125 c 0.46875,0.004 0.92187,-0.0703 1.36718,-0.21875 0.44141,-0.14844 0.85157,-0.36719 1.22266,-0.64844 0.37109,-0.28515 0.6875,-0.62109 0.94922,-1.00781 0.25781,-0.38672 0.44922,-0.80859 0.57031,-1.25781 0.1211,-0.45313 0.16797,-0.91016 0.13672,-1.37891 -0.0312,-0.46484 -0.13672,-0.91406 -0.31641,-1.34375 -0.17578,-0.43359 -0.42187,-0.82422 -0.73046,-1.17578 -0.3086,-0.34766 -0.66797,-0.64062 -1.07422,-0.87109 l -10.8086,-6.23438 c -0.24218,-0.14062 -0.49218,-0.2539 -0.75781,-0.34375 -0.26172,-0.0859 -0.53125,-0.14844 -0.80859,-0.1875 -0.27735,-0.0351 -0.55469,-0.043 -0.83203,-0.0234 -0.27735,0.0156 -0.55079,0.0625 -0.82032,0.13672 -0.26953,0.0703 -0.52734,0.16797 -0.77734,0.29297 -0.25,0.1211 -0.48438,0.26953 -0.70703,0.4375 -0.21875,0.16797 -0.42188,0.35938 -0.60547,0.56641 -0.18359,0.21094 -0.34375,0.4375 -0.48438,0.67578 -0.13671,0.24219 -0.2539,0.49609 -0.33984,0.75781 -0.0898,0.26172 -0.15234,0.53125 -0.19141,0.8086 -0.0351,0.27734 -0.043,0.55078 -0.0273,0.83203 0.0195,0.27734 0.0664,0.54687 0.13672,0.8164 0.0742,0.26953 0.17187,0.52735 0.29297,0.77735 0.125,0.25 0.26953,0.48437 0.4414,0.70703 0.16797,0.21875 0.35547,0.42187 0.56641,0.60547 0.21094,0.18359 0.43359,0.34375 0.67578,0.48437 l 10.8086,6.23047 c 0.65625,0.375 1.35937,0.5625 2.11328,0.5625 z m 0,0"
     fill-opacity="1"
     fill-rule="nonzero"
     id="path183" />
  <path
     fill="#ffffff"
     d="m 243.33203,166.3125 c 0.46875,0.004 0.92187,-0.0703 1.36718,-0.21875 0.44141,-0.14844 0.85157,-0.36719 1.22266,-0.64844 0.37109,-0.28515 0.6875,-0.62109 0.94922,-1.00781 0.25781,-0.38672 0.44922,-0.80859 0.57031,-1.25781 0.1211,-0.45313 0.16797,-0.91016 0.13672,-1.37891 -0.0312,-0.46484 -0.13672,-0.91406 -0.31641,-1.34375 -0.17578,-0.43359 -0.42187,-0.82422 -0.73046,-1.17578 -0.3086,-0.34766 -0.66797,-0.64062 -1.07422,-0.87109 l -10.8086,-6.23438 c -0.24218,-0.14062 -0.49218,-0.2539 -0.75781,-0.34375 -0.26172,-0.0859 -0.53125,-0.14844 -0.80859,-0.1875 -0.27735,-0.0351 -0.55469,-0.043 -0.83203,-0.0234 -0.27735,0.0156 -0.55079,0.0625 -0.82032,0.13672 -0.26953,0.0703 -0.52734,0.16797 -0.77734,0.29297 -0.25,0.1211 -0.48438,0.26953 -0.70703,0.4375 -0.21875,0.16797 -0.42188,0.35938 -0.60547,0.56641 -0.18359,0.21094 -0.34375,0.4375 -0.48438,0.67578 -0.13671,0.24219 -0.2539,0.49609 -0.33984,0.75781 -0.0898,0.26172 -0.15234,0.53125 -0.19141,0.8086 -0.0351,0.27734 -0.043,0.55078 -0.0273,0.83203 0.0195,0.27734 0.0664,0.54687 0.13672,0.8164 0.0742,0.26953 0.17187,0.52735 0.29297,0.77735 0.125,0.25 0.26953,0.48437 0.4414,0.70703 0.16797,0.21875 0.35547,0.42187 0.56641,0.60547 0.21094,0.18359 0.43359,0.34375 0.67578,0.48437 l 10.8086,6.23047 c 0.65625,0.375 1.35937,0.5625 2.11328,0.5625 z m 0,0"
     fill-opacity="1"
     fill-rule="nonzero"
     id="path185" />
</svg>
