<svg xmlns="http://www.w3.org/2000/svg" xmlns:xlink="http://www.w3.org/1999/xlink" width="1080" zoomAndPan="magnify" viewBox="0 0 810 809.999993" height="1080" preserveAspectRatio="xMidYMid meet" version="1.0"><defs><clipPath id="id1"><path d="M 195.472656 228.613281 L 579.472656 228.613281 L 579.472656 612.613281 L 195.472656 612.613281 Z M 195.472656 228.613281 " clip-rule="nonzero"/></clipPath><clipPath id="id2"><path d="M 298 343 L 477 343 L 477 540.722656 L 298 540.722656 Z M 298 343 " clip-rule="nonzero"/></clipPath><clipPath id="id3"><path d="M 260.769531 300.722656 L 514.269531 300.722656 L 514.269531 428 L 260.769531 428 Z M 260.769531 300.722656 " clip-rule="nonzero"/></clipPath></defs><g clip-path="url(#id1)"><path fill="#ad98d4" d="M 387.472656 228.613281 C 281.433594 228.613281 195.472656 314.574219 195.472656 420.613281 C 195.472656 526.652344 281.433594 612.613281 387.472656 612.613281 C 493.511719 612.613281 579.472656 526.652344 579.472656 420.613281 C 579.472656 314.574219 493.511719 228.613281 387.472656 228.613281 " fill-opacity="1" fill-rule="nonzero"/></g><g clip-path="url(#id2)"><path fill="#ffffff" d="M 476.515625 422.71875 Z M 476.515625 422.71875 L 387.546875 343.886719 L 298.523438 422.753906 L 298.523438 535.445312 C 298.523438 538.355469 300.875 540.691406 303.785156 540.691406 L 359.417969 540.691406 L 359.417969 491.28125 C 359.417969 488.371094 361.753906 486.015625 364.660156 486.015625 L 410.375 486.015625 C 413.285156 486.015625 415.617188 488.371094 415.617188 491.28125 L 415.617188 540.691406 L 471.269531 540.691406 C 474.179688 540.691406 476.511719 538.355469 476.511719 535.445312 L 476.511719 422.714844 Z M 298.523438 422.753906 Z M 298.523438 422.753906 " fill-opacity="1" fill-rule="nonzero"/></g><g clip-path="url(#id3)"><path fill="#ffffff" d="M 387.027344 300.742188 L 260.769531 412.59375 L 274.070312 427.605469 L 387.546875 327.074219 L 500.996094 427.605469 L 514.269531 412.59375 L 388.039062 300.742188 L 387.546875 301.3125 L 387.03125 300.742188 Z M 387.027344 300.742188 " fill-opacity="1" fill-rule="nonzero"/></g><path fill="#ffffff" d="M 298.523438 316.84375 L 330.53125 316.84375 L 330.253906 335.8125 L 298.523438 364.488281 Z M 298.523438 316.84375 " fill-opacity="1" fill-rule="nonzero"/></svg>