<?xml version="1.0" encoding="UTF-8" standalone="no"?>
<svg
   width="512"
   zoomAndPan="magnify"
   viewBox="0 0 384 384"
   height="512"
   preserveAspectRatio="xMidYMid meet"
   version="1.0"
   id="svg373"
   sodipodi:docname="65.svg"
   inkscape:version="1.1 (c68e22c387, 2021-05-23)"
   xmlns:inkscape="http://www.inkscape.org/namespaces/inkscape"
   xmlns:sodipodi="http://sodipodi.sourceforge.net/DTD/sodipodi-0.dtd"
   xmlns="http://www.w3.org/2000/svg"
   xmlns:svg="http://www.w3.org/2000/svg">
  <sodipodi:namedview
     id="namedview375"
     pagecolor="#ffffff"
     bordercolor="#666666"
     borderopacity="1.0"
     inkscape:pageshadow="2"
     inkscape:pageopacity="0.0"
     inkscape:pagecheckerboard="0"
     showgrid="false"
     inkscape:zoom="0.76111111"
     inkscape:cx="279.19708"
     inkscape:cy="235.18248"
     inkscape:window-width="1920"
     inkscape:window-height="1002"
     inkscape:window-x="-8"
     inkscape:window-y="-8"
     inkscape:window-maximized="1"
     inkscape:current-layer="svg373" />
  <defs
     id="defs357">
    <clipPath
       id="id1">
      <path
         d="m 195.47266,228.61328 h 384 v 384 h -384 z m 0,0"
         clip-rule="nonzero"
         id="path348" />
    </clipPath>
    <clipPath
       id="id2">
      <path
         d="M 298,343 H 477 V 540.72266 H 298 Z m 0,0"
         clip-rule="nonzero"
         id="path351" />
    </clipPath>
    <clipPath
       id="id3">
      <path
         d="m 260.76953,300.72266 h 253.5 V 428 h -253.5 z m 0,0"
         clip-rule="nonzero"
         id="path354" />
    </clipPath>
  </defs>
  <g
     clip-path="url(#id1)"
     id="g361"
     transform="translate(-195.47266,-228.61328)">
    <path
       fill="#ad98d4"
       d="m 387.47266,228.61328 c -106.03907,0 -192,85.96094 -192,192 0,106.03906 85.96093,192 192,192 106.03906,0 192,-85.96094 192,-192 0,-106.03906 -85.96094,-192 -192,-192"
       fill-opacity="1"
       fill-rule="nonzero"
       id="path359" />
  </g>
  <g
     clip-path="url(#id2)"
     id="g365"
     transform="translate(-195.47266,-228.61328)">
    <path
       fill="#ffffff"
       d="m 476.51562,422.71875 z m 0,0 -88.96875,-78.83203 -89.02343,78.86719 v 112.6914 c 0,2.91016 2.35156,5.2461 5.26172,5.2461 h 55.63281 v -49.41016 c 0,-2.91016 2.33594,-5.26563 5.24219,-5.26563 H 410.375 c 2.91016,0 5.24219,2.35547 5.24219,5.26563 v 49.41016 h 55.65234 c 2.91016,0 5.24219,-2.33594 5.24219,-5.2461 V 422.71484 Z m -177.99218,0.0352 z m 0,0"
       fill-opacity="1"
       fill-rule="nonzero"
       id="path363" />
  </g>
  <g
     clip-path="url(#id3)"
     id="g369"
     transform="translate(-195.47266,-228.61328)">
    <path
       fill="#ffffff"
       d="m 387.02734,300.74219 -126.25781,111.85156 13.30078,15.01172 113.47656,-100.53125 113.44922,100.53125 13.27344,-15.01172 -126.23047,-111.85156 -0.49219,0.57031 -0.51562,-0.57031 z m 0,0"
       fill-opacity="1"
       fill-rule="nonzero"
       id="path367" />
  </g>
  <path
     fill="#ffffff"
     d="m 103.05078,88.230469 h 32.00781 l -0.27734,18.968751 -31.73047,28.67578 z m 0,0"
     fill-opacity="1"
     fill-rule="nonzero"
     id="path371" />
</svg>
